<?xml version="1.0" encoding="utf-8"?>
<!-- Generator: Adobe Illustrator 26.0.3, SVG Export Plug-In . SVG Version: 6.00 Build 0)  -->
<svg version="1.1" id="Capa_1" xmlns="http://www.w3.org/2000/svg" xmlns:xlink="http://www.w3.org/1999/xlink" x="0px" y="0px"
	 viewBox="0 0 407.2 241.8" style="enable-background:new 0 0 407.2 241.8;" xml:space="preserve">
<style type="text/css">
	.st0{fill:#776E66;}
	.st1{clip-path:url(#SVGID_00000099635903291574371370000009375184616408012165_);fill:#DD3F53;}
	.st2{clip-path:url(#SVGID_00000099635903291574371370000009375184616408012165_);fill:#3491AB;}
	.st3{clip-path:url(#SVGID_00000099635903291574371370000009375184616408012165_);fill:#F3950B;}
	.st4{clip-path:url(#SVGID_00000099635903291574371370000009375184616408012165_);fill:#776E65;}
</style>
<g>
	
		<g id="g875_00000034060722608329966440000004529022223885283214_" transform="matrix(0.90900273,0,0,0.90900273,397.10588,356.20899)">
		<path id="path877_00000067931237002732264280000012414119187774726021_" class="st0" d="M-385.8-141.9c11.5,0,22.6-6,22.6-26.8
			V-210h-4.4v40.6c0,17.8-8.6,23.1-18.3,23.1c-9.5,0-17.8-5.3-17.8-23.1V-210h-4.7v41.1C-408.3-147.9-397.2-141.9-385.8-141.9
			 M-352.3-143.2h4.7v-30.7h14.1l18.1,30.7h5.3l-18.4-31c10.5-1.3,17.1-7.5,17.1-18.1c0-12.7-8.6-17.6-21.9-17.6h-19.2v66.8H-352.3z
			 M-347.6-177.7v-28.3h13.2c11.8,0,18.3,3.6,18.3,13.7c0,9.9-6.6,14.6-18.3,14.6L-347.6-177.7z M-282.9-141.9
			c11.5,0,22.6-6,22.6-26.8V-210h-4.4v40.6c0,17.8-8.6,23.1-18.3,23.1c-9.5,0-17.8-5.3-17.8-23.1V-210h-4.7v41.1
			C-305.3-147.9-294.3-141.9-282.9-141.9 M-224.5-141.9c8.7,0,15.6-3.1,19.7-7.6V-176h-20.5v3.9h15.9v20.7c-3.2,3.2-8.9,5.1-15,5.1
			c-15.2,0-24.1-11.9-24.1-30.5s9.5-30.2,24.8-30.2c7.3,0,11.9,3.1,15.4,6.9l2.7-3.1c-3.5-3.8-9.2-8-18.3-8
			c-17.6,0-29.4,13.2-29.4,34.5C-253.1-155.4-241.7-141.9-224.5-141.9 M-174-141.9c11.5,0,22.6-6,22.6-26.8V-210h-4.4v40.6
			c0,17.8-8.6,23.1-18.3,23.1c-9.5,0-17.8-5.3-17.8-23.1V-210h-4.7v41.1C-196.5-147.9-185.4-141.9-174-141.9 M-132.6-182.5
			c2.7-7.9,5.1-14.9,7.4-23.1h0.4c2.3,8.2,4.7,15.2,7.4,23.1l4.3,12.4h-23.7L-132.6-182.5z M-150.8-143.2h4.7l7.9-22.9h26.4
			l7.8,22.9h4.9l-23.5-66.8h-4.7L-150.8-143.2z M-90.2-143.2h4.7v-27.1l20.1-39.7h-4.8l-10.1,20.9c-2.1,4.9-4.7,9.5-7.1,14.4h-0.4
			c-2.6-4.9-4.8-9.5-7.1-14.4l-10.1-20.9h-4.9l20,39.7v27.1H-90.2z"/>
	</g>
	<g>
		<defs>
			<path id="SVGID_1_" d="M41.5,145.9H26.7V12.7h21.9c11.5,0,23.3,0.4,33,7.1c9.9,6.9,15,18.5,15,30.4c0,10.8-4.4,21.7-12.7,28.6
				c-9,7.4-20.5,8.8-31.6,8.8H41.5V145.9z M41.5,73.8h9.9c16.4,0,30.4-4.9,30.4-24c0-21.7-17.5-23.3-34.8-23.3h-5.5V73.8z
				 M130.7,145.9h-14.8V12.7h14.8V145.9z M216.2,38c-4.9-8.3-11.3-12.5-21.4-12.5c-10.6,0-22.2,7.2-22.2,18.9
				c0,10.4,10.2,15.9,18.5,19.1l9.5,3.7c18.9,7.4,33,17.8,33,40.1c0,24.2-18.7,41.5-42.6,41.5c-21.5,0-38.3-15.9-41.1-37.3l16.8-3.5
				c-0.2,14.7,11.5,25.2,25.8,25.2s24.5-12,24.5-26c0-14.3-11.5-20.5-23-25.3l-9.2-3.9c-15.2-6.5-29-15.2-29-33.7
				c0-21.5,19.1-34.4,39.2-34.4c14.8,0,27,7.2,34.3,20.1L216.2,38z M270.7,112.5l-15.2,33.4h-17.8L301.3,7.1l63.6,138.8H347
				l-15.2-33.4H270.7z M301.3,43.4l-23.7,53.9h47.3L301.3,43.4z"/>
		</defs>
		<clipPath id="SVGID_00000071549466577155482730000004070295698753794191_">
			<use xlink:href="#SVGID_1_"  style="overflow:visible;"/>
		</clipPath>
		<polygon style="clip-path:url(#SVGID_00000071549466577155482730000004070295698753794191_);fill:#DD3F53;" points="62.9,41.9 
			96.7,13.8 138,29.1 145.4,72.5 111.5,100.6 70.3,85.3 		"/>
		<polygon style="clip-path:url(#SVGID_00000071549466577155482730000004070295698753794191_);fill:#DD3F53;" points="-19.7,11.3 
			14.2,-16.7 55.5,-1.5 62.9,41.9 29,70 -12.3,54.7 		"/>
		<polygon style="clip-path:url(#SVGID_00000071549466577155482730000004070295698753794191_);fill:#3491AB;" points="55.5,-1.5 
			89.3,-29.6 130.6,-14.3 138,29.1 104.1,57.2 62.9,41.9 		"/>
		<polygon style="clip-path:url(#SVGID_00000071549466577155482730000004070295698753794191_);fill:#3491AB;" points="-14.2,103 
			19.7,74.9 60.9,90.2 68.3,133.6 34.5,161.7 -6.8,146.4 		"/>
		<polygon style="clip-path:url(#SVGID_00000071549466577155482730000004070295698753794191_);fill:#F3950B;" points="111.5,98.2 
			103.5,51 66.6,81.5 21.8,64.9 22.8,70.7 66.6,86.9 73.7,128.3 74.7,128.7 		"/>
		<polygon style="clip-path:url(#SVGID_00000071549466577155482730000004070295698753794191_);fill:#F3950B;" points="103.5,51 
			58.6,34.4 21.8,64.9 66.6,81.5 		"/>
		<polygon style="clip-path:url(#SVGID_00000071549466577155482730000004070295698753794191_);fill:#776E65;" points="253.3,-12.4 
			287.2,-40.5 328.4,-25.2 335.8,18.1 302,46.2 260.7,31 		"/>
		<polygon style="clip-path:url(#SVGID_00000071549466577155482730000004070295698753794191_);fill:#F3950B;" points="219.4,15.7 
			253.3,-12.4 294.6,2.9 302,46.3 268.1,74.4 226.8,59.1 		"/>
		<polygon style="clip-path:url(#SVGID_00000071549466577155482730000004070295698753794191_);fill:#F3950B;" points="185.6,43.8 
			219.4,15.7 260.7,31 268.1,74.3 234.2,102.4 193,87.1 		"/>
		<polygon style="clip-path:url(#SVGID_00000071549466577155482730000004070295698753794191_);fill:#DD3F53;" points="144.3,28.5 
			178.2,0.4 219.4,15.7 226.8,59.1 193,87.2 151.7,71.9 		"/>
		<polygon style="clip-path:url(#SVGID_00000071549466577155482730000004070295698753794191_);fill:#DD3F53;" points="163.5,163.8 
			129.7,192.1 88.4,177 80.8,133.7 114.6,105.4 155.9,120.5 		"/>
		<polygon style="clip-path:url(#SVGID_00000071549466577155482730000004070295698753794191_);fill:#776E65;" points="197.2,135.6 
			163.5,163.9 138.5,158.7 114.6,105.5 148.3,77.2 189.6,92.3 		"/>
		<polygon style="clip-path:url(#SVGID_00000071549466577155482730000004070295698753794191_);fill:#3491AB;" points="243.5,150.7 
			203.8,180 156.5,166 148.9,122.6 188.6,93.3 235.9,107.4 		"/>
		<polygon style="clip-path:url(#SVGID_00000071549466577155482730000004070295698753794191_);fill:#776E65;" points="318.7,138.8 
			285,167.1 243.7,152 236,108.7 269.7,80.4 311.1,95.4 		"/>
		<polygon style="clip-path:url(#SVGID_00000071549466577155482730000004070295698753794191_);fill:#DD3F53;" points="352.4,110.4 
			318.7,138.7 277.4,123.7 269.7,80.4 303.4,52.1 344.8,67.1 		"/>
		<polygon style="clip-path:url(#SVGID_00000071549466577155482730000004070295698753794191_);fill:#3491AB;" points="360.1,153.8 
			326.4,182.1 285,167 277.4,123.7 311.1,95.4 352.4,110.4 		"/>
		<polygon style="clip-path:url(#SVGID_00000071549466577155482730000004070295698753794191_);fill:#DD3F53;" points="401.5,168.8 
			367.8,197.1 326.4,182.1 318.7,138.8 352.4,110.5 393.8,125.5 		"/>
		<polygon style="clip-path:url(#SVGID_00000071549466577155482730000004070295698753794191_);fill:#3491AB;" points="291.6,182.1 
			257.9,210.4 216.5,195.4 208.9,152 242.6,123.7 283.9,138.8 		"/>
		<polygon style="clip-path:url(#SVGID_00000071549466577155482730000004070295698753794191_);fill:#F3950B;" points="386.1,82.2 
			352.4,110.5 311.1,95.4 303.4,52.1 337.1,23.8 378.5,38.8 		"/>
	</g>
</g>
</svg>
