<?xml version="1.0" encoding="utf-8"?>
<!-- Generator: Adobe Illustrator 25.4.1, SVG Export Plug-In . SVG Version: 6.00 Build 0)  -->
<svg version="1.1" id="Capa_1" xmlns="http://www.w3.org/2000/svg" xmlns:xlink="http://www.w3.org/1999/xlink" x="0px" y="0px"
	 viewBox="0 0 474.5 56.8" style="enable-background:new 0 0 474.5 56.8;" xml:space="preserve">
<style type="text/css">
	.st0{fill:#1B9DD9;}
	.st1{fill:#FFCC07;}
	.st2{fill:#FFFFFF;}
	.st3{fill:#134392;}
	.st4{enable-background:new    ;}
</style>
<path class="st0" d="M36.1,29.3h-8.6v12c-4.6-0.1-8.4-5.4-8.4-11.9v0h8.4V17.4h0.1C32.3,17.4,36.1,22.8,36.1,29.3 M36.4,29.4
	c0-3.2-0.9-6.3-2.6-8.6s-3.9-3.6-6.2-3.6s-4.6,1.3-6.2,3.6c-1.7,2.3-2.6,5.3-2.6,8.6s0.9,6.3,2.6,8.6c1.7,2.3,3.9,3.6,6.2,3.6
	s4.6-1.3,6.2-3.6C35.5,35.7,36.4,32.6,36.4,29.4"/>
<path class="st1" d="M35.8,12.9c-1.9-1-1.9,0.8-4.5,0.8l2.6-3.7l-3.9,2.7c1.2-3-0.5-3.1,1-4.7C29,8.7,30,9.8,28.6,11.4
	c-0.1,0.1-0.1,0.2-0.2,0.3l-0.1,0.1l-0.8-4.4L26.7,12c-1.2-3-2.5-1.8-2.6-4c-1,1.9,0.8,1.9,0.8,4.5L21.2,10l2.7,3.9
	c-3-1.3-3.1,0.5-4.6-1c0.6,1.8,1.6,1.1,3.1,2.1l0.2,0.1c0.1,0.1,0.3,0.3,0.4,0.4l-4.4,0.8l4.7,0.8c-3,1.2-1.8,2.5-4,2.6
	c1.7,0.9,1.9-0.4,3.8-0.7c1.4-1.2,2.9-1.8,4.6-1.8c1.6,0,3.3,0.7,4.6,1.9c1.9,0.4,2.2-0.6,3.5,0.6c-0.6-1.9-1.7-1-3.3-2.2
	c-0.1-0.1-0.1-0.1-0.2-0.2l-0.1,0L32,17.1l4.4-0.8l-4.7-0.8C34.8,14.2,33.6,12.9,35.8,12.9"/>
<path class="st2" d="M27.4,41.4L27.4,41.4l0.1-12.1H19v0.1C19,36,22.8,41.4,27.4,41.4 M36.3,29.3c0-6.6-3.9-12.1-8.7-12.1
	c0,0,0,0-0.1,0v12L36.3,29.3L36.3,29.3z"/>
<path class="st3" d="M18.1,29.4L18.1,29.4L18.1,29.4"/>
<path class="st3" d="M18.2,29.3C18.2,29.4,18.1,29.4,18.2,29.3L18.2,29.3C18.1,29.4,18.1,29.3,18.2,29.3"/>
<polygon class="st3" points="18.1,27.5 18.1,27.5 18.1,27.4 "/>
<path class="st2" d="M21.3,23.7l-1,3.4c0,0,0,0.1,0,0.1c1.2,1.3,2.3,0.1,2.4,0c0-0.1,0-0.1,0-0.1l-1-3.4h-0.1l0.9,3.4h-0.9l0-3.4
	h-0.1l0,3.4h-1l0.9-3.4H21.3z"/>
<path class="st2" d="M23.7,21.4c-0.1,0-0.2-0.1-0.2-0.2s0.1-0.2,0.2-0.2s0.2,0.1,0.2,0.2C23.9,21.3,23.8,21.4,23.7,21.4"/>
<path class="st2" d="M24,23.7h2.3v-0.4h-0.6c-0.6,0.4-1.4,0.1-1.7,0l0,0h0c0-0.1-0.1-1.6-0.1-1.6h-0.1c0.2,0,0.4-0.2,0.4-0.4
	c0-0.2-0.2-0.4-0.4-0.4c-0.2,0-0.4,0.2-0.4,0.4c0,0.2,0.2,0.3,0.4,0.4h-0.1c0,0,0,1.3-0.1,1.6c-1.2,0.3-1.3,0.2-1.8,0
	c-0.1,0-0.5,0-0.5,0v0.5h2.2v0.6l0.3,1l0.2-1L24,23.7z"/>
<path class="st2" d="M27.1,27.2c0-0.1,0-0.1,0-0.1l-0.9-3.4h-0.1l0.9,3.4H26L26,23.7h-0.1l0,3.4h-1l1-3.4h-0.1l-1,3.4
	c0,0,0,0.1,0,0.1C25.9,28.6,27.1,27.3,27.1,27.2"/>
<path class="st2" d="M34.5,32.5c-0.1-0.4-0.2-0.4-0.6-0.3c-0.3,0-0.4-0.1-0.7-0.1c-0.5,0-0.8,0.3-1.4,0.3c-1.3-0.1-1.3-0.4-1.5-0.4
	c-0.2,0-0.4,0.1-0.7,0.1h-0.1c0-0.1,0-0.2-0.1-0.3c-0.1-0.1-0.3-0.1-0.4,0c0.1,0.1,0.4,0.1,0.3,0.2c-0.1,0.2-0.5,0.2-0.6,0.1
	l-0.1-0.1c-0.1,0-0.2,0-0.3,0c-0.1,0-0.1,0.1-0.2,0.1c-0.3,0-0.3-0.3-0.3-0.6c-0.1,0.2-0.1,0.5,0,0.7l0.3,0.2L28,32.6l-0.2,0.1
	c0.1,0.1,0.3,0.1,0.4,0.1v0.3l-0.1,0.1c0,0.2,0,0.3,0.2,0.4c0.3,0,0.7,0.1,0.8,0.4c0.3,0.2,0.5,0.5,0.6,0.8c0.1,0,0.1,0.1,0.2,0.1
	l0,0c0.1,0.1,0.2,0.3,0.2,0.5l0,0.1L30,35.8c-0.1,0.1-0.1,0.1-0.1,0.2c0,0,0,0,0.1,0h0.1c0.1-0.1,0.2-0.2,0.2-0.3v-0.2v-0.2l0.1-0.1
	l0.1,0.1v0.1l0,0.2c-0.1,0.2-0.2,0.4-0.2,0.4c0.1,0,0.2,0,0.3,0l0.1-0.2c0.1-0.2,0.1-0.4,0-0.6l0.1-0.3l0-0.2c0.3,0,0.6-0.1,0.9-0.2
	c0.4-0.1,0.3-0.5,1.3-0.6l0,0c0.1,0.3,0.2,0.6,0.4,0.8l0.1,0.1v0.1c-0.1,0.2-0.2,0.4-0.3,0.6L33,35.8v0.1L32.9,36l0.1,0.1
	c0.1,0,0.2,0,0.4-0.1l0.1-0.1c0.1-0.2,0.2-0.4,0.2-0.6l0.1-0.2l0.1-0.2l0.1-0.1L34,35c0.2,0.3,0.1,0.6,0,0.8
	c-0.1,0.1-0.1,0.2-0.2,0.2l0.1,0.1H34c0.2-0.1,0.4-0.2,0.3-0.5c-0.1-0.2-0.1-0.4-0.1-0.5c0.1-0.2,0.1-0.4-0.1-0.5l0-0.2v-0.2l0-0.3
	v-0.3l0-0.4l0.1-0.2v-0.3l0-0.1l-0.1-0.2l-0.1-0.1l0.1-0.1C34.3,32.3,34.4,32.3,34.5,32.5c0,0.6-0.1,1.2-0.2,1.9l-0.1,0.2
	c0.1,0.2,0.2,0.3,0.1,0.5v0.1l0.1,0.2c0.1-0.3,0.2-0.6,0.1-0.9C34.4,33.9,34.6,33.2,34.5,32.5"/>
<path class="st0" d="M26.7,35.5c0-0.1-0.2-0.2-0.2-0.3c0.1,0,0.1,0.1,0.2,0c-0.4-0.3,0-0.9-0.1-1.3c0-0.1,0.1,0,0.1,0.1
	c0-0.1,0-0.3-0.1-0.4c0-0.1,0.1,0.1,0.1,0c-0.2-0.2-0.3-0.7-0.6-0.7c-0.1,0-0.2,0.1-0.4,0.1c-0.1,0-0.2-0.1-0.4-0.2
	c-0.3-0.2-0.6-0.2-0.9-0.2c-0.3,0.1-0.6,0.1-0.8,0.2c-0.4,0.1-0.7-0.1-1-0.3c-0.1-0.1-0.2-0.3-0.3-0.4c-0.3-0.4-1-1.1-1.7-0.7
	c-0.1-0.1-0.2-0.2-0.3-0.2c0,0.1,0,0.1,0,0.1c-0.1,0-0.1,0-0.2,0c0,0.1,0.2,0.1,0.2,0.3c0,0.1-0.1,0.2-0.1,0.3c0,0,0,0.1,0,0.1
	c0,0.4-0.2,0.7,0,1c0.4,0.2,0.4-0.4,0.6-0.6c0.1,0,0.1,0,0.2-0.1c0.3,0.4-0.1,1.3,0.3,1.7c-0.1,0.1-0.2,0.2-0.3,0.3
	c-0.1,0.1-0.3,0.2-0.3,0.3c0,0.1,0.1,0.3,0.1,0.5c0,0.2,0.1,0.3,0.1,0.4c0.2,0.1,0.2,0.3,0.5,0.3c0.1-0.1-0.1-0.3-0.1-0.4
	c-0.1,0-0.1,0-0.2,0.1c-0.1-0.2-0.3-0.4-0.2-0.6c0.1-0.3,0.5-0.1,0.7-0.3c0,0.2,0.2,0.4,0.2,0.6c0,0.1,0,0.1,0,0.2
	c0,0.2,0.2,0.4,0.2,0.7c0,0.1-0.1,0.2-0.1,0.3c-0.1,0.1-0.2,0.2-0.3,0.4c0.1,0.1,0.3,0.1,0.4,0c0.1-0.2,0-0.4,0.1-0.4
	c-0.2-0.5-0.1-1.1-0.1-1.7c0.5,0.1,1,0,1.4-0.3c0.1,0.3,0.6,0.4,0.5,0.7c0,0.1-0.4,0.4-0.4,0.6c-0.1,0.1-0.2,0.1-0.2,0.2
	c-0.1,0.2-0.1,0.4-0.1,0.6c0.2,0.1,0.4,0,0.4-0.2c0-0.1-0.1-0.1-0.1-0.2c0-0.1,0.1-0.1,0.1-0.1c0-0.4,0.6-0.4,0.7-0.7
	c0.1-0.2-0.1-0.3-0.1-0.6c0.3,0.1,0.4,0.4,0.8,0.5c0.3,0.3,0.4,0.8,0.4,1.2c0,0.1-0.2,0.3-0.3,0.5c0.1,0.1,0.3,0.1,0.4,0.1
	c0.1-0.2,0-0.4,0.1-0.6c-0.2-0.4-0.1-0.8-0.2-1.2c0-0.1-0.2-0.1-0.2-0.2c-0.4-0.5,0.1-1,0-1.6c0.1,0,0.2,0.1,0.2,0.3
	c0,0,0-0.1,0-0.1c0.1,0.2,0.1,0.4,0,0.6c0,0,0.1-0.1,0.1-0.1c0,0.1,0,0.3-0.1,0.4c0,0.1,0.1-0.1,0.1-0.1c-0.1,0.2-0.1,0.4-0.1,0.6
	c0,0,0-0.1,0-0.1c0.1,0.3,0.2,0.6,0.4,0.8c0,0-0.1-0.1-0.1-0.1C26.4,35.4,26.6,35.5,26.7,35.5 M32,23.5c0-0.1,0.1-0.1,0.1-0.1
	c0-0.1-0.1-0.1-0.1-0.1c-0.1,0-0.1,0.1-0.1,0.1c0,0,0,0.1,0.1,0.1H32z M31.6,23.7h0.5c0,0,0-0.1,0-0.1c0-0.1,0-0.1-0.1-0.1h-0.4
	C31.6,23.5,31.6,23.5,31.6,23.7C31.6,23.6,31.6,23.6,31.6,23.7 M32,24.3h-0.3v-0.2c0-0.1,0.1-0.1,0.1-0.2c0.1,0,0.1,0.1,0.1,0.2
	L32,24.3L32,24.3z M35.5,26.8c0.2,0,0.4,0.1,0.7,0.1l-0.1-0.3c-0.2-0.1-0.4-0.1-0.6-0.1s-0.4,0.1-0.6,0.1c-0.5-0.5-1.9-1.9-2.1-2.1
	c-0.1-0.1-0.2-0.2-0.4-0.2h-0.1v-0.5h0.1v-0.3h-0.3v0.1h-0.1c0,0.1,0,0.1-0.1,0.1h-0.4c0,0,0,0-0.1-0.1h-0.2v-0.1h-0.3v0.3h0.2v0.5
	h0c-0.1,0-0.3,0.1-0.4,0.2l-2.1,2.1c-0.1-0.1-0.3-0.1-0.5-0.1c-0.3,0-0.6,0.2-0.9,0.2V27c0.3,0,0.6-0.2,0.9-0.2S29,27,29.3,27
	s0.6-0.2,0.9-0.2S30.7,27,31,27s0.6-0.2,0.9-0.2c0.3,0,0.6,0.2,0.9,0.2c0.3,0,0.6-0.2,0.9-0.2c0.3,0,0.6,0.2,0.9,0.2
	C34.8,27,35.1,26.8,35.5,26.8 M35.4,27.3c0.3,0,0.5,0.1,0.8,0.2l-0.1-0.3c-0.2-0.1-0.5-0.1-0.7-0.1c-0.3,0-0.6,0.2-0.9,0.2
	c-0.3,0-0.6-0.2-0.9-0.2c-0.3,0-0.6,0.2-0.9,0.2c-0.3,0-0.6-0.2-0.9-0.2s-0.6,0.2-0.9,0.2s-0.6-0.2-0.9-0.2s-0.6,0.2-0.9,0.2
	s-0.6-0.2-0.9-0.2c-0.3,0-0.6,0.2-0.9,0.2v0.3c0.3,0,0.6-0.2,0.9-0.2c0.3,0,0.6,0.2,0.9,0.2s0.6-0.2,0.9-0.2s0.6,0.2,0.9,0.2
	s0.6-0.2,0.9-0.2s0.6,0.2,0.9,0.2c0.3,0,0.6-0.2,0.9-0.2c0.3,0,0.6,0.2,0.9,0.2C34.9,27.5,35.1,27.3,35.4,27.3 M35.4,27.9
	c0.3,0,0.6,0.1,0.8,0.2c0-0.1,0-0.2,0-0.3c-0.3-0.1-0.5-0.1-0.8-0.2c-0.3,0-0.6,0.2-0.9,0.2c-0.3,0-0.6-0.2-0.9-0.2
	c-0.3,0-0.6,0.2-0.9,0.2c-0.3,0-0.6-0.2-0.9-0.2c-0.3,0-0.6,0.2-0.9,0.2s-0.6-0.2-0.9-0.2s-0.6,0.2-0.9,0.2s-0.6-0.2-0.9-0.2
	s-0.6,0.2-0.9,0.2V28c0.3,0,0.6-0.2,0.9-0.2S29,28,29.3,28s0.6-0.2,0.9-0.2s0.6,0.2,0.9,0.2s0.6-0.2,0.9-0.2c0.3,0,0.6,0.2,0.9,0.2
	c0.3,0,0.6-0.2,0.9-0.2c0.3,0,0.6,0.2,0.9,0.2C34.9,28,35.1,27.9,35.4,27.9 M35.4,28.4c0.3,0,0.6,0.2,0.9,0.2c0-0.1,0-0.2,0-0.3
	c-0.3,0-0.6-0.2-0.8-0.2c-0.3,0-0.6,0.2-0.9,0.2c-0.3,0-0.6-0.2-0.9-0.2c-0.3,0-0.6,0.2-0.9,0.2c-0.3,0-0.6-0.2-0.9-0.2
	s-0.6,0.2-0.9,0.2s-0.6-0.2-0.9-0.2s-0.6,0.2-0.9,0.2s-0.6-0.2-0.9-0.2c-0.3,0-0.6,0.2-0.9,0.2v0.3c0.3,0,0.6-0.2,0.9-0.2
	c0.3,0,0.6,0.2,0.9,0.2s0.6-0.2,0.9-0.2s0.6,0.2,0.9,0.2s0.6-0.2,0.9-0.2s0.6,0.2,0.9,0.2c0.3,0,0.6-0.2,0.9-0.2
	c0.3,0,0.6,0.2,0.9,0.2C34.9,28.6,35.1,28.4,35.4,28.4 M36.3,29.1c0-0.1,0-0.2,0-0.3c-0.3,0-0.6-0.2-0.9-0.2c-0.3,0-0.6,0.2-0.9,0.2
	c-0.3,0-0.6-0.2-0.9-0.2c-0.3,0-0.6,0.2-0.9,0.2c-0.3,0-0.6-0.2-0.9-0.2s-0.6,0.2-0.9,0.2s-0.6-0.2-0.9-0.2s-0.6,0.2-0.9,0.2
	s-0.6-0.2-0.9-0.2c-0.3,0-0.6,0.2-0.9,0.2v0.3c0.3,0,0.6-0.2,0.9-0.2c0.3,0,0.6,0.2,0.9,0.2s0.6-0.2,0.9-0.2s0.6,0.2,0.9,0.2
	s0.6-0.2,0.9-0.2s0.6,0.2,0.9,0.2c0.3,0,0.6-0.2,0.9-0.2c0.3,0,0.6,0.2,0.9,0.2c0.3,0,0.6-0.2,0.9-0.2C35.7,28.9,36,29.1,36.3,29.1"
	/>
<path class="st2" d="M14.2,27.3L14.2,27.3L14.2,27.3l0.1,0.1l0.1,0.1l0.1,0.1l0.1,0.1v0.1l0,0.1c0-0.1,0-0.1,0.1-0.2l-0.1-0.2
	l-0.1-0.1l-0.2-0.1l-0.1-0.1l0,0l0,0v-0.1c0-0.3-0.2-0.5-0.4-0.5c-0.3,0-0.5,0.3-0.4,0.5c0,0.2,0.2,0.4,0.4,0.4
	C14,27.6,14.2,27.5,14.2,27.3 M16.7,22.7l-0.4-0.6l-0.1-0.3l-0.1-0.1v-0.7l0-0.2l0-0.3L15.9,21l-0.1,0.2l-0.1,0.3l-0.1,0.1l-0.1,0.1
	l-0.1,0.2L15.4,22l0,0.1l-0.1,0.1l0,0.2l-0.1,0.1l0,0.1L15.1,23l0,0.2l0,0.3l0.1,0.2L15,23.8L15,24l0.1,0.3v0.3l0.1,0.3l0.1,0.1
	l-0.1,0.1L15,25.3l0,0.3v0.1l0,0.2l-0.1,0.1l-0.1,0.1l0,0.1l0,0.1l0,0.1l0,0.1l0,0l0,0l-0.1-0.3l0.1-0.3v-0.2l0.1-0.3l0.1-0.2l0,0
	L15,25v-0.3l-0.1-0.4l-0.1-0.3l-0.1-0.4l-0.1-0.2l-0.1-0.1l-0.1-0.2l-0.2-0.4l-0.1-0.3l-0.2-0.4l0,0l-0.1-0.2l0-0.1l0,0l0-0.1V22
	l0,0.4l-0.1,0.1l0,0.1l-0.1,0.1v0.1l0.1,0.1v0.1v0.1l0,0.1v0.4l0,0.1l0,0.1V24l0,0.1l0,0.1l-0.1,0.3l0.1,0.1v0.1l0.1,0.1V25l0,0.1
	l0.2,0.2l0,0.1l0.1,0.3l0.2,0.2l0.2,0.2l0.2,0.1l0.1,0.2l0.1,0.2v0.5l0.1,0.2l0.1,0.1h0l0.1-0.1v-0.1v-0.1v-0.3l0.1-0.2l0.2-0.3
	l0.1-0.1l0.5,0l0.3-0.1l0.3-0.1l0.3-0.1l0.3-0.1l0.2-0.1l0.4-0.3l0.5-0.3l0.4-0.4l0.2-0.3l0.2-0.3l0.3-0.4l0.1-0.2l0.2-0.3l-0.4,0.1
	H19l-0.3,0h-0.3l-0.2,0L18,23.6h-0.2l-0.3,0.1l-0.4,0.1L17,23.9l-0.1,0l-0.2,0.2l-0.2,0c-0.1,0.1-0.1,0.1-0.2,0.2
	c-0.1,0-0.1,0.1-0.1,0.1l-0.1,0.1L16,24.7v0.1L16,24.9l-0.1,0l-0.1,0.2l-0.1,0.1l-0.1,0l-0.1,0.2l0,0.2l-0.1,0.2v0.1l-0.2,0.3
	l0.1-0.4l0.1-0.2l0.1-0.2l0.1-0.3l0.2-0.3l0.2-0.2l0.2-0.3l0.1-0.2l0.2-0.2l0-0.3l0.1-0.4L16.4,23l0,0.1l0.1-0.1L16.7,22.7
	L16.7,22.7L16.7,22.7c0.1,0.3,0.4,0.4,0.6,0.4c0.2-0.1,0.3-0.2,0.3-0.4c0-0.3-0.2-0.4-0.5-0.4C16.9,22.3,16.8,22.5,16.7,22.7
	C16.8,22.7,16.8,22.7,16.7,22.7l-0.2,0.1l-0.1,0.1l0.1-0.5L16.7,22.7z M21.3,22l0.1,0l-0.2-0.1l-0.1-0.1l0-0.1l-0.1,0v0L20.5,21
	l-0.1-0.1l-0.1-0.1l-0.2-0.1l-0.1-0.1H20h-0.1l-0.1-0.1l-0.1-0.1l-0.1,0l-0.2,0l-0.3,0h-0.3l-0.4,0l-0.2,0.1l-0.3,0.1l-0.2,0.1
	l-0.1,0.1L17.5,21l-0.1,0.1l-0.3,0.3l-0.2,0.2l0.1-0.2l0.2-0.3l0.1-0.1l0.4-0.4l0.3-0.3l0.4-0.2l0.1-0.1l0.2-0.1l0.1-0.1H19l0.5-0.6
	l0.4-0.5l0.4-0.6l0.2-0.5l0.3-0.3l-0.3,0.1l-0.3,0.1l0,0.1L20,17.6l-0.1,0l-0.3,0.1l-0.3,0.1l0,0.1h-0.1l-0.2,0.1l-0.1,0.1l-0.1,0
	v0.1l-0.2,0.1l0,0.1l-0.2,0.1v0.2l-0.1,0.1L18,19l-0.1,0.2l0,0.1v0.1l-0.1,0.1l0,0.1l0,0.1l-0.1,0.1v0.2l-0.1,0.4l-0.2,0.3h-0.2
	l-0.1,0.1l0,0.1l0-0.1l0.1-0.1l0.1-0.2l0-0.2l0-0.1l0-0.2v-0.5l0.1-0.3l0-0.4l-0.1-0.1v-0.1l-0.1-0.1l-0.1-0.2v-0.1L17,18.1L16.9,18
	l-0.1-0.1L16.7,18l-0.2,0.1l0,0.1l-0.1,0.1l-0.1,0.1l0,0.2l-0.1,0.2v0.3l0,0.1l0,0.3l0,0.4l0.1,0.2v0.2l0.2,0.2l0.2,0.6l-0.1,0.1
	l-0.1,0.2l-0.1,0.1l-0.1,0.1L16.4,22l-0.1,0.1v0.1l0.1,0.1l0.1-0.1l0.2-0.2v-0.1l0.1-0.1l0.2,0l0.2,0l0.2-0.1l0.2,0.1l0.2,0.1h0.3
	l0.1,0.1l0.2,0h0.2l0.2,0.1h0.2h0.5l0.1-0.1H20l0.2-0.1l0.2-0.1l0.2-0.1l0.2-0.1L21.3,22z M18.1,29.4L18.1,29.4
	C18.1,29.3,18.2,29.3,18.1,29.4L18.1,29.4 M32,46.7L32,46.7L32,46.7L32,46.7z M40.5,26.4L40.5,26.4l0,0.2l0,0L40.5,26.4l0-0.2
	L40.3,26l-0.1-0.2l0-0.2v-0.3l0.1-0.1c0.1,0.1,0.2,0.1,0.3,0.1c-0.1,0.3,0,0.7-0.1,1L40.5,26.4z M40.2,25.1l-0.1,0.2v-0.4
	c0,0,0,0,0-0.1C40.1,24.9,40.1,25,40.2,25.1L40.2,25.1 M40.4,26.6L40.4,26.6L40.4,26.6L40.4,26.6z M38.1,20L38,20.7v0
	c0-0.2,0-0.4,0-0.5C38.1,20.1,38.1,20.1,38.1,20 M40.6,32.6L40.6,32.6L40.6,32.6L40.6,32.6z M40.3,34.7l0.1-0.1l0.1-0.1
	c0,0,0,0,0,0.1c0.2,0.1,0.4,0.2,0.6,0.1c-0.4,0.4-0.8,0.9-1.2,1.3s-0.8,1.2-0.8,1.2l0.3-0.6l0.1-0.1l0.1-0.2l0.1-0.2l0.1-0.2
	l0.1-0.2l0.1-0.1l0.1-0.1l0.1-0.1l0-0.1l0-0.1l0-0.2v-0.1l0.1-0.1L40.3,34.7z M38,38.8L38,38.8L38,38.8z M38.2,38.2L38,38.7v0l0-0.3
	L38.2,38.2l0-0.2C38.2,38,38.2,38.2,38.2,38.2z M37.9,38.3l-0.1,0.4l-0.1,0.1l0-0.5l0-0.4l0-0.4l0-0.2L37.5,37l0,0l0.2,0.5l0.1,0.3
	l0.1,0.2L37.9,38.3z M37.7,39.2L37.7,39.2L37.7,39.2L37.7,39.2z M37,38.9L37,38.9L37,38.9z M34.4,42.3l-0.1,0.3l-0.2,0.3l-0.2,0.2
	l-0.1,0.1l-0.1,0.1l0.1-0.1l0.1-0.2l0.1-0.2l0.2-0.2L34.4,42.3z M33.8,41.9v0.2l0,0.4v0.3L33.7,43l-0.1,0.3l-0.1,0l-0.4,0.2
	l-0.6,0.3l0,0l0,0l-0.7,0.4l0,0l-0.2,0.1l0.2-0.1l0,0l-0.1,0.1l0,0l0.7-0.4l0.1-0.2l0.1-0.1l0.2-0.3l0.3-0.5l0.3-0.4l0.2-0.4
	L33.8,41.9z M31.8,43.9l0,0.3l0,0.1l0-0.1v0h0l-0.2,0.1l0,0.1v0v0l0-0.2l0.1-0.2l0.1-0.2l0.1-0.1L31.8,43.9z M31.3,44.4L31.3,44.4z
	 M31.6,44.7L31.6,44.7l0.2-0.1H32l0.2-0.1l0.1-0.1l0.2,0h0.3c0,0.1,0,0.3,0.1,0.4c-0.5-0.1-0.8-0.1-1.1-0.1H31.6z M32.9,43.9
	L32.9,43.9L32.9,43.9z M32.7,44.4L32.7,44.4l-0.4-0.1l0.2-0.1l0.2-0.1L33,44l0-0.1l0,0.1l0.1,0.1l0.1,0.1
	C33,44.2,32.9,44.2,32.7,44.4L32.7,44.4z M33.4,43.5L33.4,43.5L33.4,43.5z M29.8,43.9c-0.3,0.3-0.7,0.6-1,0.8l-0.1,0.1l-0.1,0.1
	l-0.1,0.1l0.2-0.4l0.3-0.5l0.2-0.4l0.2-0.3l0.3-0.2L30,43l-0.3,0.1l0,0C29.9,43.4,29.9,43.6,29.8,43.9
	C29.8,43.8,29.8,43.9,29.8,43.9 M30,43.1l0.3-0.1l0.3,0l0.1,0.1l0.1,0.1l0.1,0.2l0,0.3l-0.1,0.3l-0.1,0.2l-0.2,0.3l-0.2,0.2
	l-0.1,0.1L30,44.8l0,0l0,0l0.2-0.2l0.1-0.1l0.2-0.2l0.2-0.3l0.1-0.2l0.1-0.3l0-0.3l-0.1-0.2L30.7,43l-0.1-0.1l-0.3,0L30,43.1z
	 M26.8,44.9L26.8,44.9c-0.6-0.6-1-0.8-1.1-1.6c0.4,0.4,0.8,0.9,1.1,1.4L26.8,44.9z M20.5,42.1L20.3,42l-0.2-0.1l0.2,0.1L20.5,42.1z
	 M20.1,41.4L20,41.3l-0.2-0.2L19.6,41l-0.3-0.3l-0.1-0.2v-0.1l0-0.3l0,0l0,0c0.1,0,0.1,0.1,0.2,0.1c0.1,0,0.2-0.1,0.3-0.1V40
	l0.1,0.3l0.1,0.4v0.1l0.1,0.2l0.1,0.2L20.1,41.4z M19.7,39.8L19.7,39.8L19.7,39.8z M18.6,39.7L18.6,39.7l-0.2-0.1l-0.2-0.3l-0.1-0.1
	v0v0l0.1-0.2l0.1-0.3l0.1-0.1l-0.1-0.1l0,0l0.1,0.1V39l0.1,0.2l0.1,0.2V39.7z M18.3,38.2l-0.1-0.1l0,0L18.3,38.2z M18,39.1L18,39.1
	l-0.3-0.3l-0.4-0.5L17.2,38l0-0.1l0.1-0.2l0.1-0.3v0.1l0.1,0.2l0.1,0.1v0.1l0.1,0.1l0.1,0.3l0.1,0.3L18,39.1L18,39.1z M15.2,32.4
	l-0.1,0.2l0-0.1l0,0v0L15,32.2v0l0.1-0.3l0.2-0.4l0.1-0.2l0.3-0.3l-0.2,0.2l-0.1,0.2l-0.1,0.1l0,0.2l-0.1,0.1v0.4L15.2,32.4z
	 M15,31.2v0.2v0.2L14.8,32v0l-0.1-0.2l0.1-0.3L15,31.2L15,31.2z M14.7,32.7l0,0.1l-0.2-0.3l-0.2-0.2L14.3,32l-0.1-0.3l-0.2-0.3
	l-0.1-0.2l0.2,0.1l0,0l0.3,0.3l0.2,0.4l0.1,0.1l0,0.1l0.1,0.2L14.7,32.7z M14.5,31.2l-0.1,0.4v-0.1l0-0.2v-0.4L14.5,31.2L14.5,31.2
	L14.5,31.2z M18.6,41.1L18.6,41.1z M25.8,48.7l-0.1,0.1l-0.2,0.1l0.2-0.1L25.8,48.7z M24.6,48.5L24.6,48.5z M23.7,46.5L23.7,46.5
	L23.7,46.5C23.7,46.6,23.7,46.5,23.7,46.5 M28.5,46.4L28.5,46.4l0.9,0.3l0.4,0.1l0,0.1c-0.1,0.3-0.4,0.7-0.4,0.7
	c0,0.1,0,0.2-0.1,0.2l-0.1,0l0-0.1C29,47.4,28.7,46.9,28.5,46.4 M38.1,41.1l0.4,0l0,0L38.1,41.1z M41.1,32L41.1,32L41.1,32L41.1,32z
	 M41.1,30.9l0-0.2v-0.1l0-0.2l0.1-0.2l0.1-0.3l0.1-0.3l0.1-0.4l0.1-0.4l0.1-0.4l0.1-0.5l0.1-0.5l0.1-0.4v-0.3l0.1-0.5l0-0.4
	l-0.4,0.6l-0.2,0.4l-0.2,0.4l-0.2,0.4l-0.1,0.2L41.1,28v0.2l0-0.4l-0.2-0.4l0.1,0.1l0-0.2L41,27l0.1-0.2l-0.1,0L41,26.9l-0.1,0.2
	l-0.1,0.2l0.1,0.2l-0.2-0.4l-0.2-0.3l0-0.1l0,0v-0.1l0.2-0.4c0.9-1.5,1.5-2.6,1.3-4.4c-0.3,0.8-0.8,1.5-1.1,2.2
	c-0.2,0-0.4,0-0.6,0.1c-0.1,0.1-0.2,0.2-0.2,0.3c0.1-0.6,0.2-1.2,0.3-1.8c0.1-1-0.1-2-0.4-3l0,0l0-0.1c-0.2,1-0.6,2.7-0.5,3l0.1,0.2
	v0l-0.1-0.1c-0.4-1-1-1.9-1.4-2.8c0,0,0-0.1,0.1-0.1c0.5-1,0.6-1.6,0.5-2.7l-0.1-0.9c-0.3,0.8-0.7,1.6-0.7,2.5c0,0.5,0.1,0.9,0,1.4
	c0-0.5-0.1-1-0.2-1.5c-0.2-0.8-0.8-1.3-1.4-1.9c0.1,0.5,0.3,1,0.5,1.5c0.3,0.6,0.6,1,0.8,1.5c0.1,0.2,0.1,0.4,0.2,0.6
	c-0.4-0.6-0.8-1.4-1.5-1.8c-0.4-0.2-0.9-0.4-1.3-0.6c0.3,0.4,0.6,0.7,0.8,1.1c0.5,0.5,1,0.5,1.1,0.6c0.3,0.2,0.5,0.4,0.8,0.6
	c0,0.2,0.1,0.4,0.2,0.6L38,21v0.1v0.2l-0.2-0.2c0.1-0.4-0.1-0.7-0.5-0.8c-0.2-0.1-0.4,0-0.5,0.1l-0.1,0.1c-0.1,0.4,0.1,0.7,0.5,0.8
	c0.2,0,0.4,0,0.5-0.1l0,0l0.3,0.3l0.1,0.2l0.2,0.6l0,0.2L38,22.3L37.5,22l-0.4-0.2l-0.6-0.5l0.5,0.8l0.5,0.7l0.1,0.1l-0.2-0.1
	l-0.9-0.3l-1-0.3c1,1.1,2.3,1.9,3.7,2.3c0.1,0.1,0.2,0.1,0.3,0.2l0.4,0.3l0.1,0l0-0.1l0,0h-0.1l-0.1-0.1l-0.1-0.2l-0.1-0.1l-0.1-0.1
	l0.2,0.1l0,0l0.1,0.2l0.1,0.3l0,0.1l0.1,0.4l-0.2-0.1l-0.3-0.1h0.1c-0.1-0.2-0.3-0.4-0.6-0.4c-0.3,0-0.6,0.2-0.6,0.4
	c0.1,0.3,0.3,0.5,0.6,0.5c0.3,0,0.5-0.2,0.6-0.4l0.1,0l0.2,0.1l0.2,0.2l0.2,0.4l0,0.2v0.1l-0.1-0.1L40,26l-0.1-0.3L39.8,26l0,0.2
	l0,0.4l0.1,0.3l0.1,0.4l0.1,0.4l0.1,0.4l-0.1-0.4l-0.2-0.3c-0.3-0.5-0.8-0.9-1.1-1.3c0.2,0.8,0.4,1.5,0.7,2.3l0.1,0.2l0,0
	c-0.5-0.6-1-1.1-1.5-1.6c0.2,0.8,0.6,1.6,1.1,2.3l0.2,0.4l0,0l0,0l-0.3-0.1l-0.5-0.3l-0.7-0.4l-0.5-0.2l0.2,0.4l0.2,0.3l0.2,0.3
	l0.3,0.3l0.2,0.2l0.4,0.1l0.4,0.2l0.4,0.1l0.1,0.1l0.8,0.6l0,0l0.1,0.4l0,0l0,0l-0.1,0.2v0.1v0.4l-0.1,0.3l0,0h0l0-0.1l-0.1-0.2
	L40.2,32l-0.1-0.2L40,31.6l-0.2-0.3l-0.2-0.2L39.5,31l-0.2-0.2l-0.2-0.2l-0.3-0.1l-0.2-0.1L38.3,30l-0.2-0.1l-0.2-0.2l-0.2-0.1
	l-0.3-0.3l0,0.1l0.1,0.2l0.1,0.2l0.1,0.2l0.2,0.5l0.1,0.3l0.2,0.3l0.2,0.2l0.2,0.2l0.2,0.3l0.2,0.3l0.2,0.2l0.2,0.2l0.2,0.3l0.2,0.2
	l0.2,0.2v0.2l0,0.3l0,0.2l0,0l0,0l-0.1-0.2L40,33.5l-0.1-0.3l-0.2-0.3l-0.2-0.3l-0.2-0.3l-0.2-0.2l-0.1-0.1l-0.2-0.2l-0.3-0.2
	l-0.2-0.1l-0.3-0.1l-0.2-0.1l-0.2-0.1L37.3,31l-0.1-0.1l0.1,0.2l0.1,0.2l0.2,0.4l0.2,0.3l0.2,0.3l0.2,0.3l0.3,0.3l0.2,0.2l0.3,0.2
	l0.3,0.2l0.1,0.1l0.3,0.2l0.1,0.1l0.1,0.4l0.1-0.2l-0.1,0.3L40,34.3l-0.1,0.3l-0.1-0.1l-0.1-0.1l-0.1-0.1V34l0,0v0.1
	c0.1-0.2,0-0.4-0.2-0.6c-0.2-0.2-0.5-0.3-0.7-0.1c-0.1,0.2-0.1,0.6,0.1,0.7c0.2,0.2,0.5,0.3,0.7,0.1l0,0l0,0l0,0l0.1,0.1l0.1,0.2
	l0.1,0.2l0,0.3l-0.1,0.1l-0.1,0.1l0,0.3l-0.1,0.2l-0.2,0.5l-0.4,0.7L38.9,37l0.1-0.4l0.1-0.4v-0.8l0-0.4l-0.1-0.4l-0.1-0.4l-0.1-0.4
	l-0.1-0.3v0.4l0,0.4l-0.1,0.5l-0.1,0.5l-0.1,0.4l-0.1,0.3l-0.1-0.2l-0.1-0.3l-0.2-0.5l-0.2-0.6l-0.2-0.6l-0.1-0.5l0,1l0,0.8v0.7
	l0,0.6l0-0.2l-0.1-0.1c-0.4-0.6-0.7-1.3-1-1.9l0,0.3c0,0.8,0.1,1.5,0.2,2.2c0.1,0.6,0.5,1.2,1,1.7l0.1,0.3v0.2l0,0.3l-0.2,0.1
	l-0.1,0.1l-0.1,0.2l0-0.3l-0.1-0.1L37.1,39v0c0.1-0.2,0.1-0.5-0.1-0.7c-0.2-0.3-0.6-0.4-0.8-0.3c-0.2,0.1-0.2,0.5,0,0.8
	c0.2,0.3,0.6,0.4,0.8,0.2l0,0L37,39l0-0.1l0,0.1l0.1,0.1l0.1,0.2l0,0.2l-0.1,0.2L37,40L36.9,40l0,0.1l0.1-0.2l0.1-0.3l0-0.3
	c-0.3,0.5-0.7,1-1.1,1.5L35.7,41l-0.1-0.1c0.3-1,0.2-1.9,0.3-2.9c-0.4,0.6-0.7,1.3-1,2l-0.1,0.3l0,0l0,0l0-0.3c0-0.6,0-1.1,0-1.6V38
	l-0.1,0.4c-0.3,0.7-0.7,1.3-0.9,2.1v0.2L33.6,41l-0.4,0.4L33,41.8l0,0.1v-0.3c0.1-0.7,0.2-1.5,0.2-2.2c-0.4,0.9-0.9,1.7-1.1,2.6
	l0,0.3l-0.1,0.5l0,0.4v0v0v-0.2v-0.1v-0.2c-0.1-0.8-0.5-1.4-0.6-2.5c-0.2,0.7-0.3,1.5-0.2,2.2c0.1,0.8,0.4,1.3,0.3,1.6l-0.1,0.5h0
	l-0.4,0.2l-0.5,0.2L30.2,45l-0.3,0.1l0.1,0l0.2-0.2c0.3-0.2,0.5-0.4,0.7-0.7c0.2-0.2,0.1-1.2-0.1-1.3c-0.3-0.2-0.5-0.4-0.7-0.7
	c-0.1-0.1-0.1-0.1-0.2-0.1s-1.1,0.3-1.5,0.4c-0.1,0-0.2,0.1-0.2,0.2c-0.1,0.7-0.3,1.3-0.5,1.9l-0.1,0.3v-0.3c0-0.6-0.2-1.3-0.7-1.8
	c-0.2-0.2-0.4-0.5-0.6-0.8c-0.2-0.3-0.3-0.5-0.7-0.5c-0.3,0-0.2,0-0.4,0.2c-0.2,0.2-0.5,0.3-0.8,0.4c-0.1,0-0.1,0.1-0.1,0.1
	c0,0.5,0,1.3,0,1.5c0.2,0.3,0.4,0.5,0.7,0.7l0.1,0.2l0,0l0,0h-0.1c-0.3-0.2-0.7-0.4-1.1-0.6v-0.2l0.1-0.3l0.1-0.3l0-0.2l0-0.2v-0.2
	v-0.5l0-0.3l0-0.2l0-0.2H24v-0.1l-0.1-0.3l-0.1-0.2L23.7,41l-0.1-0.3l-0.2,0l-0.1-0.3l-0.1-0.1L23,40.2l0-0.2l-0.2-0.2l-0.1-0.3
	l-0.2-0.3L22.1,39l0.1,0.4v0.3l0,0.3l0,0.2l0,0v0.6h0v-0.6l0,0l-0.1-0.1L22,39.9l-0.1-0.1l-0.1-0.1l-0.1-0.2v0l-0.1-0.1l-0.1-0.1
	l-0.1-0.2l-0.2-0.1l-0.1-0.2l-0.1,0L21,39.2v0.3l0,0.3l0,0.2l0.1,0.2l-0.1,0l0,0.2v0.5l0.1,0.3l0.1,0.3l0,0.2l0.1,0.3l0.1,0.1
	l0.2,0.6v0l-0.2-0.1l-0.2-0.1l-0.3-0.1l-0.1-0.1l-0.1,0L20.5,42l-0.2-0.3l-0.1-0.1l-0.1-0.1l0-0.2l0.1-0.2l0.2-0.4l0.1-0.3l0,0
	l0.1,0v-0.9l0.1-0.3l0-0.2l0,0L20.7,39v-0.2l-0.1-0.2l0-0.2l-0.1-0.3l-0.1-0.3l-0.1,0.1l0,0.2l-0.1,0.1L20,38.3L20,38.4v0.2l0,0.1
	l-0.1,0.1L19.8,39l-0.1,0.2l-0.1,0.1l-0.1,0.2v0.1c0-0.2-0.2-0.3-0.4-0.3c-0.2,0-0.4,0.1-0.4,0.4c0,0,0,0,0,0.1
	c0,0.1,0.1,0.2,0.1,0.3l-0.1,0.1l0,0.2v0.1H19l0,0l0,0l-0.1-0.1l-0.1-0.6l0-0.2l0.1-0.1l0.1-0.1l0.1-0.1l0.2-0.1v-0.2l0.1-0.2
	l0.1-0.1l0.1-0.2l0.1-0.1l0-0.1l0.1-0.1l0.1-0.2l0.1-0.2l0-0.1l0-0.1v-0.1l0-0.2v-0.6v-0.3l0-0.1l0-0.2l-0.1-0.2l-0.1-0.2v-0.1
	l-0.1-0.1l-0.1-0.4l-0.2,0.3l-0.1,0.2l-0.3,0.2l-0.1,0.1v0l0-0.1l-0.1-0.2L18.6,35l-0.1-0.5v-0.5l-0.3,0.4l-0.2,0.3l-0.1,0.1
	l-0.1,0.3l-0.1,0.3v0l0.1,0.2v0.7L17.5,37l0,0.4l0-0.4l0.1-0.4v-0.7l-0.1-0.2l-0.1-0.2v0l0-0.1L17.4,35l-0.1-0.2l-0.1-0.2l-0.1-0.1
	L17,34.1l-0.1-0.2l-0.2-0.3l0,0l-0.3-0.5l-0.1,0.3l-0.2,0.2V34l-0.1,0.3v0.2l0,0.3l0,0.2l0,0.4v0.3v0.4v0.2l0,0.2
	c0-0.1-0.1-0.2-0.1-0.3L15.7,35l0.1-0.4l-0.2-0.3l0-0.2l0,0V34l0-0.2l0.1-0.3l0-0.2l0.1,0c0,0,0.1,0,0.1,0c0.2,0,0.5-0.2,0.5-0.4
	c0-0.3-0.3-0.4-0.5-0.4c-0.2,0-0.4,0.2-0.4,0.4c0,0.1,0.1,0.3,0.2,0.3l0,0.1l-0.1,0.3l-0.1,0.2V34v0l-0.1-0.1l-0.1-0.3l-0.1-0.4
	l0-0.4l0,0l0.1-0.1l0.2-0.1l0.4-0.1l0.3-0.1l0.5-0.3l0.4-0.3l0,0l0.2-0.1l0.3-0.3l0.2-0.3l0.2-0.4l0.1-0.3l0-0.4
	c0-0.2,0.1-0.4,0.1-0.6l0,0l0,0v0l0-0.1l-0.1,0v0L18,29.3l-0.2,0.1l-0.2,0.1l-0.3,0.1l-0.2,0.1l0.1-0.2l0.3-0.6l0.2-0.6l0.1-0.5
	l0.2-0.4l0,0l0.1-0.1l0,0v0v0l0,0v0h-0.1l-0.4,0.2l-0.4,0.2l-0.1,0.3H17l-0.2,0.1h-0.1l-0.2,0.1l-0.1,0.1h-0.1L16,28.6l-0.1,0.1v0.1
	l-0.1,0l-0.1,0.1v0v-0.4l-0.1-0.4l0-0.3l-0.1-0.3l0.1-0.1l0.1-0.1h0.2c0.1,0.2,0.2,0.3,0.4,0.3c0.2,0,0.4-0.2,0.4-0.5
	c0-0.2-0.2-0.4-0.4-0.4s-0.4,0.2-0.4,0.4l0,0v0l-0.1,0l-0.1,0.1l-0.1,0.1l-0.2-0.6v0.1l-0.1-0.1L15,27.2l-0.1,0.1l-0.1,0.3
	c-0.1,0-0.1,0.3-0.1,0.3l-0.1,0l0,0.3h-0.1l-0.1,0.5l-0.1,0.4l0,0.1l-0.1,0.2l0,0.3L14,29.4l0,0.1l0.1,0.1v-0.1L14,29.5l-0.1-0.1
	l0-0.1l-0.2-0.4l-0.2-0.3l-0.3-0.3l-0.3-0.2l-0.2-0.2l-0.2-0.2l-0.1-0.2l0,0l0,0v0l-0.2-0.1l-0.1-0.1l-0.2,0l-0.4-0.4l0,0.2l0,0.3
	l0.1,0.4l0.2,0.3v0.1l0.1,0.1v0.2l0.1,0.2v0.1L12,29l0.1,0.1l0,0.1l0.1,0.2l0.1,0.2l0,0.1l-0.4-0.1l-0.2-0.1l-0.3-0.1L11,29.4h-0.1
	h-0.4l-0.2,0l-0.2-0.1l-0.2,0l0,0l-0.3-0.1l0,0.1l0.2,0.3l0.1,0.3V30l0.2,0.3l0.3,0.3l0.3,0.3l0.3,0.2l0.1,0.2l0.1,0l0.1,0.1
	l0.1,0.1l0.1,0l0.1,0.1l0.2,0.1l0.1,0.1l0.2,0.1l0.3,0.1l0.1,0.1l0.1,0.1l0.1,0.1l0.1,0.1l0.2,0.1h0.1l0.3,0.1l0.3,0l0.3,0.2
	l0.3,0.2l0.4,0.4v0.2l0.1,0.5l0,0L15,33.9l-0.1-0.1l0,0l0,0c0.1-0.1,0.1-0.1,0.1-0.2c0-0.2-0.2-0.4-0.5-0.4c-0.2,0-0.4,0.1-0.5,0.4
	c0,0.2,0.1,0.4,0.4,0.5c0,0,0.1,0,0.1,0c0.1,0,0.2,0,0.3-0.1l0.1,0.1L15,34l0.1,0.1l0,0v0.3l0.1,0.3l0.1,0.2l-0.1-0.1l-0.2-0.2
	l-0.2-0.1l-0.2-0.2l-0.2-0.1l0,0c0,0,0-0.1,0-0.1c0-0.3-0.2-0.4-0.5-0.4c-0.2,0-0.4,0.2-0.4,0.4c0,0.2,0.2,0.4,0.5,0.4
	c0,0,0,0,0.1,0c0.2,0,0.3-0.1,0.4-0.2l0.1,0l0.2,0.1l0.3,0.2l0.2,0.2l0.1,0.1l0,0v0l0.3,0.8l0.5,1.1l-0.4-0.4l-0.2-0.2l-0.1-0.1
	l-0.1-0.1L15.1,36l-0.2-0.2l-0.2,0l-0.2-0.2l-0.2,0l-0.2-0.2h-0.2l-0.4-0.2h-0.4l-0.3-0.1l-0.4-0.2l-0.4,0l-0.3-0.1l-0.4,0l0.1,0.1
	l0.2,0.2l0.1,0.2l0.1,0.1l0.1,0.1l0.2,0.2l0.1,0.2l0.1,0.1l0.1,0.1l0.1,0.1l0.1,0.1l0.1,0.2l0.2,0l0.2,0.2l0.1,0.1l0.2,0.1l0.2,0.2
	l0.3,0.1h0.1l0.2,0.2h0.4h0.4l0.2,0.1h0.3l0.3,0l0.3,0.1l0.2,0.1l0,0l0.1,0.1l0.3,0.4l0.3,0.3l0.2,0.3l0.2,0.1l0.2,0.3l0.2,0.2
	l0.1,0.1l0.2,0.2l0,0.1l0,0l-0.2-0.1L18,40l-0.1-0.2l-0.2-0.2l-0.1-0.1l-0.1-0.2l-0.1-0.1l-0.1-0.1L17,39.1L16.9,39h-0.1l-0.2-0.1
	l-0.2-0.2h-0.2L16,38.6h-0.2l-0.2-0.1l-0.2-0.1l-0.3,0l-0.1,0.1h-0.2l-0.3-0.1l-0.3-0.1h-0.2l-0.4,0.1h-0.3l-0.3-0.1l-0.2,0.1
	l-0.3,0l0.1,0.1l0.1,0.1l0.2,0.1l0.1,0.3l0.1,0.1l0.1,0.1v0.1l0.2,0.1l0,0.1l0.1,0.1l0.1,0l0.1,0.2l0.2,0.1l0.2,0.2l0.3,0.1l0.1,0.1
	l0.3,0.1l0.2,0.1l0.3,0l0.2,0.1H16l0.1,0h0.3l0.1,0l0.3,0l0.1-0.1l0.2,0l0.3-0.1h0.4l0.4,0.1l0.3,0.1l0.2,0.1l0.1,0.1l0,0l0,0
	l-0.1-0.1l-0.1,0.1l0.1,0.1l0.1,0.1l0.2,0.1l0.3,0.2l0.1,0.1h0l-0.2-0.1l-0.3-0.1l-0.2-0.1c0,0,0,0,0-0.1c0-0.2-0.2-0.4-0.4-0.4
	s-0.4,0.2-0.4,0.4c0,0.2,0.2,0.4,0.4,0.4h0c0.2,0,0.3-0.1,0.4-0.3l0.3,0.1l0.4,0.1l0.2,0l0.3,0.3L20,42h0l0.2,0.1L20,42l-0.1,0h-0.2
	l-0.1-0.1l-0.2-0.1h-0.4l-0.1-0.1l-0.2,0l-0.2,0.1h-0.3l-0.2-0.1h-0.2h-0.1l-0.2,0l0.3,0.3l0.1,0.1l0.1,0.1l0.3,0.1l0.2,0.1l0.1,0.1
	l0.1,0.1l0.2,0.1l0.2,0.3h0.2l0.1,0.1l0.2,0.2l0.2,0.1l0.1,0.1l-0.4,0.1l-0.1,0l-0.3,0.1h-0.1l-0.2,0.1l-0.2,0l-0.3,0.1l-0.3,0.1
	l-0.4,0.1l-0.2,0.1l-0.2,0l0.3,0.1l0.2,0.1h0.3l0.4,0.1l0.2,0l0.2,0.1l0.4,0.1H19l0.3,0.1h0.2h0.3l0.2,0h0.3l0.2-0.1l0.4,0l0.2-0.1
	l0.2-0.1l0.2-0.1l0.1,0l0.1-0.1l0.1-0.2l0.1-0.1l0.1-0.1l0.2-0.1l0.1-0.1l0.4-0.1l0.1,0l0.4,0.2l0.3,0.1l0.1,0l0,0l-0.2,0.1
	l-0.2,0.1h-0.3v0.1l-0.2,0.1l-0.4,0.2L22,44.9L21.7,45l-0.2,0.1l-0.1,0.1l-0.1,0.2l-0.3,0.1l-0.1,0.2l-0.2,0.2l-0.1,0.1l-0.2,0.2
	l-0.1,0.1l-0.1,0.2l-0.1,0.1L20,46.8L20,47l-0.1,0.2l0.3,0l0.2-0.1l0.3-0.1l0.1-0.1h0.1l0.1,0l0.2,0l0.1-0.1l0.3,0l0.1,0l0.1-0.1
	h0.2l0.1-0.1l0.2-0.1l0.1-0.1l0.1,0l0.2-0.2l0.1-0.1L23,46l0.2-0.1l0.1-0.2l0.1-0.2c0.2-0.3,0.3-0.6,0.2-0.9l0.1-0.1l0,0l0.1,0
	l0.2,0.1l0.7,0.3v0l-0.1,0.1v0.1c-0.3,0-0.5,0.2-0.5,0.5l0,0c0,0.3,0.2,0.5,0.5,0.5l0,0c0.3,0,0.5-0.2,0.5-0.5
	c0-0.2-0.1-0.4-0.4-0.5V45l0.1-0.1l0.3,0.2l0.4,0.1l0.2,0.2c0.4,0.1,0.9,0.2,1.3,0.4h0.3l0,0l0,0l0.1,0.3L27.3,46h-0.1l-0.4,0.1
	l-0.5,0.1l-0.4,0.1l-0.6,0.1h0l0,0l0.1,0.4l0.1,0l0.3,0l0.3,0h0.2l0.1-0.1h0.2l0.2-0.1l0.4-0.2l-0.1,0.2l-0.1,0.3l-0.3,0.4l-0.3,0.5
	l-0.4,0.5L26,48.6v0l-0.1-0.1l-0.1-0.3l-0.1-0.4l-0.1-0.4l-0.1-0.3l-0.1-0.3l-0.2-0.4c-0.1-0.2-0.2-0.2-0.3-0.2
	c-0.4,0.1-0.7,0.2-1.1,0.1c-0.1,0-0.1,0.2-0.1,0.3c-0.1,0-0.1,0-0.1,0c-0.4-0.1-0.5,0-0.8,0.3c-0.2,0.2-0.4,0.4-0.5,0.6L22,47.9
	l-0.2,0.3l0.3-0.2c0.3-0.2,0.6-0.4,0.9-0.4c0.1,0,0.2-0.1,0.4-0.1l0.1-0.1l0.1-0.1l0,0v0.2l0,0.4c0,0.3-0.1,0.6-0.3,0.8
	c-0.1,0.3-0.4,0.3-0.4,0.7c0.6-0.2,0.9-0.3,1.1-0.5v0.2c0,0.2,0.3,0.5,0.3,0.8c0.1-0.3,0.1-0.7,0.3-1l0.1-0.1l0.2,0.2l0.1,0.1
	l0.1,0.1h0.1l-0.1,0l0.2,0h0.3h0.2l0.4,0h0.3h0.2l0.1-0.1l0.3-0.2l0.3-0.4l0.2-0.3l0.1-0.1l0.1-0.2v-0.2v-0.2v-0.6h0.1h0.1
	c0,0.5,0.1,0.9,0.1,1.4c0,0.1,0.4,0.6,0.6,0.9c0.2,0.3,0.4,0.1,0.8,0.1c0.4,0.1,0.4,0.1,0.7,0l0.1-0.1l0,0l0,0l0.2-0.4l0.2-0.6
	l0.1-0.2c0.2,0.3,0.2,0.7,0.3,1c0.1,0.2,0.5,0.4,0.6,1c0.1-0.2,0.5-0.5,0.5-0.7c0.4,0,0.7,0,1.1,0.1c-0.2-0.4-0.5-0.5-0.8-0.7
	c-0.1-0.1-0.1-0.6-0.2-1l0.3,0.1l0.2,0.1l0,0l0.1,0l0.3,0.1l0.3,0.1l0.4,0.1l-0.2-0.2l-0.2-0.1l-0.2-0.2L33,47.5l-0.1-0.2l-0.1-0.1
	L32.6,47l-0.1,0h-0.2l-0.2-0.1l0,0h-0.1h-0.1l-0.1-0.2c0-0.2-0.4-0.2-0.6-0.2c-0.3,0-0.6-0.1-0.8-0.1c-0.2,0-0.2-0.1-0.3,0.1l0,0.1
	l0,0L30,46.5c-0.3-0.1-0.6-0.1-0.8-0.2L29,46.2l-0.2-0.1l0,0l0.2-0.1l0.4-0.1l0.3-0.1l0.2-0.1l0.3,0l0.1-0.1l0.3-0.1h-0.1h0.1l0.1,0
	l0.1,0c-0.1,0.2,0,0.5,0.2,0.6c0.2,0.2,0.5,0.2,0.8,0.1c0.1-0.3,0.1-0.6-0.2-0.7c-0.2-0.2-0.5-0.2-0.8-0.1l0,0l-0.1-0.1l-0.1-0.1
	l-0.1,0h0.1l0,0l0.1-0.1l0.2-0.1l0.1,0l0.2-0.1l0,0h0l0.3,0.1c0.4,0.1,1.2,0.7,2.4,0.8c0.7,0.1,1.4,0.1,2.1,0.3
	c-0.6-0.4-1.3-0.7-2-0.9c-0.1,0-0.3-0.1-0.4-0.1c0-0.1,0-0.2,0-0.4c0.3,0.3,0.6,0.5,1,0.6c0.8,0.4,1.6,0.6,2.4,0.6
	c-0.7-0.4-1.3-1-2.1-1.4c-0.6-0.4-1.1-0.4-1.9-0.5l-0.2-0.1l0.1,0l0.1-0.1l0.2-0.1l0.1,0l0.1,0l0.1-0.1l0.2-0.2l0.2-0.1l0.2-0.1
	l-0.1,0l0,0.1l0.3,0.2c0.5,0.3,1.1,0.6,1.6,0.8c0.6,0.2,1.2,0.3,1.8,0.4c-0.5-0.4-1.1-0.8-1.7-1.1c-0.4-0.2-0.7-0.3-1.1-0.4
	l-0.4-0.1l-0.4-0.1h0l-0.1,0l0.1,0l0.2-0.2l-0.2,0.1l0.3,0.1l0.4,0h0.4c0.8,0,1.5,0,2.3-0.1c0.5-0.1,1-0.2,1.5-0.3
	c-0.6-0.1-1.2-0.2-1.8-0.2c-0.7-0.1-1.4,0-2.2,0L35.3,43l-0.1,0.1l0.1-0.1l0.2-0.2c0.2-0.2,0.5-0.5,0.6-0.7l0-0.1l0,0h0h0.1h0
	c0.1,0.4,0.4,0.6,0.8,0.5c0.2,0,0.4-0.2,0.5-0.4c0-0.3-0.2-0.6-0.5-0.6c-0.3-0.1-0.5,0-0.6,0.3l0,0h-0.1l0-0.1l0.2-0.4l0.1-0.3
	l0.1-0.1l0,0l0.2,0.1l0.3,0.3c0.6,0.3,1.3,0.6,2,0.8c0.5,0.1,0.9,0.3,1.4,0.4c-0.4-0.4-0.8-0.6-1.2-0.9l-0.6-0.4l-0.2-0.2l0.6,0
	c0.9-0.1,1.8-0.3,2.6-0.6c-0.9-0.1-1.7-0.4-2.8-0.4c-0.8,0.1-1.5,0.2-2.2,0.5h0l0-0.1l0.3-0.2l0.2-0.3l0.1-0.2l0.1-0.3l0.2-0.1
	c0.6-0.1,1.1-0.3,1.6-0.4l0.8-0.3c0.9-0.4,1.8-1,2.5-1.8c-1,0.2-1.8,0.4-2.7,0.8c-0.6,0.3-1.1,0.6-1.6,1.1l-0.2,0.1l-0.1,0.1
	l0.1-0.2l0-0.1l0.2-0.2l0.2-0.2c0.3-0.2,0.5-0.4,0.8-0.6c0.5-0.4,1-0.8,1.3-1.4c0.5-0.8,0.9-1.6,1.1-2.5c-0.2,0.2-0.3,0.3-0.5,0.5
	c0.1-0.1,0.1-0.2,0-0.4l-0.1-0.1c-0.2-0.2-0.6-0.1-0.8,0.1c-0.1,0.1-0.2,0.3-0.2,0.5l0,0l-0.1,0.1l-0.1,0.1l0-0.1l0.1-0.1l0.1-0.1
	l0.1-0.1l0.1-0.1v-0.1l0.1-0.1l0.1-0.1l0.1-0.1l0.2-0.1l0.1-0.1c0.6-0.2,1.1-0.6,1.6-0.9c0.7-0.5,1.1-1.1,1.6-1.7l-0.1,0.1
	c-1.1,0.5-2.5,1.2-3.2,2.1L41,33.6l-0.2,0.3L40.6,34l-0.1,0.1l0-0.1l0-0.2l0.1-0.1l0.1-0.1l0-0.1l0-0.2V33l0.1-0.1l0.1-0.2l0.1-0.1
	l0.1-0.1l0,0c0.2,0.2,0.6,0.1,0.8-0.1c0.3-0.2,0.3-0.5,0.2-0.7c-0.3-0.2-0.7-0.1-0.9,0.2c-0.1,0.1-0.1,0.3-0.1,0.4l0.1,0l-0.1,0.1
	l-0.1,0.1l-0.1,0.2l-0.1,0.2l0,0v0.1l0,0v-0.2l0.1-0.2l0.1-0.3l-0.1-0.6l0.2-0.3l0-0.1L41.1,30.9c0.4-0.2,0.8-0.4,1.2-0.4
	c0.2,0,2,0.1,3.8-1.9c-1.6,0.3-3.4,0.7-4.4,1.8L41.1,30.9l0.2,0l0.1-0.1l0.1-0.2l0.2-0.2l0.3-0.3c0.3-0.4,0.6-0.8,0.9-1.1
	c0.5-0.9,0.6-1.5,0.8-2.5C43,27,42.4,27.9,42,28.7l-0.2,0.4c-0.1,0.2-0.1,0.4-0.2,0.6L41.4,30l-0.1,0.2l0,0.1l-0.1,0.2l0,0.2
	L41.1,30.9z M41.6,26.6c0.1-0.3,0.1-0.6-0.1-0.7c-0.2-0.1-0.5,0.1-0.6,0.4c-0.1,0.2-0.1,0.5,0.1,0.7l0-0.1l0.1-0.1l0.1,0L41,27
	C41.2,27,41.5,26.9,41.6,26.6"/>
<path class="st2" d="M55.5,46h1V15.4h-1L55.5,46z M85.8,26.9L85.8,26.9v5.8l0,0c0,0.6-0.5,1-1,1l0,0h-9.3c-0.6,0-1-0.5-1-1v-5.8l0,0
	c0.1-3.2,2.7-5.7,5.8-5.6C83.4,21.4,85.8,23.9,85.8,26.9 M93,44.2V27.4v0.6c0-7.1-5.8-12.9-12.9-12.9s-12.9,5.8-12.9,12.9v-0.6v16.8
	c0,1.2,0.5,1.6,1,1.6h5.1c0.6,0,1-0.5,1-1v-5.2c0-0.6,0.5-1,1-1h9.3c0.6,0,1,0.5,1,1l0,0v5.2c0,0.6,0.5,1,1,1l0,0H92
	C92.5,45.9,93,45.4,93,44.2 M124.5,44.9V16.6c0-0.6-0.5-1-1-1l0,0h-5.2c-0.6,0-1,0.5-1,1v16.9l-11.9-17.5c-0.2-0.3-0.5-0.4-0.8-0.4
	h-4.7c-0.6,0-1,0.5-1,1l0,0v28.3c0,0.6,0.5,1,1,1l0,0h5.2c0.6,0,1-0.5,1-1l0,0l0,0V27.2c0,0,11.9,17.5,12.2,17.9
	c0.4,0.5,0.9,0.7,1.4,0.8h3.7C124.1,45.9,124.6,45.4,124.5,44.9L124.5,44.9 M154.1,44.9v-3.6c0-0.6-0.5-1-1-1l0,0h-14
	c-0.6,0-1-0.5-1-1v-5.1c0-0.6,0.5-1,1-1h9.4c0.6,0,1-0.5,1-1l0,0v-2.9c0-0.6-0.5-1-1-1l0,0H139c-0.6,0-1-0.5-1-1v-5.1
	c0-0.6,0.5-1,1-1h14c0.6,0,1-0.5,1-1v-3.6c0-0.6-0.5-1-1-1h-21.2c-0.6,0-1,0.5-1,1l0,0v28.3c0,0.6,0.5,1,1,1l0,0H153
	C153.6,45.9,154.1,45.4,154.1,44.9 M178.7,27.4c0,3.4-2.8,6.4-6.2,6.4H168c-0.6,0-1.1-0.5-1.1-1.1V22.3c0-0.6,0.5-1.1,1.1-1.1l0,0
	h4.5l0,0C175.9,21.2,178.7,24,178.7,27.4 M185.5,27.4c0-6.5-5.3-11.9-11.8-11.9h-12.9c-0.6,0-1,0.5-1,1l0,0v28.3c0,0.6,0.5,1,1,1
	l0,0l0,0h5.1l0,0c0.6,0,1-0.5,1-1l0,0v-4.6c0-0.6,0.5-1,1-1l0,0h5.8C180.2,39.2,185.5,34.3,185.5,27.4 M197.1,15.3h-1v30.8h1V15.3z"
	/>
<path class="st2" d="M254.4,39h-1.4v7h5.1v-1.2h-3.7L254.4,39L254.4,39z M246.9,43.5l1.2-3l1.2,3H246.9z M247.3,39l-2.8,7h1.5
	l0.5-1.4h3.2l0.5,1.4h1.5l-2.8-7C249,39,247.3,39,247.3,39z M245,34.3v-5.9h2.2v-1.3h-5.9v1.3h2.2v5.9L245,34.3z M240.5,40.2
	c0.7-0.1,1.2,0.4,1.3,1.1c0,0.1,0,0.1,0,0.1c0,0.7-0.5,1.2-1.2,1.3c0,0-0.1,0-0.1,0h-1.7v-2.5C238.8,40.2,240.5,40.2,240.5,40.2z
	 M240.6,39h-3.2v7h1.4v-2h1.6l1.6,2h1.7l-1.8-2.3c0.8-0.4,1.4-1.3,1.4-2.2C243.2,39.9,242,39,240.6,39 M235.4,30.7
	c0-1.5,1.2-2.4,2.8-2.4c0.7,0,1.4,0.1,2,0.4l0.1-1.3c-0.7-0.3-1.5-0.5-2.2-0.5c-2.3,0-4.1,1.4-4.1,3.7c0,2.2,1.7,3.7,4,3.7
	c0.8,0,1.7-0.2,2.5-0.5l-0.2-1.3c-0.6,0.4-1.3,0.5-2.1,0.5C236.5,33.1,235.4,32.2,235.4,30.7 M236,39h-5.7v1.2h2.2V46h1.4v-5.7h2.2
	L236,39z M228.8,33.1v-1.8h3.4v-1.2h-3.4v-1.6h3.9v-1.2h-5.3v7.2h5.4v-1.2L228.8,33.1z M223.5,39h-1.3v7h1.4v-4.8l4,4.7h1.3v-7h-1.4
	v4.8L223.5,39z M220.5,39h-5.2v7h5.2v-1.2h-3.9V43h3.3v-1.2h-3.3v-1.6h3.8L220.5,39z M216,34.3h1.4v-7.2H216V34.3z M207.5,42.5
	c0,2.2,1.7,3.6,3.9,3.6c0.8,0,1.6-0.2,2.4-0.5l-0.2-1.2c-0.6,0.4-1.3,0.5-2,0.5c-1.5,0-2.7-0.9-2.7-2.3c0-1.5,1.2-2.3,2.7-2.3
	c0.7,0,1.3,0.1,2,0.4l0.1-1.3c-0.7-0.3-1.4-0.5-2.2-0.5C209.3,38.9,207.5,40.2,207.5,42.5 M209,18.9c0-1.5,1.2-2.4,2.8-2.4
	c0.7,0,1.4,0.1,2,0.4l0.1-1.3c-0.7-0.3-1.5-0.5-2.2-0.5c-2.3,0-4.1,1.4-4.1,3.7c0,2.2,1.7,3.7,4,3.7c0.8,0,1.7-0.2,2.5-0.5l-0.2-1.3
	c-0.6,0.4-1.3,0.5-2,0.5C210.2,21.3,209,20.4,209,18.9 M212.8,30.7c0,1.5-0.7,2.4-2.3,2.4H209v-4.7h1.5
	C212.1,28.4,212.8,29.3,212.8,30.7 M214.2,30.7c0-2.2-1.3-3.6-3.6-3.6h-3.1v7.2h3.1C212.9,34.3,214.2,33,214.2,30.7 M220.6,19
	c0,1.4-0.9,2.4-2.3,2.4c-1.4,0-2.3-1-2.3-2.4s0.9-2.4,2.3-2.4C219.6,16.6,220.6,17.6,220.6,19 M222,19c0-2.2-1.6-3.7-3.8-3.7
	c-2.2,0-3.8,1.5-3.8,3.7s1.6,3.7,3.8,3.7C220.4,22.6,222,21.1,222,19 M223.9,29.7c0,0.7-0.5,1.3-1.2,1.3c0,0-0.1,0-0.1,0h-1.7v-2.6
	h1.7c0.7-0.1,1.3,0.5,1.3,1.1C223.9,29.6,223.9,29.7,223.9,29.7 M222.7,27.2h-3.3v7.2h1.4v-2.1h1.7l1.6,2.1h1.7L224,32
	c0.9-0.4,1.4-1.3,1.4-2.2C225.4,28.1,224.2,27.2,222.7,27.2 M228.6,22.5h1.3v-7.2h-1.4v4.9l-4.1-4.9h-1.3v7.2h1.4v-4.9L228.6,22.5z
	 M232.5,17.3c0-0.6,0.6-0.8,1.3-0.8c0.7,0,1.4,0.1,2.1,0.5l0.1-1.3c-0.7-0.3-1.5-0.5-2.3-0.4c-1.7,0-2.7,0.9-2.7,2.2
	c0,1.2,1,1.7,1.9,1.9l1.1,0.3c0.6,0.2,0.9,0.4,0.9,0.8c0,0.6-0.6,0.8-1.4,0.8c-0.8,0-1.7-0.2-2.4-0.5l-0.1,1.3
	c0.8,0.4,1.8,0.5,2.7,0.5c1.6,0,2.7-0.9,2.7-2.2c0-1.1-0.7-1.6-1.9-2l-1-0.3C233,18,232.5,17.9,232.5,17.3 M237.4,22.5h5.4v-1.2
	h-3.9v-1.8h3.4v-1.2h-3.4v-1.7h3.9v-1.2h-5.3V22.5z M248.1,20.3v-4.9h-3.9v1.3h2.5v3.6c0,0.9-0.7,1.1-1.5,1.1
	c-0.6,0-1.1-0.2-1.6-0.4l-0.2,1.2c0.7,0.3,1.4,0.4,2.1,0.4C246.8,22.6,248.1,22,248.1,20.3 M250.1,27.2h-1.4v7.2h1.4V27.2z
	 M255.2,19c0,1.4-0.9,2.4-2.3,2.4s-2.3-1-2.3-2.4s0.9-2.4,2.3-2.4S255.2,17.6,255.2,19 M256.7,19c0-2.2-1.6-3.7-3.8-3.7
	s-3.8,1.5-3.8,3.7s1.6,3.7,3.8,3.7S256.7,21.1,256.7,19 M256,34.3l2.7-7.2h-1.5l-2,5.7l-2.1-5.7h-1.5l2.7,7.2L256,34.3z M265.6,30.8
	c0,1.4-0.9,2.3-2.3,2.3c-1.4,0-2.3-1-2.3-2.3s0.9-2.4,2.3-2.4C264.7,28.4,265.6,29.4,265.6,30.8 M267.1,30.8c0-2.2-1.6-3.7-3.8-3.7
	c-2.2,0-3.8,1.5-3.8,3.7s1.6,3.7,3.8,3.7S267.1,32.9,267.1,30.8"/>
<rect x="277.6" y="15" class="st2" width="0.8" height="31.1"/>
<g class="st4">
	<path class="st2" d="M289.8,15.3h2.8c2.1,0,3.3,1.3,3.3,3.3c0,1-0.3,1.8-0.9,2.4c-0.6,0.6-1.4,0.9-2.4,0.9h-2.8V15.3z M292.4,20.9
		c1.6,0,2.4-0.8,2.4-2.4c0-1.6-0.8-2.4-2.4-2.4h-1.6v4.7H292.4z"/>
	<path class="st2" d="M298.2,15.3v6.6h-1v-6.6H298.2z"/>
	<path class="st2" d="M304.3,21.8l-1.6-2h-1.8v2h-1v-6.6h3c1.2,0,2.3,0.7,2.3,2.3c0,1-0.5,1.8-1.4,2.1l1.8,2.2H304.3z M300.9,16.2
		v2.7h1.8c0.8,0,1.4-0.5,1.4-1.4c0-0.9-0.6-1.4-1.4-1.4H300.9z"/>
	<path class="st2" d="M311.5,20.9v0.9h-4.9v-6.6h4.8v0.9h-3.8V18h3.3v0.9h-3.3v2H311.5z"/>
	<path class="st2" d="M318,21.5c-0.2,0.1-0.3,0.1-0.5,0.2c-0.3,0.1-0.9,0.2-1.7,0.2c-1.1,0-2-0.3-2.7-0.9c-0.7-0.6-1-1.5-1-2.5
		c0-2,1.5-3.4,3.8-3.4c0.8,0,1.6,0.2,2,0.4l-0.1,1c-0.4-0.2-1.2-0.4-1.9-0.4c-0.8,0-1.4,0.2-1.9,0.7c-0.5,0.4-0.7,1-0.7,1.7
		c0,0.7,0.3,1.3,0.8,1.8c0.5,0.4,1.2,0.7,2,0.7c0.7,0,1.4-0.2,1.9-0.4L318,21.5z"/>
	<path class="st2" d="M324.3,21.5c-0.2,0.1-0.3,0.1-0.5,0.2c-0.3,0.1-0.9,0.2-1.7,0.2c-1.1,0-2-0.3-2.7-0.9c-0.7-0.6-1-1.5-1-2.5
		c0-2,1.5-3.4,3.8-3.4c0.8,0,1.6,0.2,2,0.4l-0.1,1c-0.4-0.2-1.2-0.4-1.9-0.4c-0.8,0-1.4,0.2-1.9,0.7c-0.5,0.4-0.7,1-0.7,1.7
		c0,0.7,0.3,1.3,0.8,1.8c0.5,0.4,1.2,0.7,2,0.7c0.7,0,1.4-0.2,1.9-0.4L324.3,21.5z"/>
	<path class="st2" d="M326.5,15.3v6.6h-1v-6.6H326.5z"/>
	<path class="st2" d="M331.2,15.2c2,0,3.5,1.5,3.5,3.4c0,1.9-1.5,3.4-3.5,3.4c-1.9,0-3.5-1.4-3.5-3.4
		C327.8,16.6,329.3,15.1,331.2,15.2z M333,20.3c0.4-0.4,0.7-1,0.7-1.7c0-0.7-0.2-1.3-0.7-1.8s-1-0.7-1.7-0.7c-0.7,0-1.3,0.2-1.7,0.7
		c-0.4,0.5-0.7,1-0.7,1.8c0,0.7,0.2,1.3,0.7,1.7c0.4,0.4,1,0.7,1.7,0.7C332,21,332.5,20.8,333,20.3z M332.9,13.1l-1,1.6h-0.8
		l0.7-1.6H332.9z"/>
	<path class="st2" d="M337,16.9v5h-1v-6.6h1l4.2,5v-5h1v6.6h-1L337,16.9z"/>
	<path class="st2" d="M350.4,15.5l-0.1,1c-0.4-0.2-1.2-0.4-1.8-0.4c-0.9,0-1.4,0.3-1.4,0.9c0,0.3,0.1,0.5,0.3,0.6
		c0.2,0.1,0.3,0.2,0.6,0.3l0.1,0l1,0.3c1,0.3,1.6,0.7,1.6,1.7c0,0.6-0.2,1-0.7,1.4c-0.4,0.4-1,0.6-1.7,0.6c-0.4,0-0.9,0-1.4-0.1
		c-0.4-0.1-0.8-0.2-1-0.3l0.1-0.9c0.2,0.1,0.6,0.2,1,0.3c0.4,0.1,0.8,0.1,1.2,0.1c0.8,0,1.4-0.4,1.4-1c0-0.5-0.2-0.7-0.9-0.9
		l-1.1-0.3c-0.4-0.1-0.8-0.3-1.1-0.5c-0.3-0.3-0.5-0.7-0.5-1.1c0-1.2,0.9-2,2.4-2C349.1,15.2,349.8,15.3,350.4,15.5z"/>
	<path class="st2" d="M356.8,20.9v0.9h-4.9v-6.6h4.8v0.9h-3.8V18h3.3v0.9h-3.3v2H356.8z"/>
	<path class="st2" d="M363.2,21.5c-0.2,0.1-0.3,0.1-0.5,0.2c-0.3,0.1-0.9,0.2-1.7,0.2c-1.1,0-2-0.3-2.7-0.9c-0.7-0.6-1-1.5-1-2.5
		c0-2,1.5-3.4,3.8-3.4c0.8,0,1.6,0.2,2,0.4l-0.1,1c-0.4-0.2-1.2-0.4-1.9-0.4c-0.8,0-1.4,0.2-1.9,0.7c-0.5,0.4-0.7,1-0.7,1.7
		c0,0.7,0.3,1.3,0.8,1.8s1.2,0.7,2,0.7c0.7,0,1.4-0.2,1.9-0.4L363.2,21.5z"/>
	<path class="st2" d="M365.8,21.8v-5.6h-2.2v-1h5.4v1h-2.2v5.6H365.8z"/>
	<path class="st2" d="M372.4,15.2c2,0,3.5,1.5,3.5,3.4c0,1.9-1.5,3.4-3.5,3.4c-1.9,0-3.5-1.4-3.5-3.4
		C368.9,16.6,370.4,15.1,372.4,15.2z M374.1,20.3c0.4-0.4,0.7-1,0.7-1.7c0-0.7-0.2-1.3-0.7-1.8s-1-0.7-1.7-0.7
		c-0.7,0-1.3,0.2-1.7,0.7c-0.4,0.5-0.7,1-0.7,1.8c0,0.7,0.2,1.3,0.7,1.7c0.4,0.4,1,0.7,1.7,0.7C373.1,21,373.7,20.8,374.1,20.3z"/>
	<path class="st2" d="M381.6,21.8l-1.6-2h-1.8v2h-1v-6.6h3c1.2,0,2.3,0.7,2.3,2.3c0,1-0.5,1.8-1.4,2.1l1.8,2.2H381.6z M378.2,16.2
		v2.7h1.8c0.8,0,1.4-0.5,1.4-1.4c0-0.9-0.6-1.4-1.4-1.4H378.2z"/>
	<path class="st2" d="M385,15.3v6.6h-1v-6.6H385z"/>
	<path class="st2" d="M391.4,21.8l-0.5-1.4h-3.3l-0.5,1.4h-1.1l2.7-6.6h1.1l2.7,6.6H391.4z M389.2,16.4l-1.4,3.2h2.7L389.2,16.4z"/>
	<path class="st2" d="M398.1,20.9v0.9h-4.8v-6.6h1v5.7H398.1z"/>
	<path class="st2" d="M400.9,15.3h2.8c2.1,0,3.3,1.3,3.3,3.3c0,1-0.3,1.8-0.9,2.4c-0.6,0.6-1.4,0.9-2.4,0.9h-2.8V15.3z M403.5,20.9
		c1.6,0,2.4-0.8,2.4-2.4c0-1.6-0.8-2.4-2.4-2.4h-1.6v4.7H403.5z"/>
	<path class="st2" d="M413.1,20.9v0.9h-4.9v-6.6h4.8v0.9h-3.8V18h3.3v0.9h-3.3v2H413.1z"/>
</g>
<g class="st4">
	<path class="st2" d="M291.2,33.8v-5.6h-2.2v-1h5.4v1h-2.2v5.6H291.2z"/>
	<path class="st2" d="M300.3,32.8v0.9h-4.9v-6.6h4.8v0.9h-3.8v1.8h3.3v0.9h-3.3v2H300.3z"/>
	<path class="st2" d="M306.7,33.4c-0.2,0.1-0.3,0.1-0.5,0.2c-0.3,0.1-0.9,0.2-1.7,0.2c-1.1,0-2-0.3-2.7-0.9c-0.7-0.6-1-1.5-1-2.5
		c0-2,1.5-3.4,3.8-3.4c0.8,0,1.6,0.2,2,0.4l-0.1,1c-0.4-0.2-1.2-0.4-1.9-0.4c-0.8,0-1.4,0.2-1.9,0.7c-0.5,0.4-0.7,1-0.7,1.7
		c0,0.7,0.3,1.3,0.8,1.8c0.5,0.4,1.2,0.7,2,0.7c0.7,0,1.4-0.2,1.9-0.4L306.7,33.4z"/>
	<path class="st2" d="M308.9,28.8v5h-1v-6.6h1l4.2,5v-5h1v6.6h-1L308.9,28.8z"/>
	<path class="st2" d="M318.9,27.1c2,0,3.5,1.5,3.5,3.4c0,1.9-1.5,3.4-3.5,3.4c-1.9,0-3.5-1.4-3.5-3.4
		C315.4,28.5,316.9,27,318.9,27.1z M320.6,32.2c0.4-0.4,0.7-1,0.7-1.7c0-0.7-0.2-1.3-0.7-1.8c-0.4-0.5-1-0.7-1.7-0.7
		c-0.7,0-1.3,0.2-1.7,0.7c-0.4,0.5-0.7,1-0.7,1.8c0,0.7,0.2,1.3,0.7,1.7c0.4,0.4,1,0.7,1.7,0.7C319.6,32.9,320.2,32.7,320.6,32.2z"
		/>
	<path class="st2" d="M328.4,32.8v0.9h-4.8v-6.6h1v5.7H328.4z"/>
	<path class="st2" d="M331.6,27.1c2,0,3.5,1.5,3.5,3.4c0,1.9-1.5,3.4-3.5,3.4c-1.9,0-3.5-1.4-3.5-3.4
		C328.1,28.5,329.7,27,331.6,27.1z M333.4,32.2c0.4-0.4,0.7-1,0.7-1.7c0-0.7-0.2-1.3-0.7-1.8c-0.4-0.5-1-0.7-1.7-0.7
		c-0.7,0-1.3,0.2-1.7,0.7c-0.4,0.5-0.7,1-0.7,1.8c0,0.7,0.2,1.3,0.7,1.7c0.4,0.4,1,0.7,1.7,0.7C332.3,32.9,332.9,32.7,333.4,32.2z"
		/>
	<path class="st2" d="M341.2,31h-2v-0.9h3v3.2c-0.6,0.3-1.5,0.5-2.3,0.5c-2.4,0-3.9-1.4-3.9-3.4c0-1,0.4-1.8,1.1-2.5
		c0.7-0.6,1.7-0.9,2.9-0.9c0.8,0,1.4,0.1,2,0.4l-0.1,1c0,0-0.1-0.1-0.4-0.1c-0.3-0.1-0.9-0.3-1.6-0.3c-0.9,0-1.6,0.2-2.1,0.7
		c-0.5,0.4-0.8,1-0.8,1.7c0,0.7,0.3,1.3,0.8,1.8c0.5,0.4,1.2,0.7,2.1,0.7c0.6,0,1-0.1,1.4-0.2V31z"/>
	<path class="st2" d="M344.7,27.2v6.6h-1v-6.6H344.7z M345.6,25l-1,1.6h-0.8l0.7-1.6H345.6z"/>
	<path class="st2" d="M351.1,33.8l-0.5-1.4h-3.3l-0.5,1.4h-1.1l2.7-6.6h1.1l2.7,6.6H351.1z M348.9,28.3l-1.4,3.2h2.7L348.9,28.3z"/>
	<path class="st2" d="M357.1,27.4l-0.1,1c-0.4-0.2-1.2-0.4-1.8-0.4c-0.9,0-1.4,0.3-1.4,0.9c0,0.3,0.1,0.5,0.3,0.6
		c0.2,0.1,0.3,0.2,0.6,0.3l0.1,0l1,0.3c1,0.3,1.6,0.7,1.6,1.7c0,0.6-0.2,1-0.7,1.4c-0.4,0.4-1,0.6-1.7,0.6c-0.4,0-0.9,0-1.4-0.1
		c-0.4-0.1-0.8-0.2-1-0.3l0.1-0.9c0.2,0.1,0.6,0.2,1,0.3c0.4,0.1,0.8,0.1,1.2,0.1c0.8,0,1.4-0.4,1.4-1c0-0.5-0.2-0.7-0.9-0.9
		l-1.1-0.3c-0.4-0.1-0.8-0.3-1.1-0.5c-0.3-0.3-0.5-0.7-0.5-1.1c0-1.2,0.9-2,2.4-2C355.8,27.1,356.5,27.2,357.1,27.4z"/>
	<path class="st2" d="M361,27.2h2.8c2.1,0,3.3,1.3,3.3,3.3c0,1-0.3,1.8-0.9,2.4c-0.6,0.6-1.4,0.9-2.4,0.9H361V27.2z M363.7,32.8
		c1.6,0,2.4-0.8,2.4-2.4c0-1.6-0.8-2.4-2.4-2.4H362v4.7H363.7z"/>
	<path class="st2" d="M373.3,32.8v0.9h-4.9v-6.6h4.8v0.9h-3.8v1.8h3.3v0.9h-3.3v2H373.3z"/>
	<path class="st2" d="M381.7,32.8v0.9h-4.8v-6.6h1v5.7H381.7z"/>
	<path class="st2" d="M387.4,33.8l-0.5-1.4h-3.3l-0.5,1.4h-1.1l2.7-6.6h1.1l2.7,6.6H387.4z M385.2,28.3l-1.4,3.2h2.7L385.2,28.3z"/>
	<path class="st2" d="M392.2,27.2v6.6h-1v-6.6H392.2z"/>
	<path class="st2" d="M394.9,28.8v5h-1v-6.6h1l4.2,5v-5h1v6.6h-1L394.9,28.8z"/>
	<path class="st2" d="M402.9,30.9v2.9h-1v-6.6h4.6v0.9h-3.6v1.8h2.8v0.9H402.9z"/>
	<path class="st2" d="M410.3,27.1c2,0,3.5,1.5,3.5,3.4c0,1.9-1.5,3.4-3.5,3.4c-1.9,0-3.5-1.4-3.5-3.4
		C406.8,28.5,408.4,27,410.3,27.1z M412,32.2c0.4-0.4,0.7-1,0.7-1.7c0-0.7-0.2-1.3-0.7-1.8s-1-0.7-1.7-0.7c-0.7,0-1.3,0.2-1.7,0.7
		c-0.4,0.5-0.7,1-0.7,1.8c0,0.7,0.2,1.3,0.7,1.7c0.4,0.4,1,0.7,1.7,0.7C411,32.9,411.6,32.7,412,32.2z"/>
	<path class="st2" d="M419.5,33.8l-1.6-2h-1.8v2h-1v-6.6h3c1.2,0,2.3,0.7,2.3,2.3c0,1-0.5,1.8-1.4,2.1l1.8,2.2H419.5z M416.1,28.1
		v2.7h1.8c0.8,0,1.4-0.5,1.4-1.4c0-0.9-0.6-1.4-1.4-1.4H416.1z"/>
	<path class="st2" d="M425.6,31.6h-0.2l-2.5-2.7v4.9h-1v-6.6h0.9l2.7,3.1l2.7-3.1h0.9v6.6h-1v-4.9L425.6,31.6z"/>
	<path class="st2" d="M435.4,33.8l-0.5-1.4h-3.3l-0.5,1.4h-1.1l2.7-6.6h1.1l2.7,6.6H435.4z M433.2,28.3l-1.4,3.2h2.7L433.2,28.3z"/>
	<path class="st2" d="M442.6,33.4c-0.2,0.1-0.3,0.1-0.5,0.2c-0.3,0.1-0.9,0.2-1.7,0.2c-1.1,0-2-0.3-2.7-0.9c-0.7-0.6-1-1.5-1-2.5
		c0-2,1.5-3.4,3.8-3.4c0.8,0,1.6,0.2,2,0.4l-0.1,1c-0.4-0.2-1.2-0.4-1.9-0.4c-0.8,0-1.4,0.2-1.9,0.7c-0.5,0.4-0.7,1-0.7,1.7
		c0,0.7,0.3,1.3,0.8,1.8c0.5,0.4,1.2,0.7,2,0.7c0.7,0,1.4-0.2,1.9-0.4L442.6,33.4z"/>
	<path class="st2" d="M444.7,27.2v6.6h-1v-6.6H444.7z"/>
	<path class="st2" d="M449.5,27.1c2,0,3.5,1.5,3.5,3.4c0,1.9-1.5,3.4-3.5,3.4c-1.9,0-3.5-1.4-3.5-3.4C446,28.5,447.5,27,449.5,27.1z
		 M451.2,32.2c0.4-0.4,0.7-1,0.7-1.7c0-0.7-0.2-1.3-0.7-1.8s-1-0.7-1.7-0.7c-0.7,0-1.3,0.2-1.7,0.7c-0.4,0.5-0.7,1-0.7,1.8
		c0,0.7,0.2,1.3,0.7,1.7c0.4,0.4,1,0.7,1.7,0.7C450.2,32.9,450.8,32.7,451.2,32.2z M451.2,25l-1,1.6h-0.8l0.7-1.6H451.2z"/>
	<path class="st2" d="M455.3,28.8v5h-1v-6.6h1l4.2,5v-5h1v6.6h-1L455.3,28.8z"/>
</g>
<g class="st4">
	<path class="st2" d="M292.1,42.1l1.9-3h1.2l-2.6,4.1v2.5h-1v-2.5l-2.6-4.1h1.2L292.1,42.1z"/>
	<path class="st2" d="M303.2,45.3c-0.2,0.1-0.3,0.1-0.5,0.2c-0.3,0.1-0.9,0.2-1.7,0.2c-1.1,0-2-0.3-2.7-0.9c-0.7-0.6-1-1.5-1-2.5
		c0-2,1.5-3.4,3.8-3.4c0.8,0,1.6,0.2,2,0.4l-0.1,1c-0.4-0.2-1.2-0.4-1.9-0.4c-0.8,0-1.4,0.2-1.9,0.7c-0.5,0.4-0.7,1-0.7,1.7
		c0,0.7,0.3,1.3,0.8,1.8c0.5,0.4,1.2,0.7,2,0.7c0.7,0,1.4-0.2,1.9-0.4L303.2,45.3z"/>
	<path class="st2" d="M307.1,39c2,0,3.5,1.5,3.5,3.4c0,1.9-1.5,3.4-3.5,3.4c-1.9,0-3.5-1.4-3.5-3.4C303.7,40.5,305.2,39,307.1,39z
		 M308.9,44.1c0.4-0.4,0.7-1,0.7-1.7c0-0.7-0.2-1.3-0.7-1.8c-0.4-0.5-1-0.7-1.7-0.7c-0.7,0-1.3,0.2-1.7,0.7c-0.4,0.5-0.7,1-0.7,1.8
		c0,0.7,0.2,1.3,0.7,1.7c0.4,0.4,1,0.7,1.7,0.7C307.9,44.8,308.4,44.6,308.9,44.1z"/>
	<path class="st2" d="M315.6,43.5h-0.2l-2.5-2.7v4.9h-1v-6.6h0.9l2.7,3.1l2.7-3.1h0.9v6.6h-1v-4.9L315.6,43.5z"/>
	<path class="st2" d="M320.7,39.1h1v4.2c0,1,0.7,1.5,1.8,1.5c1.1,0,1.8-0.5,1.8-1.5v-4.2h1v4.3c0,1.7-1.4,2.4-2.9,2.4
		c-1.6,0-2.8-0.8-2.8-2.4V39.1z"/>
	<path class="st2" d="M329.1,40.7v5h-1v-6.6h1l4.2,5v-5h1v6.6h-1L329.1,40.7z"/>
	<path class="st2" d="M337,39.1v6.6h-1v-6.6H337z"/>
	<path class="st2" d="M344.2,45.3c-0.2,0.1-0.3,0.1-0.5,0.2c-0.3,0.1-0.9,0.2-1.7,0.2c-1.1,0-2-0.3-2.7-0.9c-0.7-0.6-1-1.5-1-2.5
		c0-2,1.5-3.4,3.8-3.4c0.8,0,1.6,0.2,2,0.4l-0.1,1c-0.4-0.2-1.2-0.4-1.9-0.4c-0.8,0-1.4,0.2-1.9,0.7c-0.5,0.4-0.7,1-0.7,1.7
		c0,0.7,0.3,1.3,0.8,1.8c0.5,0.4,1.2,0.7,2,0.7c0.7,0,1.4-0.2,1.9-0.4L344.2,45.3z"/>
	<path class="st2" d="M350,45.7l-0.5-1.4h-3.3l-0.5,1.4h-1.1l2.7-6.6h1.1l2.7,6.6H350z M347.8,40.2l-1.4,3.2h2.7L347.8,40.2z"/>
	<path class="st2" d="M357.2,45.3c-0.2,0.1-0.3,0.1-0.5,0.2c-0.3,0.1-0.9,0.2-1.7,0.2c-1.1,0-2-0.3-2.7-0.9c-0.7-0.6-1-1.5-1-2.5
		c0-2,1.5-3.4,3.8-3.4c0.8,0,1.6,0.2,2,0.4l-0.1,1c-0.4-0.2-1.2-0.4-1.9-0.4c-0.8,0-1.4,0.2-1.9,0.7c-0.5,0.4-0.7,1-0.7,1.7
		c0,0.7,0.3,1.3,0.8,1.8c0.5,0.4,1.2,0.7,2,0.7c0.7,0,1.4-0.2,1.9-0.4L357.2,45.3z"/>
	<path class="st2" d="M359.4,39.1v6.6h-1v-6.6H359.4z"/>
	<path class="st2" d="M364.1,39c2,0,3.5,1.5,3.5,3.4c0,1.9-1.5,3.4-3.5,3.4c-1.9,0-3.5-1.4-3.5-3.4C360.6,40.5,362.2,39,364.1,39z
		 M365.9,44.1c0.4-0.4,0.7-1,0.7-1.7c0-0.7-0.2-1.3-0.7-1.8c-0.4-0.5-1-0.7-1.7-0.7c-0.7,0-1.3,0.2-1.7,0.7c-0.4,0.5-0.7,1-0.7,1.8
		c0,0.7,0.2,1.3,0.7,1.7c0.4,0.4,1,0.7,1.7,0.7C364.8,44.8,365.4,44.6,365.9,44.1z M365.8,36.9l-1,1.6H364l0.7-1.6H365.8z"/>
	<path class="st2" d="M369.9,40.7v5h-1v-6.6h1l4.2,5v-5h1v6.6h-1L369.9,40.7z"/>
</g>
</svg>
