<?xml version="1.0" encoding="utf-8"?>
<!-- Generator: Adobe Illustrator 23.0.1, SVG Export Plug-In . SVG Version: 6.00 Build 0)  -->
<svg version="1.1" id="Modo_de_aislamiento" xmlns="http://www.w3.org/2000/svg" xmlns:xlink="http://www.w3.org/1999/xlink"
	 x="0px" y="0px" viewBox="0 0 695.5 232.3" style="enable-background:new 0 0 695.5 232.3;" xml:space="preserve">
<style type="text/css">
	.st0{fill-rule:evenodd;clip-rule:evenodd;fill:white;}
</style>
<g id="layer1" transform="translate(-48.938157,-26.307834)">
	<g id="Layer1000" transform="matrix(0.26458333,0,0,0.26458333,26.516598,-86.407496)">
		<path id="path815" class="st0" d="M176.4,796.3v391.1c3.3,7.5,1.7,14.6,7.8,21.7c6.2,7.1,9.9,7.1,21.5,7.1
			c15.3,0,101.9,1.3,109.8-1.8c16.1-6.7,13.6-24.8,13.6-44.8V1080c0-23.9,10.3-28.8,29.3-28.8c25.6,0,188.6-1.3,196,0.4
			c19.8,5.3,16.5,27.5,16.5,42.1c0,20,0,39.9,0,59.9c0,30.2-7,62.1,25.2,62.1h84.2c21,0,34.2,3.5,40.4-16.8c5-16.4,2.5-94,2.5-117.5
			V841.5c0-74.9-6.2-129-45-192.4c-42.5-69.6-109.8-116.2-187.3-129.5c-5.8-0.9-21.5-1.8-25.2-3.1h-33.8
			c-21.5,4.9-28.5,2.7-55.3,10.6c-94.1,28.8-166.7,108.2-191.1,209.3C178,767,179.3,787.8,176.4,796.3L176.4,796.3z M436.3,654.4
			c-38.4,4.9-63.5,25.7-81.3,48.8c-26.8,35-26,67.4-26,109.1c0,22.6,0,45.2,0,67.8c0,22.2-4.5,46.6,12,55.4
			c8.3,4.4,48.3,2.7,60.7,2.7h127.1c8.3,0,22.3,1.3,29.3-1.8c6.6-3.1,12.4-9.8,13.2-19.5c1.2-21.3,0-46.1,0-67.8
			c0-22.6,0-45.7,0-68.7C570.9,708,508.1,645.1,436.3,654.4L436.3,654.4z"/>
		<path id="path817" class="st0" d="M2272.2,1216.2c14.9-7.1,16.9-12.4,16.9-32.8c0-15.5-1.7-95.8,1.7-104.2
			c6.2-15.1,18.6-13.7,36.3-13.7c33,0,65.6,0,98.6,0c56.1,0,107.3-15.1,151-48.8c55.7-43.5,92.8-104.6,104.4-179.1
			c0.8-6.2,1.7-19.5,2.5-23.5c1.2-64.7-8.7-115.3-41.7-168.5c-27.6-44.8-63.1-75.4-108.1-97.5c-56.1-27.9-111.8-22.6-178.3-22.6
			c-14,0-190.2-0.9-198.9,0c-7,0.9-12.4,5.8-14.9,10.2c-4.5,7.5-3.7,13.3-3.7,23.1v587.5c0,12-1.2,43,0.4,52.3
			c3.7,20,22.3,18.2,33.4,18.2C2190.9,1216.6,2259.4,1217.9,2272.2,1216.2L2272.2,1216.2z M2308.1,654.8c-23.1,5.8-19,29.7-19,49.2
			c0,67.8-0.8,139.7,0,207.1c0,11.1,5,17.7,11.1,22.6c7.4,5.3,19.4,4,28.9,4c21.5,0,42.9,0,64.8,0c46.6,0,69.7-8.4,98.6-32.4
			c23.5-19.5,41.7-53.2,46.6-87.3c11.1-74.5-35.5-146.3-104.8-161c-19-4-42.1-2.2-61.9-2.2C2358,653.9,2318.8,651.7,2308.1,654.8
			L2308.1,654.8z"/>
		<path id="path819" class="st0" d="M865.9,1216.6c7.8,0.9,84.2,0.4,99,0.4c22.3,0,37.1,1.8,37.1-31.5V864.1c0-23.1-1.2-49.7,0-72.3
			c2.5,2.7,7.4,10.6,9.9,14.6c9.5,15.1,20.2,30.6,28.9,46.1c23.5,39,54.1,83.4,77.6,122.4c6.6,10.6,12.8,20.4,19.4,30.6
			c6.6,10.2,13.2,20.4,19.8,31l77.6,122.4c6.6,10.2,12.8,20.4,19.4,30.2c21.5,32.8,29.3,27.5,70.6,27.5c15.7,0,33.4,0.9,49.1,0
			c4.1-2.7,15.7-5.3,16.9-20.8c0.8-12,0-103.3,0-119.7v-521c0-14.6-2.5-22.6-11.6-27.5c-8.7-4.9-89.1-2.7-109.8-2.7
			c-14,0-22.3,0-28.5,9.8c-5.8,9.3-3.7,23.5-3.7,35.9c0,21.7,0.8,352.1-0.4,360.5c-23.9-36.8-47.9-76.3-71.8-113.5
			c-24.8-38.1-48.3-76.3-72.2-114.4c-24.3-38.1-47.9-75.8-72.2-114c-6.2-9.3-12-18.6-18.2-28.4c-23.5-39.5-20.2-35.9-55.7-35.9
			c-14.9,0-30.1,0-45.4,0c-42.1,0-54.5-5.8-54.5,37.7V1186C848.2,1203.7,851.9,1212.2,865.9,1216.6L865.9,1216.6z"/>
		<path id="path821" class="st0" d="M1538.9,526.2c-17.3,7.1-14.9,19.5-14.9,41.7v518.8c0,16.4-1.7,106,1.2,114.4
			c5.8,17.3,20.6,15.5,39.2,15.5c143.2,0,286.8,0.4,429.6,0c9.1,0,14.9-3.5,18.6-8.9c5.8-7.5,4.5-13.7,4.5-24.4
			c0-19.1,0-38.1,0-57.2c0-13.3,1.7-34.6-19.8-37.2c-11.1-1.3-198.5,0-215,0h-80.1c-21,0-25.2-12.9-25.2-31V971
			c0-50.5,6.6-43.5,66.4-43.5c14,0,153.5,0.9,160.1-0.4c19.4-5.3,16.1-26.2,16.1-40.8c0-11.5,1.2-47.9-1.7-55.9
			c-6.2-17.3-21-15.1-40.9-15.1c-11.6,0-178.7,1.3-185.7-0.9c-6.6-2.2-12-7.5-14-14.6c-2.9-8.9-1.2-97.1-1.2-114.4
			c0-20,4.5-31.5,24.3-31.5h268.6c19,0,34.7,3.1,43.3-10.6c6.2-10.2,3.7-39.9,3.7-54.5c0-15.1,2.9-42.6-3.7-53.2
			c-8.3-13.7-27.2-9.8-45.4-9.8H1645C1630.1,524.9,1546.8,523.1,1538.9,526.2L1538.9,526.2z"/>
	</g>
</g>
</svg>
