<?xml version="1.0" encoding="utf-8"?>
<!-- Generator: Adobe Illustrator 26.5.0, SVG Export Plug-In . SVG Version: 6.00 Build 0)  -->
<svg version="1.1" id="svg8" xmlns="http://www.w3.org/2000/svg" xmlns:xlink="http://www.w3.org/1999/xlink" x="0px" y="0px"
	 viewBox="0 0 495.1 86.1" style="enable-background:new 0 0 495.1 86.1;" xml:space="preserve">
<style type="text/css">
	.st0{fill:#FFFFFF;}
	.st1{fill:#FFCB00;}
	.st2{fill:#009EE2;}
	.st3{fill:#164193;}
</style>
<g>
	<rect x="235.3" y="24.4" class="st0" width="1.2" height="37.1"/>
	<rect x="66" y="24.4" class="st0" width="1.2" height="37.1"/>
	<path class="st0" d="M207.1,46.8h-5.5c-0.7,0-1.3-0.6-1.3-1.3V32.9c0-0.7,0.6-1.3,1.3-1.3l0,0h5.5l0,0c4.2,0,7.5,3.3,7.5,7.5
		C214.7,43.2,211.2,46.8,207.1,46.8 M208.5,24.7h-15.7l0,0c-0.7,0-1.2,0.6-1.2,1.2v34.4c0,0.7,0.6,1.2,1.2,1.2l0,0h6.2l0,0
		c0.7,0,1.2-0.6,1.2-1.2v-5.6c0-0.7,0.6-1.2,1.2-1.2h7c7.9,0,14.4-5.9,14.4-14.4C222.9,31.2,216.5,24.7,208.5,24.7 M183.6,24.7
		h-25.7c-0.7,0-1.2,0.6-1.2,1.2v34.4c0,0.7,0.6,1.2,1.2,1.2h25.7c0.7,0,1.2-0.6,1.2-1.2V56c0-0.7-0.6-1.2-1.2-1.2l0,0h-17
		c-0.7,0-1.2-0.6-1.2-1.2v-6.2c0-0.7,0.6-1.2,1.2-1.2H178c0.7,0,1.2-0.6,1.2-1.2v-3.8c0-0.7-0.6-1.2-1.2-1.2h-11.4
		c-0.7,0-1.2-0.6-1.2-1.2v-6.2c0-0.7,0.6-1.2,1.2-1.2l0,0h17l0,0c0.7,0,1.2-0.6,1.2-1.2v-4.3C184.8,25.3,184.2,24.7,183.6,24.7
		 M102.1,45.5c0,0.7-0.6,1.2-1.2,1.2H89.6c-0.7,0-1.2-0.6-1.2-1.2v-7l0,0c0-3.8,3.1-6.9,6.9-6.9s6.9,3.1,6.9,6.9l0,0L102.1,45.5
		L102.1,45.5z M95.2,24.2c-8.7,0-15.7,7-15.7,15.7v-0.7v20.3c0,1.4,0.6,2,1.2,2h6.2c0.7,0,1.2-0.6,1.2-1.2V54c0-0.7,0.6-1.2,1.2-1.2
		h11.4c0.7,0,1.2,0.6,1.2,1.2v6.3l0,0c0,0.7,0.6,1.2,1.2,1.2h6.2c0.7,0,1.2-0.6,1.2-2V39.2v0.7C110.8,31.2,103.8,24.2,95.2,24.2
		 M147.8,24.7h-6.3c-0.7,0-1.2,0.6-1.2,1.2v20.4L126,25.2c-0.2-0.2-0.6-0.5-0.9-0.5l0,0h-5.7c-0.7,0-1.2,0.6-1.2,1.2v34.4
		c0,0.7,0.6,1.2,1.2,1.2h6.3c0.7,0,1.2-0.6,1.2-1.2l0,0V38.8c0,0,14.5,21.2,14.8,21.7c0.4,0.5,1.1,0.9,1.8,0.9h0.4h4.2
		c0.7,0,1.2-0.6,1.2-1.2V26C149.1,25.3,148.5,24.7,147.8,24.7"/>
	<path class="st0" d="M336.5,54.1c0.9,0,1.5,0.6,1.5,1.5s-0.7,1.5-1.5,1.5h-2.1V54h2.1V54.1z M336.7,52.7h-4v8.7h1.8v-2.6h2.3
		c1.8,0,3.2-1.2,3.2-3.1S338.5,52.7,336.7,52.7 M320.3,52.7h-1.5v8.7h1.8v-5.9l5,5.9h1.5v-8.7h-1.8v5.9L320.3,52.7z M313.6,38.6
		h-1.8v8.7h6.4v-1.5h-4.7v-7.1H313.6z M312.9,49.7l-0.9,2.1h1.4l1.5-2.1H312.9z M309.6,57.1c0-1.7,1.2-2.8,2.8-2.8
		c1.7,0,2.8,1.2,2.8,2.8s-1.2,2.8-2.8,2.8C310.6,59.9,309.6,58.8,309.6,57.1 M307.8,57.1c0,2.6,1.9,4.5,4.6,4.5s4.6-1.8,4.6-4.5
		c0-2.6-1.9-4.5-4.6-4.5S307.8,54.4,307.8,57.1 M306,52.7h-1.8v8.7h1.8V52.7z M304.6,44.3l1.5-3.8l1.5,3.8H304.6z M301.6,47.4h1.9
		l0.6-1.7h4l0.6,1.7h1.9l-3.6-8.7h-2L301.6,47.4z M294.8,57c0,2.7,2.1,4.5,4.9,4.5c1.3,0,2.3-0.4,3-0.7l-0.2-1.5
		c-0.6,0.4-1.5,0.6-2.5,0.6c-1.9,0-3.3-1.2-3.3-3c0-1.9,1.5-2.8,3.3-2.8c0.9,0,1.9,0.2,2.5,0.5l0.1-1.5c-0.7-0.4-1.7-0.6-2.7-0.6
		C297,52.6,294.8,54.2,294.8,57 M288.2,58.3l1.5-3.8l1.5,3.8H288.2z M288.8,52.7l-3.6,8.7h1.9l0.6-1.7h4l0.6,1.7h1.9l-3.6-8.7H288.8
		z M285.6,45.8c-1.7,0-2.8-1.2-2.8-2.8s1.2-2.8,2.8-2.8c1.7,0,2.8,1.2,2.8,2.8S287.3,45.8,285.6,45.8 M285.6,47.5
		c2.7,0,4.6-1.8,4.6-4.5c0-2.6-1.9-4.5-4.6-4.5S281,40.4,281,43C281,45.6,282.9,47.5,285.6,47.5 M276.4,57c0,2.7,2.1,4.5,4.9,4.5
		c1.3,0,2.3-0.4,3-0.7l-0.2-1.5c-0.6,0.4-1.5,0.6-2.5,0.6c-1.9,0-3.3-1.2-3.3-3c0-1.9,1.5-2.8,3.3-2.8c0.9,0,1.9,0.2,2.5,0.5
		l0.1-1.5c-0.7-0.4-1.7-0.6-2.7-0.6C278.6,52.6,276.4,54.2,276.4,57 M268.9,52.7h-1.8v5.6c0,2.1,1.7,3.2,3.8,3.2
		c2,0,3.8-0.9,3.8-3.2v-5.6H273v5.5c0,1.2-0.8,1.8-2.1,1.8c-1.2,0-2-0.6-2-1.8V52.7z M260.8,54.1c1.9,0,2.8,1.1,2.8,2.8
		s-0.8,2.8-2.8,2.8H259v-5.7C259,54.1,260.8,54.1,260.8,54.1z M261.1,52.7h-3.8v8.7h3.8c2.7,0,4.4-1.7,4.4-4.4
		C265.5,54.4,263.8,52.7,261.1,52.7 M255.4,52.7H249v8.7h6.5v-1.5h-4.9v-2.3h4.2V56h-4.2v-2h4.7V52.7z M250.5,38.6H249v8.7h1.8v-5.9
		l5,5.9h1.5v-8.7h-1.8v5.9L250.5,38.6z M254.9,30.1h-3.1l1.5-3.8L254.9,30.1z M256.1,33.1h1.9l-3.6-8.7h-2l-3.6,8.7h1.9l0.6-1.7h4
		L256.1,33.1z M265.6,28.7c0,1.8-0.8,2.8-2.8,2.8h-1.8v-5.7h1.8C264.7,25.9,265.6,27,265.6,28.7 M267.4,28.7c0-2.7-1.5-4.4-4.4-4.4
		h-3.8V33h3.8C265.7,33.1,267.4,31.5,267.4,28.7 M264.5,44.3h-3.1l1.5-3.8L264.5,44.3z M265.7,47.4h1.9l-3.6-8.7h-2l-3.6,8.7h1.9
		l0.6-1.7h4L265.7,47.4z M267.9,43c0,2.7,2.1,4.5,4.9,4.5c1.3,0,2.3-0.4,3-0.7l-0.2-1.5c-0.6,0.4-1.5,0.6-2.5,0.6
		c-1.9,0-3.3-1.2-3.3-3c0-1.9,1.5-2.8,3.3-2.8c0.9,0,1.9,0.2,2.5,0.5l0.1-1.5c-0.7-0.4-1.7-0.6-2.7-0.6
		C270.2,38.5,267.9,40.1,267.9,43 M277.1,33.1h1.8v-8.7h-1.5l-3.3,3.9l-3.3-3.9h-1.5v8.7h1.8v-5.9l3,3.3h0.2l3-3.3V33.1L277.1,33.1z
		 M277.6,47.4h1.8v-8.7h-1.8V47.4z M281,33.1h1.8v-8.7H281V33.1z M291.7,33.1h1.5v-8.7h-1.8v5.9l-5-5.9h-1.5v8.7h1.8v-5.9
		L291.7,33.1z M295.5,33.1h1.8v-8.7h-1.8V33.1z M298.5,38.6v5.9l-5-5.9H292v8.7h1.8v-5.9l5,5.9h1.5v-8.7H298.5z M300.9,26.8
		c0-0.7,0.7-0.9,1.7-0.9c0.9,0,2,0.2,2.5,0.6l0.1-1.5c-0.7-0.4-1.5-0.6-2.8-0.6c-2,0-3.3,1.1-3.3,2.7c0,1.4,1.2,2,2.3,2.4l1.4,0.4
		c0.7,0.2,1.1,0.5,1.1,0.9c0,0.7-0.7,1.1-1.7,1.1c-1.1,0-2.5-0.4-3-0.6l-0.1,1.5c0.6,0.4,2,0.6,3.2,0.6c2,0,3.3-1.1,3.3-2.6
		c0-1.3-0.8-1.9-2.3-2.4L302,28C301.5,27.7,300.9,27.6,300.9,26.8 M311,26h2.7v-1.5h-7.1V26h2.7v7.1h1.8L311,26L311,26z M320.5,27.6
		c0,0.9-0.7,1.5-1.5,1.5h-2.1v-3.2h2.1C319.8,25.9,320.5,26.5,320.5,27.6 M322.9,33.1l-2.3-2.8c0.9-0.5,1.7-1.4,1.7-2.7
		c0-2-1.4-3.1-3.2-3.1h-4v8.7h1.8v-2.6h2l2,2.6H322.9z M326.8,40.1c1.9,0,2.8,1.1,2.8,2.8c0,1.8-0.8,2.8-2.8,2.8H325v-5.7
		C325,40.1,326.8,40.1,326.8,40.1z M327,38.6h-3.8v8.7h3.8c2.7,0,4.4-1.7,4.4-4.4C331.4,40.3,329.9,38.6,327,38.6 M329.9,30.1h-3.1
		l1.5-3.8L329.9,30.1z M331,33.1h1.9l-3.6-8.7h-2l-3.6,8.7h1.9l0.6-1.7h4L331,33.1z M339.7,38.6h-6.4v8.7h6.5v-1.5H335v-2.3h4.2
		v-1.5H335v-1.8h4.7V38.6z M335.1,28.7c0-1.9,1.5-2.8,3.3-2.8c0.9,0,1.9,0.2,2.5,0.5l0.1-1.5c-0.7-0.4-1.7-0.6-2.7-0.6
		c-2.7,0-5,1.7-5,4.5c0,2.7,2.1,4.5,4.9,4.5c1.3,0,2.3-0.4,3-0.7l-0.2-1.5c-0.6,0.4-1.5,0.6-2.5,0.6
		C336.5,31.7,335.1,30.5,335.1,28.7 M343.1,52.7h-1.8v5.6c0,2.1,1.7,3.2,3.8,3.2c2,0,3.8-0.9,3.8-3.2v-5.6h-1.8v5.5
		c0,1.2-0.8,1.8-2.1,1.8c-1.2,0-2-0.6-2-1.8L343.1,52.7L343.1,52.7z M342.8,33.1h1.8v-8.7h-1.8V33.1z M347.3,49.7h-1.9l-0.9,2.1h1.4
		L347.3,49.7z M351.8,23.6l1.5-2.1h-1.9l-0.9,2.1H351.8z M353.8,28.7c0,1.7-1.2,2.8-2.8,2.8c-1.7,0-2.8-1.2-2.8-2.8s1.2-2.8,2.8-2.8
		C352.6,25.9,353.8,27.1,353.8,28.7 M355.6,28.7c0-2.6-1.9-4.5-4.6-4.5c-2.7,0-4.6,1.9-4.6,4.5s1.9,4.5,4.6,4.5
		C353.6,33.3,355.6,31.5,355.6,28.7 M356.5,58.9c0,0.6-0.5,1.1-1.2,1.1h-2.5v-2.3h2.5C356.1,57.7,356.5,58.2,356.5,58.9 M356.2,55.2
		c0,0.6-0.5,1.1-1.2,1.1h-2.1v-2.1h2C355.6,54.1,356.2,54.6,356.2,55.2 M358,55.1c0-1.4-1.2-2.4-2.7-2.4h-4v8.7h4.5
		c1.7,0,2.7-0.9,2.7-2.4c0-0.9-0.5-1.7-1.5-2C357.6,56.4,358,55.8,358,55.1 M364,33.1h1.5v-8.7h-1.8v5.9l-5-5.9h-1.5v8.7h1.8v-5.9
		L364,33.1z M360.2,61.4h6.4v-1.5h-4.7v-7.2h-1.8v8.8L360.2,61.4z M367.9,61.4h1.8v-8.7h-1.8V61.4z M373.3,57c0-1.9,1.5-2.8,3.3-2.8
		c0.9,0,1.9,0.2,2.5,0.5l0.1-1.5c-0.7-0.4-1.7-0.6-2.7-0.6c-2.7,0-5,1.7-5,4.5c0,2.7,2.1,4.5,4.9,4.5c1.3,0,2.3-0.4,3-0.7l-0.2-1.5
		c-0.6,0.4-1.5,0.6-2.5,0.6C374.6,59.9,373.3,58.8,373.3,57 M386.3,58.3h-3.1l1.5-3.8L386.3,58.3z M389.3,61.4l-3.6-8.7h-2l-3.6,8.7
		h1.9l0.6-1.7h4l0.6,1.7H389.3z"/>
	<g>
		<path class="st1" d="M41,21.1c-2.7-1.4-2.6,1-6.3,1.1l3.6-5.1l-5.5,3.8c1.7-4.2-0.6-4.3,1.4-6.5c-2.7,0.9-1.3,2.4-3.2,4.7
			c-0.1,0.1-0.2,0.2-0.3,0.4c0,0-0.1,0.1-0.1,0.1l-1.1-6.1L28.3,20c-1.7-4.2-3.5-2.6-3.6-5.6c-1.4,2.7,1,2.6,1.1,6.3l-5.1-3.6
			l3.8,5.5c-4.2-1.7-4.3,0.6-6.5-1.4c0.8,2.5,2.2,1.4,4.3,2.9c0.1,0.1,0.2,0.1,0.2,0.2c0.2,0.2,0.4,0.3,0.6,0.5L17,25.9l6.5,1.2
			c-4.2,1.7-2.6,3.5-5.6,3.6c2.4,1.2,2.6-0.6,5.2-1c1.9-1.6,4.1-2.5,6.4-2.5c2.4,0,4.6,0.9,6.5,2.6c2.6,0.6,3-0.9,4.8,0.9
			c-0.9-2.7-2.3-1.3-4.6-3.1c-0.1-0.1-0.2-0.2-0.3-0.3c0,0,0,0-0.1-0.1c-0.1-0.1-0.1-0.1-0.2-0.2l6.1-1.1l-6.5-1.2
			C39.6,23,38,21.2,41,21.1"/>
		<path class="st0" d="M17.6,44.1L17.6,44.1c0,9.3,5.3,16.7,11.8,16.8c0,0,0.1,0,0.1,0V44.1H17.6z"/>
		<path class="st2" d="M29.5,44.1v12.1v4.6v0.1c0.1,0,0.1,0,0.1,0c6.7,0,12-7.4,12-16.7c0,0,0-0.1,0-0.1h-0.1H29.5z"/>
		<path class="st2" d="M29.6,27.2C23,27.3,17.7,34.8,17.7,44h11.9L29.6,27.2"/>
		<path class="st0" d="M29.5,44.1h12.2c0-9.2-5.4-16.8-12.1-16.8c0,0,0,0-0.1,0V32V44.1z"/>
		<path class="st3" d="M16.4,44.2C16.4,44.2,16.4,44.2,16.4,44.2C16.4,44.2,16.4,44.2,16.4,44.2"/>
		<path class="st3" d="M16.4,44.1C16.4,44.1,16.4,44.1,16.4,44.1L16.4,44.1C16.4,44.1,16.4,44.1,16.4,44.1"/>
		<polygon class="st3" points="16.3,41.5 16.4,41.4 16.4,41.4 		"/>
		<path class="st0" d="M20.8,36.2l-1.4,4.7c0,0,0,0,0,0.2c1.7,1.9,3.3,0.2,3.3,0c0-0.1,0-0.2,0-0.2l-1.3-4.7h-0.1l1.2,4.8h-1.3
			l-0.1-4.8h-0.1L21,41h-1.4l1.4-4.8H20.8z M24.2,33c-0.2,0-0.3-0.1-0.3-0.3c0-0.2,0.1-0.3,0.3-0.3c0.2,0,0.3,0.1,0.3,0.3
			C24.5,32.9,24.3,33,24.2,33 M24.6,36.2h3.2v-0.6h-0.9h0c-0.9,0.6-1.9,0.1-2.4,0v0h-0.1c0-0.2-0.2-2.3-0.2-2.3h-0.1
			c0.3,0,0.5-0.3,0.5-0.6c0-0.3-0.2-0.6-0.6-0.6c-0.3,0-0.6,0.3-0.6,0.6c0,0.3,0.2,0.5,0.5,0.6H24c0,0,0,1.8-0.1,2.2
			c-1.6,0.4-1.8,0.3-2.5,0c-0.2,0-0.7,0-0.7,0v0.7h3.1v0.9l0.4,1.4l0.3-1.4V36.2z M28.9,41.1c0-0.1,0-0.2,0-0.2l-1.3-4.7h-0.1
			l1.2,4.8h-1.3l-0.1-4.8h-0.1L27.1,41h-1.4l1.4-4.8h-0.2l-1.4,4.7c0,0,0,0,0,0.2C27.2,43,28.8,41.3,28.9,41.1"/>
		<path class="st0" d="M39.2,48.5c-0.1-0.6-0.3-0.5-0.8-0.4c-0.4,0-0.6-0.1-1-0.1c-0.7,0.1-1.2,0.4-2,0.4c-1.9-0.2-1.8-0.5-2.1-0.6
			c-0.4,0-0.6,0.1-0.9,0.2h-0.1c0-0.2,0-0.4-0.1-0.4c-0.2-0.1-0.4-0.1-0.6-0.1c0.2,0.1,0.5,0.1,0.4,0.3c-0.2,0.3-0.7,0.2-0.8,0.2
			L31,47.9c-0.1,0-0.3,0-0.4,0c-0.1,0-0.2,0.1-0.2,0.2c-0.5,0-0.4-0.5-0.4-0.8c-0.2,0.4-0.2,0.6-0.1,0.9l0.3,0.3l-0.1,0.1l-0.3,0.1
			c0.2,0.2,0.3,0.2,0.6,0.2l0,0.4l-0.1,0.1c0,0.3,0.1,0.4,0.3,0.5c0.5,0,0.9,0.1,1.1,0.6c0.4,0.3,0.6,0.6,0.8,1.2
			c0.1,0.1,0.2,0.1,0.3,0.2h0c0,0,0,0,0,0c0.2,0.2,0.2,0.4,0.2,0.7l0,0.2l-0.2,0.2c-0.1,0.1-0.2,0.3-0.1,0.3c0,0,0.1,0.1,0.2,0.1
			l0.1,0c0.2-0.1,0.2-0.2,0.3-0.4l0-0.3l0-0.3l0.1-0.1l0.1,0.1v0.2L33.4,53c-0.2,0.3-0.3,0.5-0.3,0.6c0.1,0,0.2,0,0.4,0l0.1-0.2
			c0.1-0.3,0-0.6,0-0.8l0.1-0.4l0.1-0.3c0.5-0.1,0.9-0.1,1.3-0.2c0.5-0.1,0.4-0.7,1.7-0.8h0c0.1,0.5,0.3,0.7,0.5,1.2l0.1,0.1l0,0.2
			c-0.1,0.3-0.3,0.5-0.4,0.8l-0.2,0.1l0,0.1l-0.1,0.1l0.1,0.2c0.2,0,0.3,0,0.5-0.1l0.1-0.1c0.2-0.3,0.2-0.4,0.2-0.8l0.2-0.3l0.2-0.2
			l0.1-0.1c0.1,0.1,0.1,0.1,0.2,0.2c0.2,0.4,0.3,0.8-0.1,1.2c-0.1,0.1-0.2,0.3-0.3,0.3l0.2,0.1l0.3,0c0.3-0.1,0.5-0.3,0.4-0.6
			c-0.1-0.3-0.1-0.5-0.1-0.7c0.1-0.3,0.1-0.4-0.1-0.7l0.1-0.2l0-0.3l0.1-0.4l0-0.4l0.1-0.5l0.1-0.3V49l0-0.2l-0.2-0.3l-0.1-0.1
			l0.1-0.1c0.2,0,0.2,0,0.3,0.2c0.1,0.8-0.1,1.9-0.2,2.7l-0.2,0.3c0.2,0.3,0.2,0.4,0.1,0.7v0.2l0.1,0.2c0.2-0.5,0.3-0.8,0.1-1.3
			C39.1,50.4,39.3,49.4,39.2,48.5"/>
		<path class="st2" d="M27.4,50.2c0,0.2-0.1,0.4-0.2,0.5c0,0.1,0.1-0.1,0.2-0.1c-0.1,0.2-0.1,0.6-0.1,0.9c0,0,0-0.1,0.1-0.2
			c0.1,0.5,0.4,0.8,0.6,1.1c0,0-0.1-0.1-0.1-0.2c0.1,0.2,0.3,0.3,0.5,0.4c0-0.1-0.3-0.3-0.3-0.4c0.1-0.1,0.1,0.1,0.3,0.1
			c-0.5-0.4-0.1-1.2-0.1-1.9c0-0.1,0.1,0.1,0.1,0.1c0-0.2-0.1-0.4-0.2-0.6c0-0.1,0.1,0.1,0.1-0.1c-0.3-0.3-0.4-1-0.9-1
			c-0.2,0-0.3,0.1-0.5,0.1c-0.1,0-0.3-0.2-0.5-0.3c-0.3-0.2-0.7-0.4-1.2-0.2c-0.4,0.1-0.7,0.2-1.2,0.3c-0.6,0-1.1-0.1-1.4-0.4
			c-0.2-0.2-0.2-0.4-0.4-0.6c-0.4-0.6-1.3-1.5-2.3-1c-0.1-0.1-0.3-0.3-0.4-0.2c0,0.1,0,0.2,0,0.2s-0.1-0.1-0.2,0
			c0,0.1,0.3,0.2,0.3,0.4c0,0.1-0.1,0.3-0.1,0.4c0,0.1,0,0.1,0,0.2c0,0.6-0.3,1-0.1,1.4c0.6,0.2,0.6-0.5,0.9-0.8
			c0.1,0,0.2,0,0.2-0.1c0.4,0.6-0.1,1.8,0.4,2.4c-0.1,0.2-0.3,0.3-0.4,0.4c-0.1,0.1-0.4,0.3-0.4,0.4c0,0.2,0.1,0.4,0.2,0.6
			c0.1,0.2,0.1,0.4,0.2,0.6c0.3,0.1,0.3,0.4,0.7,0.4c0.1-0.2-0.1-0.4-0.1-0.6c-0.1,0-0.2,0-0.2,0.1c-0.1-0.3-0.4-0.5-0.3-0.9
			c0.1-0.3,0.7-0.2,0.9-0.4c0,0.3,0.3,0.5,0.3,0.8c0,0.1,0,0.2,0,0.2c0.1,0.3,0.3,0.6,0.3,0.9c0,0.2-0.2,0.3-0.1,0.4
			c-0.2,0.1-0.3,0.3-0.4,0.5c0.2,0.1,0.4,0.1,0.6,0c0.1-0.2,0-0.5,0.2-0.6c-0.2-0.7-0.1-1.5-0.1-2.3c0.8,0,1.4-0.1,1.9-0.4
			c0.1,0.4,0.8,0.5,0.7,1c0,0.2-0.5,0.6-0.6,0.8c-0.1,0.1-0.2,0.2-0.3,0.3c0,0.3-0.1,0.5-0.1,0.9c0.3,0.1,0.5-0.1,0.6-0.3
			c0-0.1-0.1-0.2-0.2-0.3c0-0.1,0.2-0.1,0.2-0.2c0-0.5,0.8-0.6,1-1c0.1-0.3-0.1-0.4-0.2-0.8c0.4,0.1,0.6,0.6,1,0.7
			c0.3,0.3,0.6,1,0.5,1.6c0,0.2-0.3,0.4-0.4,0.7c0.1,0.2,0.4,0.2,0.6,0.1c0.1-0.3,0-0.6,0.2-0.8c-0.2-0.5-0.1-1.1-0.2-1.7
			c0-0.1-0.2-0.2-0.3-0.3c-0.6-0.7,0.1-1.3,0-2.2c0.2,0.1,0.3,0.2,0.3,0.4c0.1,0,0-0.1,0-0.1c0.2,0.2,0.1,0.6,0,0.8
			C27.3,50.4,27.3,50.2,27.4,50.2"/>
		<path class="st2" d="M35.7,35.8c0-0.1,0.1-0.1,0.1-0.2c0-0.1-0.1-0.2-0.2-0.2c-0.1,0-0.2,0.1-0.2,0.2c0,0,0,0.1,0.1,0.1H35.7z
			 M35.9,36c0-0.1,0-0.1-0.1-0.1h-0.1h-0.3h-0.2c0,0-0.1,0.1-0.1,0.1c0,0.1,0,0.2,0.1,0.2l0.6,0C35.9,36.2,35.9,36,35.9,36 M35.7,37
			h-0.4v-0.3c0-0.1,0.1-0.2,0.2-0.2c0.1,0,0.2,0.1,0.2,0.2V37z M40.6,40.5c0.3,0,0.6,0.1,0.9,0.2c0-0.1-0.1-0.3-0.1-0.4
			c-0.3-0.1-0.5-0.2-0.8-0.2c-0.3,0-0.5,0.1-0.8,0.2c-0.7-0.7-2.6-2.6-2.9-2.9C36.6,37,36.4,37,36.4,37h-0.1v-0.7h0.2V36h-0.4v0.1
			H35V36h-0.4v0.4h0.2V37h0.1h0c-0.2,0-0.6,0.3-0.6,0.3l-2.9,2.9c-0.2-0.1-0.4-0.1-0.7-0.1c-0.4,0-0.8,0.2-1.2,0.2v0.4
			c0.4,0,0.8-0.2,1.2-0.2c0.4,0,0.8,0.2,1.2,0.2c0.4,0,0.8-0.2,1.2-0.2c0.4,0,0.8,0.2,1.2,0.2c0.4,0,0.8-0.2,1.2-0.2
			c0.4,0,0.8,0.2,1.2,0.2c0.4,0,0.8-0.2,1.2-0.2c0.4,0,0.8,0.2,1.2,0.2C39.8,40.7,40.2,40.5,40.6,40.5 M40.6,41.2
			c0.4,0,0.7,0.2,1.1,0.2c0-0.1,0-0.3-0.1-0.4c-0.3-0.1-0.6-0.2-1-0.2c-0.4,0-0.8,0.2-1.2,0.2c-0.4,0-0.8-0.2-1.2-0.2
			c-0.4,0-0.8,0.2-1.2,0.2c-0.4,0-0.8-0.2-1.2-0.2c-0.4,0-0.8,0.2-1.2,0.2c-0.4,0-0.8-0.2-1.2-0.2c-0.4,0-0.8,0.2-1.2,0.2
			c-0.4,0-0.8-0.2-1.2-0.2c-0.4,0-0.8,0.2-1.2,0.2v0.4c0.4,0,0.8-0.2,1.2-0.2c0.4,0,0.8,0.2,1.2,0.2c0.4,0,0.8-0.2,1.2-0.2
			c0.4,0,0.8,0.2,1.2,0.2c0.4,0,0.8-0.2,1.2-0.2c0.4,0,0.8,0.2,1.2,0.2c0.4,0,0.8-0.2,1.2-0.2c0.4,0,0.8,0.2,1.2,0.2
			C39.8,41.5,40.2,41.2,40.6,41.2 M40.6,42c0.4,0,0.8,0.2,1.2,0.2c0-0.1,0-0.3,0-0.4c-0.4,0-0.7-0.2-1.1-0.2c-0.4,0-0.8,0.2-1.2,0.2
			c-0.4,0-0.8-0.2-1.2-0.2c-0.4,0-0.8,0.2-1.2,0.2c-0.4,0-0.8-0.2-1.2-0.2c-0.4,0-0.8,0.2-1.2,0.2c-0.4,0-0.8-0.2-1.2-0.2
			c-0.4,0-0.8,0.2-1.2,0.2c-0.4,0-0.8-0.2-1.2-0.2c-0.4,0-0.8,0.2-1.2,0.2v0.4c0.4,0,0.8-0.2,1.2-0.2c0.4,0,0.8,0.2,1.2,0.2
			c0.4,0,0.8-0.2,1.2-0.2c0.4,0,0.8,0.2,1.2,0.2c0.4,0,0.8-0.2,1.2-0.2c0.4,0,0.8,0.2,1.2,0.2c0.4,0,0.8-0.2,1.2-0.2
			c0.4,0,0.8,0.2,1.2,0.2C39.8,42.2,40.2,42,40.6,42 M40.6,42.7c0.4,0,0.8,0.2,1.2,0.2c0-0.1,0-0.3,0-0.4c-0.4,0-0.8-0.2-1.2-0.2
			c-0.4,0-0.8,0.2-1.2,0.2c-0.4,0-0.8-0.2-1.2-0.2c-0.4,0-0.8,0.2-1.2,0.2c-0.4,0-0.8-0.2-1.2-0.2c-0.4,0-0.8,0.2-1.2,0.2
			c-0.4,0-0.8-0.2-1.2-0.2c-0.4,0-0.8,0.2-1.2,0.2c-0.4,0-0.8-0.2-1.2-0.2c-0.4,0-0.8,0.2-1.2,0.2v0.4c0.4,0,0.8-0.2,1.2-0.2
			c0.4,0,0.8,0.2,1.2,0.2c0.4,0,0.8-0.2,1.2-0.2c0.4,0,0.8,0.2,1.2,0.2c0.4,0,0.8-0.2,1.2-0.2c0.4,0,0.8,0.2,1.2,0.2
			c0.4,0,0.8-0.2,1.2-0.2c0.4,0,0.8,0.2,1.2,0.2C39.8,42.9,40.2,42.7,40.6,42.7 M41.8,43.7c0-0.1,0-0.3,0-0.4
			c-0.4,0-0.8-0.2-1.2-0.2c-0.4,0-0.8,0.2-1.2,0.2c-0.4,0-0.8-0.2-1.2-0.2c-0.4,0-0.8,0.2-1.2,0.2c-0.4,0-0.8-0.2-1.2-0.2
			c-0.4,0-0.8,0.2-1.2,0.2c-0.4,0-0.8-0.2-1.2-0.2c-0.4,0-0.8,0.2-1.2,0.2c-0.4,0-0.8-0.2-1.2-0.2c-0.4,0-0.8,0.2-1.2,0.2v0.4
			c0.4,0,0.8-0.2,1.2-0.2c0.4,0,0.8,0.2,1.2,0.2c0.4,0,0.8-0.2,1.2-0.2c0.4,0,0.8,0.2,1.2,0.2c0.4,0,0.8-0.2,1.2-0.2
			c0.4,0,0.8,0.2,1.2,0.2c0.4,0,0.8-0.2,1.2-0.2c0.4,0,0.8,0.2,1.2,0.2c0.4,0,0.8-0.2,1.2-0.2C41,43.5,41.4,43.7,41.8,43.7"/>
		<path class="st0" d="M10.9,41.2L10.9,41.2l0.2,0.1l0.2,0.1l0.1,0.2l0.1,0.2v0.2l0,0.2c0-0.1,0-0.2,0.1-0.3l-0.1-0.2l-0.1-0.2
			l-0.2-0.2L11,41.1l0,0l0,0V41c0-0.4-0.3-0.7-0.6-0.7c-0.3,0-0.6,0.3-0.6,0.7c0,0.4,0.3,0.7,0.6,0.7C10.6,41.6,10.8,41.5,10.9,41.2
			 M13.9,34l-0.1-0.4l-0.2-0.1v-0.3v-0.3v-0.4l0-0.3l-0.1-0.4l-0.2,0.5l-0.1,0.3L13,33.1l-0.1,0.2l-0.1,0.2l-0.1,0.3l-0.1,0.1
			L12.5,34l-0.1,0.1l-0.1,0.3l-0.1,0.2l0,0.2l-0.1,0.3l0,0.3L12,35.9l0.1,0.3L12,36.3L12,36.6l0.1,0.4v0.3l0.1,0.4l0.1,0.2l-0.1,0.2
			L12,38.5l0,0.4l0,0.2l0,0.3l-0.1,0.2l-0.1,0.1l0,0.1l0,0.1l0.1,0.2l0.1,0.1l0,0l0,0l-0.2-0.4l0.1-0.4V39l0.1-0.4l0.1-0.3l0,0.1
			L12,38v-0.4l-0.1-0.5l-0.1-0.4l-0.2-0.6l-0.2-0.3l-0.2-0.2l-0.1-0.3L11,34.8l-0.2-0.4l-0.3-0.5v0l-0.1-0.3l0-0.1l0,0l0-0.1l0,0.4
			l-0.1,0.5l-0.1,0.2l0,0.2l-0.1,0.2v0.2l0.1,0.2l0,0.1l0,0.2l-0.1,0.1v0.2V36v0.2l0.1,0.1l-0.1,0.1v0.1l0,0.2l0,0.1l-0.1,0.4
			l0.1,0.1v0.1l0.1,0.2V38l0,0.2l0.2,0.3l0.1,0.2l0.2,0.4l0.2,0.3l0.3,0.3l0.3,0.2l0.1,0.3l0.1,0.3v0.4V41l0.1,0.2l0.1,0.1l0,0
			l0.2-0.2l0-0.1v-0.2l0-0.4l0.1-0.3l0.3-0.4l0.2-0.2l0.7-0.1l0.5-0.2l0.4-0.1l0.4-0.2l0.4-0.1l0.3-0.1l0.5-0.4l0.7-0.4l0.5-0.5
			l0.3-0.4l0.3-0.4l0.5-0.5L18,36l0.3-0.4l-0.5,0.2h-0.2l-0.4,0.1l-0.4,0l-0.2,0l-0.4,0.2l-0.3,0l-0.4,0.1l-0.5,0.1l-0.2,0.2l-0.1,0
			l-0.3,0.3l-0.2,0.1c0,0-0.2,0.2-0.3,0.2c-0.1,0-0.2,0.1-0.2,0.1l-0.2,0.2l-0.1,0.1l0,0.1l-0.1,0.1l-0.1,0l-0.1,0.3L13,38.2
			l-0.1,0.1l-0.2,0.3l-0.1,0.3l-0.1,0.3l0,0.2l-0.3,0.4l0.1-0.5l0.1-0.3l0.2-0.3l0.1-0.4l0.3-0.4l0.3-0.3l0.3-0.5l0.1-0.3l0.2-0.3
			l0-0.4l0.1-0.6L14,35.1l0,0.2l0.1-0.1l0.3-0.2l0,0v0c0.1,0.3,0.3,0.4,0.6,0.4c0.4,0,0.6-0.3,0.6-0.6c0-0.3-0.3-0.6-0.6-0.6
			c-0.4,0-0.6,0.3-0.6,0.6c0,0,0,0.1,0,0.1l-0.3,0.2L14,35.1l0.1-0.7L13.9,34z M20.3,33l0.2-0.1l-0.3-0.2L20,32.7l-0.1-0.1l-0.1-0.1
			l0,0l-0.1-0.1l-0.1-0.1l-0.2-0.1l-0.2-0.1l-0.1-0.1l-0.2,0l-0.2,0L18.7,32l-0.2-0.1l-0.2-0.1l-0.3,0l-0.4,0l-0.4,0l-0.5,0
			l-0.2,0.1L16.1,32l-0.3,0.1l-0.2,0.2l-0.1,0.1l-0.2,0.2L14.9,33l-0.2,0.3l0.1-0.3l0.3-0.4l0.1-0.1l0.5-0.6l0.4-0.4l0.6-0.3
			l0.2-0.1l0.3-0.2l0.1-0.2l0.2,0l0.7-0.7l0.5-0.7l0.5-0.9l0.3-0.7l0.4-0.4l-0.4,0.1l-0.4,0.1l-0.1,0.1L19,27.8l-0.2,0L18.4,28
			L18,28.1L18,28.2l-0.2,0l-0.2,0.2l-0.2,0.1l-0.1,0v0.1l-0.2,0.1l-0.1,0.2l-0.3,0.2v0.3l-0.1,0.1l-0.2,0.2l-0.2,0.3L16.1,30l0,0.2
			l-0.2,0.2l-0.1,0.2l0,0.1l-0.1,0.2v0.3l-0.1,0.5l-0.3,0.5l-0.3,0l-0.1,0.1l-0.1,0.1l0-0.1L15,32l0.1-0.3l0.1-0.2l0.1-0.1l0.1-0.3
			v-0.3v-0.4l0.1-0.3l0-0.5l-0.1-0.2v-0.2L15.2,29l-0.1-0.3l0-0.1l-0.3-0.2l-0.2-0.2l-0.1-0.2l-0.1,0.3l-0.2,0.2l-0.1,0.1L14,28.8
			L14,29l0,0.3l-0.1,0.3l0,0.4l0.1,0.1l0,0.4l0.1,0.5l0.1,0.2v0.3l0.2,0.3l0.2,0.9l-0.1,0.1l-0.1,0.3l-0.2,0.2l-0.1,0.2L14,33.8
			l-0.1,0.1V34l0.1,0.2l0.2-0.2l0.2-0.3l0.1-0.1l0.2-0.1l0.2,0l0.3,0l0.3-0.1l0.2,0.1l0.3,0.1h0.4l0.2,0.1l0.3,0l0.3,0l0.3,0.1
			l0.3,0l0.3,0h0.4l0.1-0.2h0.2H19l0.2-0.1l0.3-0.1l0.2-0.2l0.3-0.1L20.3,33z M16.4,44.1C16.4,44.1,16.4,44.1,16.4,44.1
			C16.4,44.1,16.4,44.1,16.4,44.1C16.4,44.1,16.4,44.1,16.4,44.1 M35.7,68.3L35.7,68.3L35.7,68.3L35.7,68.3z M47.5,39.9L47.5,39.9
			l-0.1,0.3l0,0h0L47.5,39.9l0-0.2l-0.1-0.3l-0.1-0.3l0-0.2l0-0.4l0.1-0.2c0.1,0.1,0.3,0.1,0.4,0.1c-0.1,0.5,0,0.9-0.1,1.4
			L47.5,39.9z M47.2,38.1L47,38.4v-0.5c0,0,0-0.1,0-0.1C47.1,37.9,47.1,38,47.2,38.1C47.2,38.1,47.2,38.1,47.2,38.1 M47.4,40.2
			L47.4,40.2L47.4,40.2L47.4,40.2z M44.2,31.1L44.1,32l0,0c0-0.2,0-0.5,0-0.7C44.2,31.3,44.2,31.2,44.2,31.1 M47.7,48.6l-0.1,0.1v0
			L47.7,48.6z M47.3,51.5l0.2-0.1l0.1-0.1c0,0,0,0.1,0,0.1c0.2,0.2,0.5,0.2,0.8,0.1c-0.6,0.6-1.1,1.2-1.7,1.9
			C46.2,54,45.6,55,45.6,55l0.4-0.8l0.1-0.1l0.2-0.3l0.1-0.3l0.1-0.2l0.1-0.3l0.1-0.2l0.1-0.2l0.1-0.2l0-0.2l0-0.2l0.1-0.2v-0.1
			l0.1-0.1L47.3,51.5z M44.1,57.3L44.1,57.3L44.1,57.3z M44.3,56.4l-0.3,0.8v0l0-0.4l0.1-0.4l0.1-0.2V56.4z M43.9,56.6l-0.1,0.6
			l-0.1,0.2l0-0.6l-0.1-0.6l0-0.5l0-0.3l-0.2-0.5l0.3,0.6l0.1,0.4l0.1,0.3L43.9,56.6z M43.7,57.9L43.7,57.9L43.7,57.9L43.7,57.9z
			 M42.7,57.3L42.7,57.3L42.7,57.3L42.7,57.3z M39.1,62.2l-0.2,0.4L38.7,63l-0.3,0.3l-0.2,0.1l-0.1,0.2l0.1-0.2l0.2-0.3l0.2-0.3
			l0.2-0.3L39.1,62.2z M38.2,61.5v0.3l0,0.6v0.4l-0.1,0.5l-0.2,0.4l-0.1,0l-0.6,0.3l-0.8,0.4l0,0l0,0L35.5,65l0,0l-0.2,0.1l0.3-0.2
			l0,0L35.6,65l0,0l0.9-0.6l0.2-0.2l0.1-0.2l0.3-0.4l0.4-0.7l0.4-0.5l0.2-0.5L38.2,61.5z M35.4,64.4l0,0.4L35.4,65l0.1-0.2v0l-0.1,0
			L35,64.9l0,0.1l0,0l0,0l0.1-0.3l0.1-0.3l0.2-0.3l0.1-0.2V64.4z M34.8,65.1L34.8,65.1L34.8,65.1L34.8,65.1z M35.2,65.4L35.2,65.4
			L35.2,65.4z M35.2,65.5L35.2,65.5l0.3-0.1h0.1l0.3-0.2l0.1-0.1l0.3,0h0.4c-0.1,0.2,0,0.4,0.1,0.6c-0.7-0.1-1.2-0.1-1.5-0.1
			L35.2,65.5z M37,64.4L37,64.4L37,64.4z M36.8,65L36.8,65l-0.5-0.1l0.2-0.2l0.2-0.1l0.3-0.1L37,64.5l0.1,0.1l0.2,0.2
			c0.1,0,0.1,0.1,0.2,0.1C37.2,64.8,36.9,64.8,36.8,65L36.8,65z M37.7,63.8l0.1-0.1L37.7,63.8L37.7,63.8z M37.7,64.2L37.7,64.2
			L37.7,64.2z M32.7,64.3c-0.5,0.4-0.9,0.9-1.4,1.2l-0.2,0.1l-0.2,0.1l-0.1,0.1l0.2-0.5l0.4-0.7l0.3-0.6l0.3-0.4l0.4-0.2l0.4-0.2
			l-0.4,0.2h0C32.9,63.6,32.9,64.1,32.7,64.3 M33,63.2l0.4-0.2l0.4,0L34,63l0.1,0.2l0.1,0.3l0.1,0.4l-0.1,0.4l-0.1,0.3L33.8,65
			l-0.2,0.2l-0.2,0.2L33,65.6l0,0l0,0l0.3-0.2l0.2-0.2l0.2-0.2l0.3-0.4l0.1-0.3l0.1-0.4l-0.1-0.4l-0.1-0.3L34,63L33.8,63l-0.4,0
			L33,63.2z M28.5,65.7l-0.1-0.1c-0.8-0.7-1.2-1.1-1.4-2.1c0.6,0.6,0.9,1.2,1.4,1.9L28.5,65.7z M19.7,61.8l-0.2-0.1l-0.2-0.1
			l0.2,0.1L19.7,61.8z M19.1,60.9l-0.2-0.2l-0.3-0.3l-0.2-0.3L18,59.8l-0.2-0.3l0-0.2l0.1-0.4l0,0v0C17.9,59,18,59,18.1,59
			c0.2,0,0.3-0.1,0.4-0.2V59l0.1,0.5l0.2,0.5l0,0.1l0.1,0.3l0.2,0.3L19.1,60.9z M18.6,58.7L18.6,58.7C18.6,58.7,18.6,58.7,18.6,58.7
			L18.6,58.7z M17.1,58.5L17.1,58.5l-0.2-0.1L16.5,58l-0.1-0.1l0,0v0l0.1-0.3l0.1-0.4l0.1-0.2l-0.1-0.1l0.2,0.2l0,0.4l0.2,0.3
			l0.1,0.3L17.1,58.5z M16.6,56.4l-0.2-0.2L16.6,56.4z M16.3,57.6L16.3,57.6l-0.4-0.5l-0.5-0.7l-0.2-0.3l0-0.2l0.1-0.3l0.2-0.4
			l0,0.1l0.1,0.3l0.1,0.2V56l0.1,0.2l0.2,0.4l0.2,0.4L16.3,57.6L16.3,57.6z M12.2,48.3l-0.1,0.3l0-0.1v0l0-0.1L12,48.1l0-0.1
			l0.1-0.4l0.3-0.5l0.2-0.3l0.4-0.4l-0.2,0.2L12.7,47l-0.1,0.1l0,0.3l-0.2,0.2l0,0.5L12.2,48.3z M12,46.6l0,0.3l0,0.3l-0.2,0.5l0,0
			l-0.1-0.3l0.1-0.4L12,46.6L12,46.6z M11.6,48.7l0,0.2l-0.3-0.4l-0.2-0.3L11,47.8l-0.2-0.4L10.5,47l-0.2-0.3l0.3,0.2l0,0l0.4,0.5
			l0.3,0.5l0.1,0.2l0.1,0.2l0.1,0.2L11.6,48.7z M11.3,46.7l-0.1,0.5l0-0.1l-0.1-0.3v-0.6L11.3,46.7L11.3,46.7z M17,60.5L17,60.5
			L17,60.5L17,60.5z M27.1,70.9l-0.2,0.2l-0.3,0.1l0.3-0.1L27.1,70.9z M25.4,70.8L25.4,70.8L25.4,70.8L25.4,70.8z M24.2,68
			c0,0-0.1,0.1-0.1,0.1h0C24.1,68.1,24.1,68.1,24.2,68 M30.9,67.8L30.9,67.8l1.2,0.4l0.5,0.1l0,0.1c-0.1,0.4-0.5,1-0.5,1
			c0,0.1,0,0.2-0.1,0.3l-0.1,0.1l0-0.1C31.6,69.2,31.2,68.5,30.9,67.8 M44.2,60.4l0.6,0h0h0L44.2,60.4z M48.4,47.7L48.4,47.7
			L48.4,47.7L48.4,47.7z M48.4,46.2L48.3,46v-0.2l0.1-0.2l0.2-0.3l0.2-0.4l0.2-0.4l0.2-0.5l0.2-0.5l0.2-0.6l0.2-0.8l0.1-0.7l0.1-0.6
			v-0.4l0.1-0.7l0-0.5l-0.5,0.8l-0.3,0.6L48.8,41l-0.2,0.6l-0.1,0.4l-0.1,0.3l0,0.3l0-0.5l-0.2-0.5l0.1,0.1l0-0.3l0.1-0.5l0.2-0.3
			l-0.1-0.1l-0.1,0.2l-0.1,0.3L48,41.2l0.1,0.3l-0.2-0.6l-0.3-0.4l0-0.1l0,0v-0.1l0.2-0.5c1.3-2.1,2.2-3.6,1.9-6.1
			c-0.4,1.1-1,2-1.5,3.1c-0.2-0.1-0.5,0-0.8,0.2c-0.1,0.1-0.2,0.3-0.3,0.4c0.1-0.8,0.3-1.7,0.4-2.5c0.2-1.5-0.1-2.7-0.6-4.2l0,0v0
			c0,0,0-0.1,0-0.1c-0.3,1.4-0.8,3.8-0.7,4.2l0.1,0.2v0L46.2,35c-0.6-1.3-1.3-2.6-1.9-4c0-0.1,0-0.1,0.1-0.2
			c0.7-1.4,0.9-2.2,0.7-3.8L45,25.9c-0.4,1.2-1,2.3-1,3.5c0,0.7,0.1,1.3,0,2c-0.1-0.7-0.1-1.4-0.3-2.1c-0.3-1.2-1.2-1.8-2-2.7
			c0.2,0.7,0.4,1.3,0.7,2c0.4,0.8,0.9,1.4,1.2,2.2c0.1,0.3,0.2,0.6,0.3,0.9c-0.5-0.9-1.2-2-2.2-2.4c-0.6-0.3-1.2-0.6-1.9-0.8
			c0.4,0.5,0.8,1,1.2,1.5c0.7,0.7,1.4,0.7,1.6,0.8c0.4,0.2,0.7,0.5,1,0.8c0.1,0.3,0.1,0.6,0.3,0.9l0.2,0.2l0,0.2l0,0.3
			c-0.1-0.1-0.2-0.2-0.3-0.2c0.1-0.3,0-0.6-0.3-0.9c-0.4-0.3-0.8-0.3-1.1-0.1L42.4,32c-0.1,0.3,0,0.6,0.3,0.9
			c0.4,0.3,0.9,0.3,1.1,0.1c0,0,0,0,0,0l0.4,0.4l0.1,0.3l0.3,0.8l0.1,0.3L44,34.3l-0.7-0.5l-0.5-0.3l-0.9-0.6l0.7,1.2l0.6,1l0.1,0.1
			L43.1,35l-1.3-0.4l-1.4-0.4c1.5,1.6,3,2.5,5.2,3.2c0.1,0.1,0.3,0.2,0.4,0.3l0.5,0.4l0.2,0.1l0-0.1l0,0l-0.1,0l-0.1-0.2l-0.1-0.2
			l-0.1-0.2L46,37.1l0.2,0.1l0,0l0.2,0.3l0.2,0.4l0.1,0.2l0.2,0.5l-0.3-0.1l-0.4-0.1l0.1,0c-0.1-0.3-0.4-0.5-0.8-0.5
			c-0.4,0-0.8,0.3-0.8,0.6c0,0.3,0.4,0.6,0.8,0.6c0.4,0,0.8-0.3,0.8-0.6l0.1,0l0.3,0.1l0.3,0.3l0.3,0.5l0.1,0.3V40l-0.1-0.1
			l-0.3-0.5L46.7,39l-0.1,0.4l0,0.3l0.1,0.5l0.1,0.4l0.1,0.5l0.2,0.5l0.1,0.6l-0.1-0.5l-0.3-0.4c-0.5-0.7-1.1-1.2-1.6-1.9
			c0.3,1.1,0.6,2.1,1,3.2l0.1,0.3l0,0c-0.7-0.8-1.3-1.6-2.2-2.3c0.4,1.2,0.9,2.3,1.5,3.2l0.3,0.5l0.1,0.1l-0.4-0.2l-0.9-0.5l-1-0.5
			L43.1,43l0.3,0.5l0.3,0.5l0.3,0.4l0.4,0.4l0.3,0.3l0.4,0.2l0.5,0.3l0.6,0.2l0.2,0.1l1,0.8l0,0l0.1,0.5l0,0l0,0l-0.1,0.2l0,0.2V48
			v0.2l-0.1,0.4v0h0l0-0.2l-0.1-0.2l-0.1-0.3L47,47.5l-0.2-0.3l-0.2-0.4l-0.3-0.3l-0.2-0.2L45.9,46l-0.3-0.3l-0.4-0.2l-0.3-0.2
			L44.6,45l-0.3-0.2L44,44.6l-0.3-0.2l-0.4-0.4l0.1,0.2l0.2,0.3l0.1,0.3l0.2,0.3l0.3,0.7l0.2,0.4l0.3,0.4l0.2,0.3l0.3,0.3l0.3,0.4
			l0.3,0.4l0.3,0.3l0.3,0.3l0.3,0.4l0.3,0.3l0.3,0.3l0,0.3l-0.1,0.4l0,0.3v0L47,50.1l-0.1-0.3l-0.2-0.4L46.5,49l-0.3-0.4l-0.3-0.4
			L45.6,48l-0.2-0.2l-0.3-0.2l-0.4-0.3l-0.3-0.2L44,46.9l-0.3-0.1l-0.3-0.2l-0.3-0.3l-0.2-0.1l0.2,0.2l0.2,0.3l0.3,0.5l0.3,0.4
			l0.3,0.4l0.3,0.4l0.4,0.4l0.3,0.2l0.5,0.3l0.5,0.3l0.1,0.1l0.4,0.3l0.2,0.2l0.2,0.5l0.1-0.3L47,50.8L46.9,51l-0.2,0.4l-0.1-0.2
			L46.5,51l-0.1-0.2l0-0.2l0,0.1c0.1-0.2,0-0.6-0.2-0.8c-0.3-0.3-0.7-0.4-1-0.2c-0.2,0.2-0.2,0.7,0.1,1c0.3,0.3,0.7,0.4,1,0.2
			c0,0,0,0,0,0v0l0.1,0.2l0.1,0.3l0.1,0.3l-0.1,0.5l-0.1,0.1l-0.1,0.2l0,0.4L46.2,53l-0.3,0.7l-0.5,1l-0.1,0.1l0.1-0.5l0.1-0.5v-0.5
			v-0.5l0-0.5l-0.1-0.5l-0.2-0.6L45,50.4l-0.2-0.5v0.5l0,0.5l-0.1,0.7l-0.1,0.7l-0.1,0.6l-0.1,0.3l-0.1-0.3l-0.1-0.4L44,51.8
			L43.7,51l-0.3-0.8l-0.2-0.7l0,1.4L43.2,52v1l0,0.9l0-0.3l-0.1-0.1c-0.6-0.8-1-1.8-1.3-2.7l-0.1,0.4c0,1.1,0.1,2.1,0.3,3.1
			c0.2,0.9,0.6,1.7,1.3,2.3l0.2,0.4v0.3l-0.1,0.4l-0.2,0.2L43.1,58l-0.1,0.3l0-0.4L43,57.7l-0.1-0.2l0,0c0.2-0.2,0.1-0.6-0.1-1
			c-0.3-0.4-0.8-0.6-1.1-0.4c-0.3,0.2-0.3,0.7,0,1.1c0.3,0.4,0.8,0.5,1.1,0.3h0l-0.1-0.1l0-0.1l0,0.1l0.2,0.2l0.1,0.3l0,0.3
			l-0.1,0.3L42.7,59l-0.2,0.1l0,0.1l0.1-0.3l0.1-0.4l0-0.5c-0.5,0.8-1,1.4-1.6,2.1l-0.3,0.4l-0.1-0.1c0.4-1.3,0.3-2.6,0.4-4
			c-0.5,0.9-1,1.8-1.3,2.8l-0.2,0.4l0,0l0.1-0.4c0.1-0.8,0-1.5,0-2.3l0-0.7l-0.2,0.5c-0.5,1-1,1.9-1.2,2.9l0,0.3L38,60.3l-0.5,0.6
			l-0.5,0.5l0,0.1v-0.4c0.2-1,0.3-2.1,0.3-3.1c-0.6,1.2-1.3,2.3-1.6,3.6L35.7,62l-0.1,0.7l-0.1,0.5l0,0l0,0l0-0.2v-0.2l0-0.2
			c-0.2-1.2-0.7-1.9-0.8-3.5c-0.3,1.1-0.4,2-0.3,3.1c0.1,1.2,0.5,1.8,0.4,2.2L34.8,65l0,0l-0.5,0.3l-0.7,0.3l-0.3,0.2l-0.4,0.1
			l0.2,0l0.3-0.2c0.4-0.3,0.7-0.5,1-1c0.2-0.3,0.2-1.6-0.2-1.9c-0.3-0.2-0.7-0.6-0.9-1c-0.1-0.1-0.2-0.1-0.3-0.1
			c-0.2,0.1-1.4,0.4-2,0.5c-0.2,0.1-0.3,0.1-0.3,0.3c-0.2,0.9-0.4,1.9-0.7,2.7l-0.1,0.4v-0.4c0-0.9-0.2-1.7-0.9-2.4
			c-0.4-0.3-0.6-0.8-0.8-1.1c-0.3-0.4-0.5-0.6-1-0.7c-0.4,0-0.3,0.1-0.6,0.3c-0.4,0.3-0.7,0.4-1.2,0.5c-0.1,0-0.2,0.1-0.1,0.2
			c0.1,0.7,0,1.8,0.1,2.2c0,0.2,0.6,0.7,1,1l0.2,0.3l0,0h-0.1c-0.5-0.3-1-0.6-1.5-0.9v-0.2l0.1-0.4l0.1-0.4l0-0.3l0.1-0.3l0-0.3
			v-0.3v-0.4l0-0.4l0-0.2l0-0.3h-0.1l0-0.2l-0.1-0.4l-0.2-0.2l-0.1-0.1L24.1,60L23.8,60l-0.2-0.4l-0.1-0.2l-0.3-0.2L23.2,59
			l-0.3-0.3l-0.2-0.4L22.4,58l-0.3-0.4l0.1,0.6l0,0.5L22.1,59l0,0.3c0,0,0,0,0,0v0.2v0.6l0,0v-0.2v-0.4v-0.2v0v-0.1l0,0L22,59.1
			l-0.1-0.3l-0.1-0.2l-0.1-0.2l-0.2-0.2l0,0l-0.1-0.1L21.2,58l-0.1-0.2l-0.3-0.1l-0.2-0.3l-0.1-0.1l-0.1,0.4v0.4l0,0.4l0,0.3
			l0.1,0.3l-0.2,0l0.1,0.3v0.4l0,0.3l0.2,0.4l0.1,0.4l0,0.2l0.2,0.4l0.1,0.2l0.3,0.8v0l-0.2-0.1l-0.3-0.2L20.5,62L20.3,62l-0.2-0.1
			L20,61.8l-0.3-0.4l-0.2-0.2l-0.2-0.1l0.1-0.3l0.2-0.3l0.3-0.5l0.1-0.4v0l0.1,0v-0.2v-0.5v-0.5l0.1-0.4l0.1-0.2h0l-0.1-0.1v-0.3
			L20,56.9l0-0.3l-0.1-0.4l-0.1-0.5L19.6,56l-0.1,0.2l-0.1,0.2l-0.2,0.1l-0.1,0.2V57l0,0.2l-0.1,0.1L19,57.4l-0.1,0.3l-0.1,0.2
			l-0.2,0.3v0.2c-0.1-0.2-0.3-0.4-0.5-0.4c-0.3,0-0.5,0.3-0.5,0.6c0,0.2,0.1,0.3,0.2,0.4l-0.1,0.2l0,0.2v0.2l-0.1,0l0,0h0l-0.1-0.1
			l-0.1-0.8l0-0.3l0.1-0.1l0.1-0.2l0.2-0.2l0.2-0.1v-0.2l0.1-0.3l0.1-0.1l0.1-0.3l0.1-0.2l0-0.2l0.1-0.1l0.1-0.3l0.1-0.3l-0.1-0.2
			l-0.1-0.2l0-0.1l0.1-0.3v-0.4v-0.4l0-0.5l0-0.2l-0.1-0.3L18.5,53l-0.1-0.3v-0.2l-0.1-0.2l-0.1-0.5L18,52.3l-0.2,0.3l-0.4,0.2
			l-0.2,0.2l0,0l0-0.2l-0.1-0.2L17,51.8l-0.1-0.7v-0.6l-0.4,0.5l-0.3,0.4l-0.3,0.3l-0.2,0.5l-0.2,0.4l0,0l0.1,0.3v0.4v0.6l-0.1,0.6
			l-0.1,0.5l0-0.5l0.1-0.6v-0.6v-0.4l-0.1-0.3l-0.1-0.3l0-0.1c0,0,0-0.2,0-0.2l-0.1-0.3l-0.1-0.2l-0.1-0.3L15,51.2l-0.2-0.4
			l-0.2-0.3l-0.3-0.4l0,0L14,49.4l-0.2,0.5l-0.2,0.3v0.3l-0.1,0.3v0.3l-0.1,0.4l0.1,0.3l0,0.6l0,0.4l0,0.5l0,0.3l0,0.3
			c0-0.1-0.1-0.2-0.1-0.4L12.9,52l0.1-0.6L12.8,51l-0.1-0.3l0,0l0-0.1l0.1-0.3l0.1-0.4l0.1-0.2l0.1,0c0.1,0,0.1,0,0.2,0
			c0.4,0,0.7-0.3,0.7-0.6c0-0.3-0.3-0.6-0.7-0.6c-0.4,0-0.7,0.3-0.7,0.6c0,0.2,0.1,0.4,0.3,0.5l0,0.1l-0.1,0.3l-0.1,0.3l0,0.2l0,0
			l-0.1-0.1L12.4,50l-0.1-0.5l0-0.5v0l0.1-0.2l0.2-0.2l0.5-0.1l0.4-0.2l0.7-0.4l0.5-0.4v0l0.3-0.2l0.4-0.4l0.2-0.4L16,46l0.2-0.5
			l0-0.6c0-0.3,0.1-0.6,0.1-0.8c0,0,0,0,0,0v0c0,0,0,0,0,0c0,0,0-0.1,0-0.1c0,0-0.1,0-0.1,0v0l-0.1,0.1l-0.3,0.1l-0.3,0.2l-0.4,0.2
			L15,44.8l0.2-0.3l0.4-0.8l0.2-0.8l0.2-0.7l0.2-0.6l0,0l0.1-0.1h0l0,0l0,0l0,0l0,0l-0.1,0l-0.5,0.3L15.3,42l-0.2,0.3h-0.3l-0.2,0.2
			l-0.2,0l-0.2,0.2L14,42.8h-0.2L13.5,43l-0.2,0.1l0,0.1l-0.2,0l-0.2,0.1v0l0-0.6l-0.2-0.6l0-0.4l-0.1-0.4l0.1-0.1l0.1-0.1H13
			c0.1,0.2,0.3,0.4,0.6,0.4c0.3,0,0.6-0.3,0.6-0.6c0-0.4-0.3-0.6-0.6-0.6c-0.3,0-0.6,0.3-0.6,0.6v0l-0.1,0l-0.2,0.1l-0.2,0.1
			l-0.2-0.8v0.1l0-0.1L12,41.1l-0.2,0.2l-0.1,0.4c-0.1,0-0.2,0.4-0.2,0.4l-0.2,0l0,0.4l-0.1,0l-0.2,0.6l-0.1,0.5l0.1,0.1l-0.1,0.3
			l-0.1,0.4l-0.1-0.3l0,0.1l0.1,0.2v-0.1l-0.1-0.1l-0.1-0.1L10.5,44l-0.3-0.5l-0.2-0.4l-0.4-0.4l-0.4-0.3L8.8,42l-0.3-0.2l-0.2-0.3
			l0,0l0,0l0,0l-0.3-0.2L8,41.2l-0.3,0l-0.6-0.5l0,0.3l0.1,0.4L7.3,42l0.2,0.4l0,0.1l0.1,0.2l0,0.3l0.1,0.3l0,0.1l0.2,0.2L8,43.9
			l-0.1,0.2l0.2,0.2l0.1,0.3l0.1,0.1l-0.6-0.2l-0.3-0.1L7,44.2l-0.5-0.1l-0.2,0H6H5.7l-0.3,0L5.2,44l-0.3,0l0,0l-0.4-0.1L4.6,44
			l0.2,0.4L5,44.8v0.1l0.3,0.4l0.4,0.4L6.2,46l0.4,0.3l0.2,0.3l0.2,0.1l0.2,0.2l0.2,0.1L7.5,47l0.2,0.1l0.3,0.2l0.2,0.1l0.3,0.1
			l0.4,0.1L9,47.7L9,47.8l0.2,0.1L9.4,48l0.3,0.2h0.2l0.4,0.1l0.4,0.1l0.4,0.3l0.4,0.3l0.6,0.7l0,0.3l0.2,0.7l0,0L12,50.5l-0.2-0.2
			l0,0l0,0C12,50.1,12,50,12,49.9c0-0.3-0.3-0.6-0.6-0.6c-0.4,0-0.7,0.3-0.7,0.6c0,0.3,0.3,0.6,0.7,0.6c0.2,0,0.3,0,0.4-0.1l0.1,0.1
			l0.2,0.2l0.1,0.1v0l0,0.5l0.2,0.4l0.1,0.3l-0.1-0.1l-0.2-0.3l-0.2-0.2l-0.3-0.3l-0.3-0.1l0,0c0,0,0-0.1,0-0.1
			c0-0.3-0.3-0.6-0.7-0.6c-0.3,0-0.6,0.3-0.6,0.6c0,0.3,0.3,0.6,0.6,0.6c0.3,0,0.5-0.1,0.6-0.3l0.1,0l0.3,0.2l0.4,0.3l0.3,0.3
			l0.2,0.2l0,0l0,0.1l0.4,1.2l0.7,1.5l-0.5-0.5l-0.3-0.3l-0.2-0.3l-0.2-0.1l-0.3-0.4l-0.3-0.3L11.6,53l-0.3-0.2l-0.3,0l-0.2-0.2
			l-0.2,0l-0.5-0.3H9.8H9.4L8.9,52l-0.5-0.2l-0.6,0l-0.4-0.1l-0.6,0l0.2,0.2l0.2,0.3l0.2,0.3l0.2,0.2l0.2,0.2l0.2,0.3l0.2,0.3
			l0.1,0.2l0.2,0.1L8.8,54L9,54.1l0.2,0.3l0.2,0l0.3,0.3L9.8,55l0.3,0.1l0.3,0.2l0.4,0.1H11l0.3,0.3l0.5,0h0.5l0.3,0.1H13l0.5-0.1
			l0.4,0.1l0.2,0.1l0,0l0.2,0.2l0.4,0.5l0.4,0.4l0.2,0.4l0.3,0.2l0.3,0.4l0.2,0.3l0.2,0.2l0.3,0.3l0,0.1l0,0l-0.3-0.1l-0.2-0.1
			l-0.2-0.3l-0.3-0.2l-0.1-0.1l-0.2-0.2l-0.1-0.1L15,57.6l-0.2-0.1l-0.2-0.2l-0.2,0l-0.3-0.1l-0.3-0.3h-0.3l-0.2-0.2l-0.3,0
			l-0.2-0.1l-0.3-0.1l-0.4,0l-0.1,0.1l-0.3,0l-0.4-0.1l-0.4-0.1l-0.2,0l-0.5,0.1H9.7l-0.4-0.1L9,56.5l-0.4,0l0.2,0.2l0.1,0.1
			l0.2,0.1l0.2,0.4l0.2,0.2l0.1,0.1l0,0.1l0.2,0.1l0.1,0.2l0.2,0.2l0.2,0.1l0.2,0.3l0.3,0.1l0.3,0.2l0.5,0.1l0.1,0.1l0.4,0.1
			l0.3,0.2l0.4,0.1l0.3,0.1h0.3l0.2,0H14l0.2-0.1l0.4,0.1l0.1-0.1l0.3,0l0.4-0.1H16l0.5,0.1l0.4,0.2l0.2,0.2l0.2,0.1l0,0l0,0
			l-0.2-0.1L17,59.7l0.1,0.1l0.2,0.2l0.2,0.2l0.4,0.3l0.2,0.2l0,0l-0.3-0.1l-0.4-0.1l-0.3-0.1c0,0,0,0,0-0.1c0-0.3-0.3-0.6-0.6-0.6
			c-0.3,0-0.6,0.3-0.6,0.6c0,0.3,0.3,0.6,0.6,0.6c0.2,0,0.5-0.2,0.5-0.4l0.4,0.1l0.6,0.2l0.2,0l0.4,0.4l0.3,0.3l0.1,0l0.3,0.1
			l-0.3,0l-0.2,0h-0.3l-0.2-0.1L18,61.3h-0.1h-0.2h-0.3l-0.1-0.1l-0.3,0l-0.3,0.1h-0.4L16,61.2h-0.3l-0.2,0l-0.3,0l0.4,0.4l0.2,0.1
			l0.1,0.2l0.4,0.2l0.3,0.2l0.1,0.1l0.1,0.2l0.3,0.1l0.3,0.5h0.2l0.1,0.2l0.3,0.2l0.3,0.1l0.2,0.1l-0.6,0.1L17.9,64l-0.4,0.1l-0.2,0
			L17,64.3l-0.3,0.1l-0.4,0.1l-0.5,0.2l-0.5,0.2L15.1,65l-0.3,0l0.4,0.2l0.3,0.2l0.4,0l0.5,0.2l0.2,0l0.3,0.2l0.5,0.2h0.2L18,66
			l0.3,0h0.4l0.2,0h0.4l0.2-0.2l0.5-0.1l0.2-0.1l0.2-0.1l0.3-0.1l0.2,0l0.2-0.1l0.2-0.3l0.2-0.1l0.2-0.1l0.3-0.1l0.1-0.2l0.5-0.2
			l0.1,0l0.5,0.2l0.4,0.2l0.1,0l0,0l-0.2,0.1l-0.3,0.1l-0.4,0l0,0.1l-0.3,0.1L22,65.6l-0.3,0.1l-0.4,0.2l-0.3,0.2l-0.2,0.1l-0.1,0.3
			l-0.4,0.1l-0.2,0.3L20,67.1l-0.1,0.2l-0.2,0.2l-0.2,0.2L19.4,68l-0.2,0.2L19,68.3l-0.1,0.2l-0.1,0.3l0.4,0l0.3-0.1l0.4-0.1
			l0.2-0.1l0.2,0l0.2,0l0.3-0.1l0.2-0.1l0.4-0.1l0.2-0.1l0.2-0.2l0.3,0L22,68l0.3-0.1l0.2-0.1l0.2,0l0.2-0.3l0.2-0.2l0.2-0.1
			l0.3-0.2l0.1-0.2l0.1-0.3C24,66,24,65.7,24,65.1l0.1-0.1l0,0.1l0.1,0l0.3,0.2l1,0.4l0,0l-0.1,0.2V66c-0.4,0-0.6,0.3-0.6,0.7
			c0,0.4,0.3,0.6,0.7,0.6c0.4,0,0.7-0.3,0.7-0.6c0-0.3-0.2-0.6-0.5-0.6l0-0.1l0.1-0.1l0.4,0.3l0.6,0.2l0.3,0.2
			c0.6,0.1,1.2,0.3,1.8,0.6l0.4,0v0l0.1,0.4L29,67.3l-0.2,0l-0.5,0.1l-0.7,0.2L27,67.7l-0.8,0.1h0l0,0l0.2,0.6l0.2-0.1l0.4,0l0.5,0
			l0.3,0l0.1-0.2h0.3l0.3-0.2l0.6-0.3L29,67.9l-0.1,0.4l-0.4,0.6l-0.4,0.7l-0.5,0.7l-0.3,0.4l0,0l-0.1-0.1L27,70.3l-0.2-0.6
			l-0.1-0.5l-0.1-0.3l-0.1-0.4l-0.2-0.6c-0.1-0.3-0.2-0.3-0.4-0.3c-0.5,0.2-0.9,0.2-1.5,0.2c-0.2,0-0.2,0.3-0.2,0.4
			c-0.1,0-0.1,0-0.2,0c-0.6-0.1-0.6,0-1,0.4c-0.3,0.3-0.5,0.5-0.7,0.9l-0.3,0.4l-0.3,0.4l0.4-0.3c0.4-0.3,0.8-0.5,1.3-0.6
			c0.1,0,0.5-0.2,0.5-0.2l0.2-0.1l0.1-0.1h0l0,0.3l0,0.5c0,0.4-0.2,0.8-0.4,1.1c-0.2,0.4-0.5,0.4-0.6,0.9c0.8-0.3,1.2-0.4,1.5-0.7
			v0.2c0,0.3,0.4,0.7,0.4,1.2c0.2-0.4,0.1-1,0.4-1.4l0.1-0.2l0.2,0.2l0.2,0.2l0.2,0.1h0.2l-0.1,0l0.2,0.1l0.4,0l0.3,0l0.5,0.1H28
			l0.3,0l0.2-0.2l0.4-0.3l0.4-0.5l0.3-0.4l0.1-0.2l0.1-0.3l0-0.3l0-0.3v-0.3v-0.4V68l0.1,0l0.1,0c0,0.6,0.1,1.3,0.2,1.9
			c0,0.2,0.6,0.9,0.8,1.2c0.2,0.4,0.6,0.1,1.1,0.2c0.4,0.1,0.6,0.2,1,0l0.1-0.1l0,0l0,0l0.3-0.6l0.3-0.9l0.1-0.3
			c0.3,0.4,0.3,1,0.4,1.4c0.1,0.3,0.7,0.6,0.8,1.4c0.1-0.3,0.6-0.7,0.7-0.9c0.5,0.1,1,0,1.5,0.2c-0.2-0.5-0.7-0.7-1.1-1
			c-0.1-0.1-0.2-0.9-0.3-1.3l0.4,0.1l0.2,0.1v0l0.2,0l0.5,0.1l0.4,0.2l0.6,0.2l-0.3-0.3l-0.3-0.2l-0.3-0.2l-0.2-0.2l-0.2-0.3
			l-0.2-0.2l-0.3-0.2l-0.1,0l-0.3,0l-0.3-0.1h0l0,0h0l0,0l-0.2,0h-0.1l-0.1-0.3c-0.1-0.2-0.6-0.3-0.8-0.3c-0.4,0-0.7-0.1-1.2-0.2
			c-0.2,0-0.3-0.1-0.4,0.1l-0.1,0.1l-0.1-0.1c-0.4-0.1-0.8-0.2-1.2-0.3l-0.2-0.1L31,67.2l0,0l0.2-0.1l0.5-0.1l0.4-0.1l0.3-0.1
			l0.4-0.1l0.2-0.2l0.4-0.2l-0.1,0v0l0.2,0l0.1,0l0.1,0.1c-0.1,0.3,0,0.6,0.3,0.9c0.4,0.3,0.9,0.3,1.1,0.1c0.2-0.3,0.1-0.7-0.2-1
			C34.7,66,34.2,66,34,66.3l0,0l-0.2-0.1l-0.2-0.1l-0.2,0l0.2,0l0-0.1l0.2-0.1l0.3-0.1l0.2-0.1l0.3-0.1l0,0l0.1,0l0.4,0.1
			c0.5,0.2,1.7,1,3.4,1.2c1,0.1,2,0.1,2.9,0.4c-0.8-0.5-1.9-1-2.8-1.3c-0.2-0.1-0.4-0.1-0.5-0.1c0.1-0.2,0.1-0.3,0-0.5
			c0.4,0.3,0.9,0.6,1.4,0.8c1.1,0.4,2.2,0.8,3.4,0.8c-1-0.5-1.9-1.4-2.9-1.9c-0.9-0.5-1.6-0.5-2.6-0.6l-0.2-0.2l0.1,0l0.2-0.1
			l0.3-0.1l0.2,0.1l0.1,0l0.2-0.1l0.2-0.2l0.2-0.1l0.3-0.1l-0.1,0l0.1,0.1l0.4,0.3c0.7,0.4,1.4,0.9,2.3,1.2c0.8,0.3,1.7,0.4,2.5,0.6
			c-0.7-0.5-1.5-1-2.3-1.5c-0.5-0.3-0.9-0.4-1.5-0.6l-0.5-0.2l-0.6-0.1l0,0l-0.1,0.1l0.1-0.1l0.3-0.2l-0.2,0.2l0.4,0.1l0.5,0.1
			l0.5,0c1.1,0.1,2.1,0,3.2-0.2c0.7-0.1,1.4-0.2,2.1-0.4c-0.9-0.1-1.7-0.3-2.6-0.3c-1-0.1-2-0.1-3,0l-0.3,0.3L40.2,63l0.1-0.1
			l0.3-0.3c0.3-0.3,0.6-0.6,0.9-1l0.1-0.1l0,0.1h0.1l0.2,0h0c0,0.3,0.3,0.7,0.7,0.7c0.5,0.1,0.9-0.2,1-0.5c0.1-0.4-0.3-0.7-0.7-0.8
			c-0.4-0.1-0.8,0.1-0.9,0.4h0l-0.1,0l0-0.1l0.2-0.5l0.2-0.4l0.1-0.1l0,0l0.3,0.2l0.4,0.4c0.9,0.4,1.8,0.8,2.8,1.1
			c0.7,0.2,1.3,0.4,2,0.5c-0.5-0.4-1-0.9-1.6-1.3l-0.9-0.5l-0.3-0.2l0.9,0c1.2-0.2,2.5-0.3,3.7-0.9c-1.3-0.2-2.3-0.5-3.9-0.5
			c-1.1,0.1-2.1,0.4-3.1,0.7h0l0-0.2l0.4-0.3l0.3-0.4l0.2-0.3l0.2-0.4l0.3-0.2c0.7-0.2,1.5-0.3,2.2-0.6l1.1-0.4
			c1.3-0.5,2.5-1.5,3.4-2.4c-1.4,0.3-2.6,0.5-3.7,1.1c-0.8,0.4-1.5,0.9-2.2,1.5l-0.3,0.2l-0.2,0.1l0.1-0.3l0.1-0.2l0.3-0.3l0.3-0.3
			c0.4-0.3,0.7-0.6,1.1-0.9c0.8-0.6,1.3-1.1,1.9-1.9c0.8-1.1,1.2-2.1,1.6-3.4c-0.2,0.2-0.4,0.5-0.7,0.7c0.1-0.2,0.1-0.4,0-0.5
			l-0.1-0.1c-0.2-0.3-0.7-0.2-1.1,0.1c-0.2,0.2-0.4,0.5-0.3,0.7l0,0l-0.1,0.2l-0.1,0.1l0-0.1l0.1-0.2l0.1-0.2l0.1-0.1l0.1-0.1l0-0.2
			l0.1-0.1l0.2-0.2l0.2-0.1l0.2-0.2l0.2-0.1c0.8-0.4,1.5-0.7,2.3-1.2c0.9-0.6,1.5-1.5,2.2-2.4l-0.2,0.1c-1.6,0.7-3.5,1.6-4.4,2.9
			l-0.3,0.4L47.8,50l-0.2,0.3l-0.2,0.2l0-0.2l0.1-0.3l0.1-0.2l0.1-0.2l0.1-0.2l0-0.3v-0.4l0.2-0.2l0.2-0.2l0.2-0.2
			c0,0,0.1-0.1,0.1-0.1v0c0.2,0.2,0.7,0.2,1.1-0.1c0.4-0.3,0.5-0.8,0.2-1c-0.2-0.3-0.7-0.2-1.1,0.1c-0.3,0.2-0.4,0.6-0.3,0.9
			l0.1-0.1l-0.1,0.1L48.1,48l-0.2,0.2l-0.2,0.3l-0.1,0v0.1h0v-0.3l0.1-0.3l0.2-0.4l0.2-0.3l0.3-0.4l0.1-0.2l0-0.2
			c0.5-0.4,0.9-0.6,1.5-0.7c0.3-0.1,2.7,0.1,5.3-2.6c-2.2,0.4-4.7,1-6.2,2.6l-0.7,0.7l0.1-0.1l0.1-0.2l0.2-0.3l0.3-0.3l0.4-0.4
			c0.4-0.5,0.9-1,1.2-1.6c0.7-1.3,0.8-2.1,1.1-3.5c-0.9,0.9-1.7,2.2-2.3,3.4l-0.3,0.5c-0.1,0.3-0.2,0.5-0.3,0.8L48.8,45l-0.1,0.3
			l-0.1,0.2l-0.1,0.3L48.4,46L48.4,46.2z M49.1,40.2c0.2-0.4,0.1-0.9-0.2-1c-0.3-0.1-0.7,0.1-0.8,0.6c-0.1,0.4-0.1,0.8,0.2,0.9
			l0.1-0.1l0.1-0.2l0.1,0.1l-0.1,0.3C48.6,40.9,48.9,40.6,49.1,40.2"/>
		<path class="st0" d="M29.6,27.5c-6.5,0-11.9,7.5-11.9,16.6c0,9.2,5.3,16.6,11.9,16.6c6.5,0,11.9-7.5,11.9-16.6
			C41.5,34.9,36.2,27.5,29.6,27.5 M29.6,61.1c-3.3,0-6.4-1.8-8.7-5c-2.3-3.2-3.6-7.5-3.6-12c0-4.5,1.3-8.8,3.6-12
			c2.3-3.2,5.4-5,8.7-5c3.3,0,6.4,1.8,8.7,5c2.3,3.2,3.6,7.5,3.6,12c0,4.5-1.3,8.8-3.6,12C36,59.3,32.9,61.1,29.6,61.1"/>
	</g>
</g>
</svg>
