<?xml version="1.0" encoding="utf-8"?>
<!-- Generator: Adobe Illustrator 27.4.0, SVG Export Plug-In . SVG Version: 6.00 Build 0)  -->
<svg version="1.1" id="Capa_1" xmlns="http://www.w3.org/2000/svg" xmlns:xlink="http://www.w3.org/1999/xlink" x="0px" y="0px"
	 viewBox="0 0 500 86" style="enable-background:new 0 0 500 86;" xml:space="preserve">
<style type="text/css">
	.st0{fill:#FFFFFF;}
	.st1{fill:#FFCC00;}
	.st2{fill:#009FE3;}
	.st3{fill:#164194;}
</style>
<g>
	<g>
		<rect x="63" y="24.2" class="st0" width="1.6" height="38.5"/>
		<path class="st0" d="M111,39.2v22c0,0.7-0.6,1.3-1.3,1.3c0,0,0,0,0,0h-6.9c-0.7,0-1.3-0.6-1.3-1.3c0-0.9,0-3.5,0-5.6
			c0-0.7-0.6-1.3-1.3-1.3c0,0,0,0-0.1,0c-0.5,0-8.5,0-12.3,0c-0.7,0-1.3,0.6-1.4,1.3c0,2.1,0,3.5,0,5.6c0,0.7-0.6,1.3-1.3,1.3
			c0,0,0,0,0,0c-0.1,0-4.8,0-6.9,0c-0.7,0-1.3-0.6-1.3-1.3c0,0,0,0,0,0v-22c-0.1-6.1,6.7-14.8,17-14.8C105.4,24.4,111,31.5,111,39.2
			z M100.3,48.1c0.7,0,1.3-0.5,1.3-1.3c0,0,0,0,0,0c0-2.3,0-5.4,0-7.8c0-4-3.6-7.2-7.5-7.2c-2.4-0.1-4.7,1-6.2,3
			C87,36,86.5,37.5,86.6,39v7.8c0,0.7,0.6,1.3,1.3,1.3c0,0,0,0,0,0H100.3z"/>
		<path class="st0" d="M152.6,25.9c0,0.1,0,23.4,0,35c0,0.7-0.6,1.3-1.3,1.3c0,0,0,0,0,0c-1.6,0-3.5,0-5.2,0c-0.8,0-1.6-0.9-1.9-1.3
			c-0.5-0.7-15.9-21.9-15.9-21.9V61c0,0.7-0.5,1.3-1.2,1.3c0,0,0,0,0,0h-6.9c-0.7,0-1.3-0.6-1.3-1.3c0,0,0,0,0,0V26
			c0-0.7,0.5-1.3,1.2-1.4c0,0,0.1,0,0.1,0h6.4c0.3,0,0.6,0.1,0.8,0.4c1.3,1.9,15.6,21.5,15.7,21.7c0-0.1,0-14.1,0-20.9
			c0-0.7,0.6-1.2,1.3-1.2h6.9C152,24.6,152.6,25.2,152.6,25.9z"/>
		<path class="st0" d="M191.4,25.9c0,1.5,0,2.9,0,4.4c0,0.7-0.6,1.3-1.3,1.3c-5.9-0.1-12.5,0-18.4,0c-0.7,0-1.3,0.6-1.3,1.3
			c0,0,0,0,0,0c0,0.2,0,4,0,6.1c0,0.7,0.6,1.3,1.4,1.3h12.4c0.7,0,1.3,0.5,1.3,1.2c0,0,0,0,0,0.1v3.5c0,0.7-0.6,1.3-1.3,1.3
			c0,0,0,0,0,0h-12.4c-0.7,0-1.3,0.6-1.3,1.3V54c0,0.7,0.5,1.3,1.2,1.4c0,0,0,0,0.1,0h18.5c0.7,0,1.3,0.6,1.3,1.3c0,0,0,0,0,0
			c0,0.2,0,2.9,0,4.3c0,0.7-0.6,1.3-1.3,1.3c0,0,0,0-0.1,0h-28c-0.7,0-1.3-0.5-1.3-1.3c0,0,0,0,0-0.1v-35c0-0.7,0.6-1.3,1.3-1.3h28
			C190.9,24.6,191.4,25.2,191.4,25.9z"/>
		<path class="st0" d="M232.9,38.7c0.2,4.3-1.6,8.5-5,11.4c-2.1,2-6.2,3.9-10.6,3.9h-7.6c-0.7,0-1.2,0.5-1.3,1.2c0,0,0,0.1,0,0.1V61
			c0,0.7-0.5,1.2-1.2,1.3c0,0,0,0,0,0h-6.9c-0.7,0-1.3-0.6-1.3-1.3c0,0,0,0,0,0v-35c0-0.7,0.6-1.3,1.3-1.3c0,0,0,0,0,0
			c5.4,0,11.7,0,17.2,0s9,2.2,11.3,4.7C232.5,33.4,232.9,37.5,232.9,38.7z M208.5,45.8c0,0.7,0.5,1.3,1.2,1.3c0,0,0,0,0.1,0h5.8
			c4.8,0,8.5-3.5,8.5-7.9c0-1.2-0.4-2.5-1.1-3.5c-2.1-3-4.8-4-7-4c-1.9,0-4.4,0-6.2,0c-0.7,0-1.3,0.5-1.3,1.2c0,0,0,0,0,0
			C208.5,34.9,208.5,43.8,208.5,45.8L208.5,45.8z"/>
		<g>
			<path class="st1" d="M38,21.7c-2.7-1.4-2.6,1-6.2,1.1l3.5-5.1l-5.4,3.8c1.7-4.2-0.6-4.3,1.4-6.5c-2.7,0.9-1.3,2.4-3.2,4.7
				c-0.1,0.1-0.2,0.2-0.3,0.4c0,0-0.1,0.1-0.1,0.1L26.6,14l-1.2,6.5c-1.7-4.2-3.5-2.6-3.6-5.6c-1.4,2.7,1,2.6,1.1,6.2l-5.1-3.5
				l3.8,5.4c-4.2-1.7-4.3,0.6-6.5-1.4c0.8,2.5,2.2,1.4,4.3,2.9c0.1,0.1,0.2,0.1,0.2,0.2c0.2,0.2,0.4,0.3,0.6,0.5l-6.1,1.1l6.5,1.2
				c-4.2,1.7-2.6,3.5-5.6,3.6c2.4,1.2,2.6-0.5,5.2-1c1.9-1.6,4.1-2.5,6.4-2.5c2.3,0,4.6,0.9,6.5,2.6c2.6,0.6,3-0.9,4.8,0.9
				c-0.9-2.6-2.3-1.3-4.6-3.1c-0.1-0.1-0.2-0.2-0.3-0.3c0,0,0,0-0.1-0.1c-0.1-0.1-0.1-0.1-0.2-0.2l6.1-1.1l-6.5-1.2
				C36.6,23.5,35,21.8,38,21.7"/>
			<path class="st0" d="M14.7,44.6L14.7,44.6c0,9.2,5.2,16.7,11.8,16.8c0,0,0.1,0,0.1,0V44.6H14.7z"/>
			<path class="st2" d="M26.5,44.6v12.1v4.6v0.1c0.1,0,0.1,0,0.1,0c6.6,0,12-7.4,12-16.7c0,0,0-0.1,0-0.1h-0.1H26.5z"/>
			<path class="st2" d="M26.7,27.8c-6.6,0.1-11.9,7.6-11.9,16.8h11.9L26.7,27.8"/>
			<path class="st0" d="M26.5,44.6h12.2c0-9.2-5.4-16.8-12.1-16.8c0,0,0,0-0.1,0v4.7V44.6z"/>
			<path class="st3" d="M13.4,44.7C13.5,44.7,13.5,44.7,13.4,44.7C13.5,44.7,13.4,44.7,13.4,44.7"/>
			<path class="st3" d="M13.5,44.6C13.5,44.6,13.5,44.6,13.5,44.6L13.5,44.6C13.5,44.6,13.5,44.6,13.5,44.6"/>
			<polygon class="st3" points="13.4,42.1 13.5,42 13.5,41.9 			"/>
			<path class="st0" d="M17.9,36.7l-1.4,4.7c0,0,0,0,0,0.2c1.7,1.9,3.3,0.2,3.3,0c0-0.1,0-0.2,0-0.2l-1.3-4.7h-0.1l1.2,4.8h-1.3
				l-0.1-4.8h-0.1l-0.1,4.8h-1.4l1.4-4.8H17.9z M21.3,33.5c-0.2,0-0.3-0.1-0.3-0.3c0-0.2,0.1-0.3,0.3-0.3c0.2,0,0.3,0.1,0.3,0.3
				C21.6,33.4,21.4,33.5,21.3,33.5 M21.6,36.7h3.2v-0.6H24h0c-0.9,0.6-1.9,0.1-2.4,0v0h-0.1c0-0.2-0.2-2.3-0.2-2.3h-0.1
				c0.3,0,0.5-0.3,0.5-0.5c0-0.3-0.2-0.6-0.6-0.6c-0.3,0-0.6,0.2-0.6,0.6c0,0.3,0.2,0.5,0.5,0.5h-0.1c0,0,0,1.8-0.1,2.2
				c-1.6,0.4-1.8,0.3-2.5,0c-0.2,0-0.7,0-0.7,0v0.7h3.1v0.9l0.4,1.4l0.3-1.4V36.7z M26,41.6c0-0.1,0-0.2,0-0.2l-1.3-4.7h-0.1
				l1.2,4.8h-1.3l-0.1-4.8h-0.1l-0.1,4.8h-1.4l1.4-4.8H24l-1.4,4.7c0,0,0,0,0,0.2C24.3,43.5,25.9,41.8,26,41.6"/>
			<path class="st0" d="M36.3,49c-0.1-0.6-0.3-0.5-0.8-0.4c-0.4,0-0.6-0.1-1-0.1c-0.7,0.1-1.2,0.4-2,0.4c-1.9-0.2-1.8-0.5-2.1-0.6
				c-0.4,0-0.6,0.1-0.9,0.2h-0.1c0-0.2,0-0.4-0.1-0.4c-0.2-0.1-0.4-0.1-0.6-0.1c0.2,0.1,0.5,0.1,0.4,0.3c-0.2,0.3-0.7,0.2-0.8,0.2
				l-0.2-0.1c-0.1,0-0.3,0-0.4,0c-0.1,0-0.2,0.1-0.2,0.2c-0.5,0-0.4-0.5-0.4-0.8c-0.2,0.4-0.2,0.6-0.1,0.9l0.3,0.3l-0.1,0.1
				l-0.3,0.1c0.2,0.2,0.3,0.2,0.6,0.2l0,0.4L27.4,50c0,0.3,0.1,0.4,0.3,0.5c0.5,0,0.9,0.1,1.1,0.6c0.4,0.3,0.6,0.6,0.8,1.2
				c0.1,0.1,0.2,0.1,0.3,0.2h0c0,0,0,0,0,0c0.2,0.2,0.2,0.4,0.2,0.7l0,0.2l-0.2,0.2c-0.1,0.1-0.2,0.3-0.1,0.3c0,0,0.1,0.1,0.2,0.1
				l0.1,0c0.2-0.1,0.2-0.2,0.3-0.4l0-0.3l0-0.3l0.1-0.1l0.1,0.1v0.2l-0.1,0.3c-0.2,0.3-0.3,0.5-0.3,0.6c0.1,0,0.2,0,0.4,0l0.1-0.2
				c0.1-0.3,0-0.6,0-0.8l0.1-0.4l0.1-0.3c0.5-0.1,0.9-0.1,1.3-0.2c0.5-0.1,0.4-0.7,1.7-0.8h0c0.1,0.5,0.3,0.7,0.5,1.2l0.1,0.1l0,0.2
				c-0.1,0.3-0.3,0.5-0.4,0.8L34,53.6l0,0.1l-0.1,0.1L34,54c0.2,0,0.3,0,0.5-0.1l0.1-0.1c0.2-0.3,0.2-0.4,0.2-0.8l0.2-0.3l0.2-0.2
				l0.1-0.1c0.1,0.1,0.1,0.1,0.2,0.2c0.2,0.4,0.3,0.8-0.1,1.2c-0.1,0.1-0.2,0.3-0.3,0.3l0.2,0.1l0.3,0c0.3-0.1,0.5-0.3,0.4-0.6
				c-0.1-0.3-0.1-0.5-0.1-0.7c0.1-0.3,0.1-0.4-0.1-0.7l0.1-0.2l0-0.3l0.1-0.4l0-0.4l0.1-0.5l0.1-0.3v-0.4l0-0.2L35.8,49l-0.1-0.1
				l0.1-0.1c0.2,0,0.2,0,0.3,0.2c0.1,0.8-0.1,1.9-0.2,2.7L35.8,52c0.2,0.3,0.2,0.4,0.1,0.7v0.2l0.1,0.2c0.2-0.5,0.3-0.8,0.1-1.3
				C36.1,50.9,36.3,49.9,36.3,49"/>
			<path class="st2" d="M24.4,50.7c0,0.2-0.1,0.4-0.2,0.5c0,0.1,0.1-0.1,0.2-0.1c-0.1,0.2-0.1,0.6-0.1,0.9c0,0,0-0.1,0.1-0.2
				c0.1,0.5,0.4,0.8,0.6,1.1c0,0-0.1-0.1-0.1-0.2c0.1,0.2,0.3,0.3,0.5,0.4c0-0.1-0.3-0.3-0.3-0.4c0.1-0.1,0.1,0.1,0.3,0.1
				c-0.5-0.4-0.1-1.2-0.1-1.9c0-0.1,0.1,0.1,0.1,0.1c0-0.2-0.1-0.4-0.2-0.5c0-0.1,0.1,0.1,0.1-0.1c-0.3-0.3-0.4-1-0.9-1
				c-0.2,0-0.3,0.1-0.5,0.1c-0.1,0-0.3-0.2-0.5-0.3c-0.3-0.2-0.7-0.4-1.2-0.2c-0.4,0.1-0.7,0.2-1.2,0.3c-0.6,0-1.1-0.1-1.4-0.4
				c-0.2-0.2-0.2-0.4-0.4-0.6c-0.4-0.6-1.3-1.5-2.3-1c-0.1-0.1-0.3-0.3-0.4-0.2c0,0.1,0,0.2,0,0.2s-0.1-0.1-0.2,0
				c0,0.1,0.3,0.2,0.3,0.4c0,0.1-0.1,0.3-0.1,0.4c0,0.1,0,0.1,0,0.2c0,0.6-0.3,1-0.1,1.4c0.6,0.2,0.6-0.5,0.9-0.8
				c0.1,0,0.2,0,0.2-0.1c0.4,0.6-0.1,1.8,0.4,2.3c-0.1,0.2-0.2,0.3-0.4,0.4c-0.1,0.1-0.4,0.3-0.4,0.4c0,0.2,0.1,0.4,0.2,0.6
				c0.1,0.2,0.1,0.4,0.2,0.6c0.3,0.1,0.3,0.4,0.7,0.4c0.1-0.2-0.1-0.4-0.1-0.6c-0.1,0-0.2,0-0.2,0.1c-0.1-0.3-0.4-0.5-0.3-0.9
				c0.1-0.3,0.7-0.2,0.9-0.4c0,0.3,0.3,0.5,0.3,0.8c0,0.1,0,0.2,0,0.2c0.1,0.3,0.3,0.6,0.3,0.9c0,0.2-0.2,0.3-0.1,0.4
				c-0.2,0.1-0.3,0.3-0.4,0.5c0.2,0.1,0.4,0.1,0.6,0c0.1-0.2,0-0.5,0.2-0.6c-0.2-0.7-0.1-1.5-0.1-2.3c0.8,0,1.4-0.1,1.9-0.4
				c0.1,0.4,0.8,0.5,0.7,1c0,0.2-0.5,0.6-0.6,0.8c-0.1,0.1-0.2,0.2-0.3,0.3c0,0.3-0.1,0.5-0.1,0.9c0.3,0.1,0.5-0.1,0.6-0.3
				c0-0.1-0.1-0.2-0.2-0.3c0-0.1,0.2-0.1,0.2-0.2c0-0.5,0.8-0.6,1-1c0.1-0.3-0.1-0.4-0.2-0.8c0.4,0.1,0.6,0.6,1,0.7
				c0.3,0.3,0.6,1,0.5,1.6c0,0.2-0.3,0.4-0.4,0.7c0.1,0.2,0.4,0.2,0.6,0.1c0.1-0.3,0-0.6,0.2-0.8c-0.2-0.5-0.1-1.1-0.2-1.7
				c0-0.1-0.2-0.2-0.3-0.3c-0.6-0.7,0.1-1.3,0-2.2c0.2,0.1,0.3,0.2,0.3,0.4c0.1,0,0-0.1,0-0.1c0.2,0.2,0.1,0.6,0,0.8
				C24.3,50.9,24.4,50.7,24.4,50.7"/>
			<path class="st2" d="M32.8,36.4c0-0.1,0.1-0.1,0.1-0.2c0-0.1-0.1-0.2-0.2-0.2c-0.1,0-0.2,0.1-0.2,0.2c0,0,0,0.1,0.1,0.1H32.8z
				 M33,36.5c0-0.1,0-0.1-0.1-0.1h-0.1h-0.3h-0.2c0,0-0.1,0.1-0.1,0.1c0,0.1,0,0.2,0.1,0.2l0.6,0C33,36.7,33,36.5,33,36.5
				 M32.8,37.5h-0.4v-0.3c0-0.1,0.1-0.2,0.2-0.2c0.1,0,0.2,0.1,0.2,0.2V37.5z M37.6,41c0.3,0,0.6,0.1,0.9,0.2c0-0.1-0.1-0.3-0.1-0.4
				c-0.3-0.1-0.5-0.2-0.8-0.2c-0.3,0-0.5,0.1-0.8,0.2c-0.7-0.7-2.6-2.6-2.9-2.9c-0.3-0.3-0.6-0.3-0.6-0.3h-0.1v-0.7h0.2v-0.4h-0.4
				v0.1H32v-0.1h-0.4v0.4h0.2v0.7h0.1h0c-0.2,0-0.6,0.3-0.6,0.3l-2.9,2.9c-0.2-0.1-0.4-0.1-0.7-0.1c-0.4,0-0.8,0.2-1.2,0.2v0.4
				c0.4,0,0.8-0.2,1.2-0.2c0.4,0,0.8,0.2,1.2,0.2c0.4,0,0.8-0.2,1.2-0.2c0.4,0,0.8,0.2,1.2,0.2c0.4,0,0.8-0.2,1.2-0.2
				c0.4,0,0.8,0.2,1.2,0.2c0.4,0,0.8-0.2,1.2-0.2c0.4,0,0.8,0.2,1.2,0.2C36.8,41.2,37.2,41,37.6,41 M37.6,41.7
				c0.4,0,0.7,0.2,1.1,0.2c0-0.1,0-0.3-0.1-0.4c-0.3-0.1-0.6-0.2-1-0.2c-0.4,0-0.8,0.2-1.2,0.2c-0.4,0-0.8-0.2-1.2-0.2
				c-0.4,0-0.8,0.2-1.2,0.2c-0.4,0-0.8-0.2-1.2-0.2c-0.4,0-0.8,0.2-1.2,0.2c-0.4,0-0.8-0.2-1.2-0.2c-0.4,0-0.8,0.2-1.2,0.2
				c-0.4,0-0.8-0.2-1.2-0.2c-0.4,0-0.8,0.2-1.2,0.2V42c0.4,0,0.8-0.2,1.2-0.2c0.4,0,0.8,0.2,1.2,0.2c0.4,0,0.8-0.2,1.2-0.2
				c0.4,0,0.8,0.2,1.2,0.2c0.4,0,0.8-0.2,1.2-0.2c0.4,0,0.8,0.2,1.2,0.2c0.4,0,0.8-0.2,1.2-0.2c0.4,0,0.8,0.2,1.2,0.2
				C36.8,42,37.2,41.7,37.6,41.7 M37.6,42.5c0.4,0,0.8,0.2,1.1,0.2c0-0.1,0-0.3,0-0.4c-0.4,0-0.7-0.2-1.1-0.2
				c-0.4,0-0.8,0.2-1.2,0.2c-0.4,0-0.8-0.2-1.2-0.2c-0.4,0-0.8,0.2-1.2,0.2c-0.4,0-0.8-0.2-1.2-0.2c-0.4,0-0.8,0.2-1.2,0.2
				c-0.4,0-0.8-0.2-1.2-0.2c-0.4,0-0.8,0.2-1.2,0.2c-0.4,0-0.8-0.2-1.2-0.2c-0.4,0-0.8,0.2-1.2,0.2v0.4c0.4,0,0.8-0.2,1.2-0.2
				c0.4,0,0.8,0.2,1.2,0.2c0.4,0,0.8-0.2,1.2-0.2c0.4,0,0.8,0.2,1.2,0.2c0.4,0,0.8-0.2,1.2-0.2c0.4,0,0.8,0.2,1.2,0.2
				c0.4,0,0.8-0.2,1.2-0.2c0.4,0,0.8,0.2,1.2,0.2C36.8,42.7,37.2,42.5,37.6,42.5 M37.6,43.2c0.4,0,0.8,0.2,1.2,0.2
				c0-0.1,0-0.2,0-0.4c-0.4,0-0.8-0.2-1.2-0.2c-0.4,0-0.8,0.2-1.2,0.2c-0.4,0-0.8-0.2-1.2-0.2c-0.4,0-0.8,0.2-1.2,0.2
				c-0.4,0-0.8-0.2-1.2-0.2c-0.4,0-0.8,0.2-1.2,0.2c-0.4,0-0.8-0.2-1.2-0.2c-0.4,0-0.8,0.2-1.2,0.2c-0.4,0-0.8-0.2-1.2-0.2
				c-0.4,0-0.8,0.2-1.2,0.2v0.4c0.4,0,0.8-0.2,1.2-0.2c0.4,0,0.8,0.2,1.2,0.2c0.4,0,0.8-0.2,1.2-0.2c0.4,0,0.8,0.2,1.2,0.2
				c0.4,0,0.8-0.2,1.2-0.2c0.4,0,0.8,0.2,1.2,0.2c0.4,0,0.8-0.2,1.2-0.2c0.4,0,0.8,0.2,1.2,0.2C36.8,43.5,37.2,43.2,37.6,43.2
				 M38.9,44.2c0-0.1,0-0.2,0-0.4c-0.4,0-0.8-0.2-1.2-0.2c-0.4,0-0.8,0.2-1.2,0.2c-0.4,0-0.8-0.2-1.2-0.2c-0.4,0-0.8,0.2-1.2,0.2
				c-0.4,0-0.8-0.2-1.2-0.2c-0.4,0-0.8,0.2-1.2,0.2c-0.4,0-0.8-0.2-1.2-0.2c-0.4,0-0.8,0.2-1.2,0.2c-0.4,0-0.8-0.2-1.2-0.2
				c-0.4,0-0.8,0.2-1.2,0.2v0.4c0.4,0,0.8-0.2,1.2-0.2c0.4,0,0.8,0.2,1.2,0.2c0.4,0,0.8-0.2,1.2-0.2c0.4,0,0.8,0.2,1.2,0.2
				c0.4,0,0.8-0.2,1.2-0.2c0.4,0,0.8,0.2,1.2,0.2c0.4,0,0.8-0.2,1.2-0.2c0.4,0,0.8,0.2,1.2,0.2c0.4,0,0.8-0.2,1.2-0.2
				C38.1,44,38.5,44.2,38.9,44.2"/>
			<path class="st0" d="M8,41.8L8,41.8l0.2,0.1L8.4,42l0.1,0.2l0.1,0.2v0.2l0,0.2c0-0.1,0-0.2,0.1-0.3l-0.1-0.2l-0.1-0.2l-0.2-0.2
				l-0.2-0.1l0,0l0,0v-0.1c0-0.4-0.3-0.7-0.6-0.7c-0.3,0-0.6,0.3-0.6,0.7c0,0.4,0.3,0.7,0.6,0.7C7.7,42.2,7.9,42,8,41.8 M11,34.6
				l-0.1-0.4L10.7,34v-0.3v-0.3V33l0-0.3l-0.1-0.4l-0.2,0.5l-0.1,0.3l-0.2,0.4L10,33.8L9.9,34l-0.1,0.3l-0.1,0.1l-0.1,0.2l-0.1,0.1
				L9.5,35l-0.1,0.2l0,0.2l-0.1,0.3l0,0.3l-0.1,0.4l0.1,0.3l-0.1,0.2l-0.1,0.3l0.1,0.4v0.3l0.1,0.4l0.1,0.2l-0.1,0.2L9.1,39l0,0.4
				l0,0.2l0,0.3L8.9,40l-0.1,0.1l0,0.1l0,0.1l0.1,0.2l0.1,0.1l0,0l0,0l-0.2-0.4l0.1-0.4v-0.3l0.1-0.4L9,38.9l0,0.1l0.1-0.4v-0.4
				L9,37.7l-0.1-0.4l-0.2-0.6l-0.2-0.3l-0.2-0.2l-0.1-0.3l-0.2-0.5L7.8,35l-0.3-0.5v0l-0.1-0.3l0-0.1l0,0l0-0.1l0,0.4l-0.1,0.5
				l-0.1,0.2l0,0.2L7,35.4v0.2l0.1,0.2l0,0.1l0,0.2L7,36.2v0.2v0.2v0.2l0.1,0.1L7,37.1v0.1l0,0.2l0,0.1L7,37.8l0.1,0.1V38l0.1,0.2
				v0.3l0,0.2L7.5,39l0.1,0.2l0.2,0.4l0.2,0.3l0.2,0.3l0.3,0.2l0.1,0.3l0.1,0.3v0.4v0.3l0.1,0.2l0.1,0.1l0,0l0.2-0.2l0-0.1v-0.2
				l0-0.4l0.1-0.3l0.3-0.4l0.2-0.2l0.7-0.1l0.5-0.2l0.4-0.1l0.4-0.2l0.4-0.1l0.3-0.1l0.5-0.4l0.7-0.4l0.5-0.5l0.3-0.4l0.3-0.4
				l0.5-0.5l0.2-0.3l0.3-0.4l-0.5,0.2h-0.2l-0.4,0.1l-0.4,0l-0.2,0l-0.4,0.2l-0.3,0l-0.4,0.1l-0.5,0.1L11.9,37l-0.1,0l-0.3,0.3
				l-0.2,0.1c0,0-0.2,0.2-0.3,0.2c-0.1,0-0.2,0.1-0.2,0.1L10.7,38l-0.1,0.1l0,0.1l-0.1,0.1l-0.1,0l-0.1,0.3l-0.1,0.1L10,38.8
				l-0.2,0.3l-0.1,0.3l-0.1,0.3l0,0.2l-0.3,0.4l0.1-0.5l0.1-0.3l0.2-0.3l0.1-0.4l0.3-0.4l0.3-0.3l0.3-0.5l0.1-0.3l0.2-0.3l0-0.4
				l0.1-0.6l-0.1-0.3l0,0.2l0.1-0.1l0.3-0.2l0,0v0c0.1,0.3,0.3,0.4,0.6,0.4c0.4,0,0.6-0.3,0.6-0.6c0-0.3-0.3-0.6-0.6-0.6
				c-0.4,0-0.6,0.3-0.6,0.6c0,0,0,0.1,0,0.1l-0.3,0.2l-0.2,0.1l0.1-0.7L11,34.6z M17.4,33.6l0.2-0.1l-0.3-0.2l-0.2-0.1L17,33.1
				l-0.1-0.1l0,0L16.9,33l-0.1-0.1l-0.2-0.1l-0.2-0.1l-0.1-0.1l-0.2,0l-0.2,0l-0.1-0.1l-0.2-0.1l-0.2-0.1l-0.3,0l-0.4,0l-0.4,0
				l-0.5,0l-0.2,0.1l-0.4,0.1l-0.3,0.1l-0.2,0.2l-0.1,0.1l-0.2,0.2L12,33.5l-0.2,0.3l0.1-0.3l0.3-0.4l0.1-0.1l0.5-0.6l0.4-0.4
				l0.6-0.3l0.2-0.1l0.3-0.2l0.1-0.2l0.2,0l0.7-0.7l0.5-0.7l0.5-0.9l0.3-0.7l0.4-0.4L16.8,28L16.3,28l-0.1,0.1L16,28.3l-0.2,0
				l-0.4,0.2l-0.4,0.1l-0.1,0.1l-0.2,0L14.6,29L14.4,29l-0.1,0v0.1L14,29.2L14,29.4l-0.3,0.2v0.3L13.6,30l-0.2,0.2l-0.2,0.3
				l-0.1,0.1l0,0.2L13,30.9l-0.1,0.2l0,0.1l-0.1,0.2v0.3l-0.1,0.5l-0.2,0.5l-0.3,0L12,32.7l-0.1,0.1l0-0.1l0.1-0.2l0.1-0.3l0.1-0.2
				l0.1-0.1l0.1-0.3v-0.3v-0.4l0.1-0.3l0-0.5l-0.1-0.2v-0.2l-0.1-0.1l-0.1-0.3l0-0.1L11.9,29l-0.2-0.2l-0.1-0.2l-0.1,0.3l-0.2,0.2
				l-0.1,0.1l-0.1,0.2l-0.1,0.2l0,0.3L11,30.1l0,0.4l0.1,0.1l0,0.4l0.1,0.5l0.1,0.2V32l0.2,0.3l0.2,0.9l-0.1,0.1l-0.1,0.3l-0.2,0.2
				L11.2,34l-0.1,0.4L11,34.5v0.1l0.1,0.2l0.2-0.2l0.2-0.3l0.1-0.1l0.2-0.1l0.2,0l0.3,0l0.3-0.1l0.2,0.1l0.3,0.1h0.4l0.2,0.1l0.2,0
				l0.3,0l0.2,0.1l0.3,0l0.3,0h0.4l0.1-0.2h0.2h0.3l0.2-0.1l0.3-0.1l0.2-0.2l0.3-0.1L17.4,33.6z M13.5,44.6
				C13.5,44.6,13.5,44.6,13.5,44.6C13.5,44.6,13.5,44.6,13.5,44.6C13.5,44.6,13.5,44.6,13.5,44.6 M32.8,68.8L32.8,68.8L32.8,68.8
				L32.8,68.8z M44.6,40.5L44.6,40.5l-0.1,0.3l0,0h0L44.6,40.5l0-0.2l-0.1-0.3l-0.1-0.3l0-0.2l0-0.4l0.1-0.2
				c0.1,0.1,0.3,0.1,0.4,0.1c-0.1,0.5,0,0.9-0.1,1.4L44.6,40.5z M44.2,38.6l-0.1,0.3v-0.5c0,0,0-0.1,0-0.1
				C44.1,38.4,44.1,38.5,44.2,38.6C44.2,38.6,44.2,38.6,44.2,38.6 M44.4,40.7L44.4,40.7L44.4,40.7L44.4,40.7z M41.3,31.6l-0.1,0.9
				l0,0c0-0.2,0-0.5,0-0.7C41.2,31.8,41.3,31.7,41.3,31.6 M44.8,49.2l-0.1,0.1v0L44.8,49.2z M44.3,52l0.2-0.1l0.1-0.1
				c0,0,0,0.1,0,0.1c0.2,0.2,0.5,0.2,0.8,0.1c-0.6,0.6-1.1,1.2-1.7,1.9c-0.5,0.7-1.2,1.7-1.2,1.7l0.4-0.8l0.1-0.1l0.2-0.3l0.1-0.3
				l0.1-0.2l0.1-0.3l0.1-0.2l0.1-0.2l0.1-0.2l0-0.2l0-0.2l0.1-0.2v-0.1l0.1-0.1L44.3,52z M41.1,57.8L41.1,57.8L41.1,57.8z
				 M41.4,56.9l-0.3,0.8v0l0-0.4l0.1-0.4l0.1-0.2V56.9z M41,57.1l-0.1,0.6l-0.1,0.2l0-0.6l-0.1-0.6l0-0.5l0-0.3l-0.2-0.5l0.3,0.6
				l0.1,0.4l0.1,0.3L41,57.1z M40.7,58.4L40.7,58.4L40.7,58.4L40.7,58.4z M39.8,57.8L39.8,57.8L39.8,57.8L39.8,57.8z M36.1,62.6
				L36,63.1l-0.2,0.4l-0.3,0.3l-0.2,0.1L35.2,64l0.1-0.2l0.2-0.3l0.2-0.3l0.2-0.3L36.1,62.6z M35.3,62v0.3l0,0.5v0.4l-0.1,0.5L35,64
				l-0.1,0l-0.6,0.3l-0.8,0.4l0,0l0,0l-0.9,0.6l0,0l-0.2,0.1l0.3-0.2l0,0l-0.1,0.1l0,0l0.9-0.6l0.2-0.2l0.1-0.2l0.3-0.4l0.4-0.7
				l0.4-0.5l0.2-0.5L35.3,62z M32.5,64.9l0,0.4l-0.1,0.2l0.1-0.2v0l-0.1,0l-0.3,0.2l0,0.1l0,0l0,0l0.1-0.3l0.1-0.3l0.2-0.3l0.1-0.2
				V64.9z M31.8,65.5L31.8,65.5L31.8,65.5L31.8,65.5z M32.3,65.9L32.3,65.9L32.3,65.9z M32.2,66L32.2,66l0.3-0.1h0.1l0.3-0.2
				l0.1-0.1l0.3,0h0.4c-0.1,0.2,0,0.4,0.1,0.6c-0.7-0.1-1.2-0.1-1.4-0.1L32.2,66z M34,64.9L34,64.9L34,64.9z M33.8,65.5L33.8,65.5
				l-0.5-0.1l0.2-0.2l0.2-0.1l0.3-0.1L34,65l0.1,0.1l0.2,0.2c0.1,0,0.1,0.1,0.2,0.1C34.2,65.3,34,65.3,33.8,65.5L33.8,65.5z
				 M34.7,64.2l0.1-0.1L34.7,64.2L34.7,64.2z M34.8,64.7L34.8,64.7L34.8,64.7z M29.8,64.8c-0.5,0.4-0.9,0.9-1.4,1.2l-0.2,0.1
				L28,66.2l-0.1,0.1l0.2-0.5l0.4-0.7l0.3-0.6l0.3-0.4l0.4-0.2l0.4-0.2l-0.4,0.2h0C29.9,64.1,30,64.6,29.8,64.8 M30,63.7l0.4-0.2
				l0.4,0l0.2,0.1l0.1,0.2l0.1,0.3l0.1,0.4l-0.1,0.4l-0.1,0.3l-0.3,0.4l-0.2,0.2l-0.2,0.2l-0.3,0.2l0,0l0,0l0.3-0.2l0.2-0.2l0.2-0.2
				l0.3-0.4l0.1-0.3l0.1-0.4L31.3,64l-0.1-0.3l-0.1-0.2l-0.2-0.1l-0.4,0L30,63.7z M25.6,66.2l-0.1-0.1c-0.8-0.7-1.2-1.1-1.4-2.1
				c0.6,0.6,0.9,1.2,1.4,1.9L25.6,66.2z M16.8,62.3l-0.2-0.1l-0.2-0.1l0.2,0.1L16.8,62.3z M16.2,61.4L16,61.3L15.7,61l-0.2-0.3
				l-0.4-0.4L14.9,60l0-0.2l0.1-0.4l0,0v0c0.1,0.1,0.2,0.1,0.3,0.1c0.2,0,0.3-0.1,0.4-0.2v0.1l0.1,0.5l0.2,0.5l0,0.1l0.1,0.3
				l0.2,0.3L16.2,61.4z M15.7,59.1L15.7,59.1C15.7,59.1,15.7,59.1,15.7,59.1L15.7,59.1z M14.2,59L14.2,59l-0.2-0.1l-0.3-0.4
				l-0.1-0.1l0,0v0l0.1-0.3l0.1-0.4l0.1-0.2l-0.1-0.1l0.2,0.2l0,0.4l0.2,0.3l0.1,0.3L14.2,59z M13.7,56.9l-0.2-0.2L13.7,56.9z
				 M13.3,58.1L13.3,58.1L13,57.6l-0.5-0.7l-0.2-0.3l0-0.2l0.1-0.3l0.2-0.4l0,0.1l0.1,0.3l0.1,0.2v0.2l0.1,0.2l0.2,0.4l0.2,0.4
				L13.3,58.1L13.3,58.1z M9.3,48.8l-0.1,0.3l0-0.1v0l0-0.1l-0.1-0.3l0-0.1l0.1-0.4l0.3-0.5l0.2-0.3l0.4-0.4l-0.2,0.2l-0.1,0.2
				l-0.1,0.1l0,0.3L9.5,48l0,0.5L9.3,48.8z M9.1,47.1l0,0.3l0,0.3l-0.2,0.5l0,0l-0.1-0.3l0.1-0.4L9.1,47.1L9.1,47.1z M8.7,49.2
				l0,0.2L8.5,49l-0.2-0.3l-0.1-0.4l-0.2-0.4l-0.3-0.4l-0.2-0.3l0.3,0.2l0,0l0.4,0.5l0.3,0.5l0.1,0.2l0.1,0.2L8.7,49L8.7,49.2z
				 M8.4,47.2l-0.1,0.5l0-0.1l-0.1-0.3v-0.6L8.4,47.2L8.4,47.2z M14.1,60.9L14.1,60.9L14.1,60.9L14.1,60.9z M24.2,71.4L24,71.6
				l-0.3,0.1l0.3-0.1L24.2,71.4z M22.5,71.3L22.5,71.3L22.5,71.3L22.5,71.3z M21.2,68.5c0,0-0.1,0.1-0.1,0.1h0
				C21.2,68.6,21.2,68.5,21.2,68.5 M27.9,68.2L27.9,68.2l1.2,0.4l0.5,0.1l0,0.1c-0.1,0.4-0.5,1-0.5,1c0,0.1,0,0.2-0.1,0.3l-0.1,0.1
				l0-0.1C28.6,69.6,28.2,69,27.9,68.2 M41.2,60.8l0.6,0h0h0L41.2,60.8z M45.5,48.3L45.5,48.3L45.5,48.3L45.5,48.3z M45.4,46.7
				l-0.1-0.3v-0.2l0.1-0.2l0.2-0.3l0.2-0.4l0.2-0.4l0.2-0.5l0.2-0.5l0.2-0.6l0.2-0.8l0.1-0.7l0.1-0.6v-0.4l0.1-0.7l0-0.5l-0.5,0.8
				L46.1,41l-0.3,0.5L45.6,42l-0.1,0.4l-0.1,0.3l0,0.3l0-0.5L45.1,42l0.1,0.1l0-0.3l0.1-0.5l0.2-0.3L45.4,41l-0.1,0.2l-0.1,0.3
				L45,41.7l0.1,0.3l-0.2-0.6L44.6,41l0-0.1l0,0v-0.1l0.2-0.5c1.3-2.1,2.2-3.6,1.9-6c-0.4,1.1-1,2-1.5,3.1c-0.2-0.1-0.5,0-0.8,0.2
				c-0.1,0.1-0.2,0.3-0.3,0.4c0.1-0.8,0.3-1.7,0.4-2.5c0.2-1.5-0.1-2.7-0.6-4.1l0,0v0c0,0,0-0.1,0-0.1c-0.3,1.4-0.8,3.8-0.7,4.2
				l0.1,0.2v0l-0.1-0.2c-0.6-1.3-1.3-2.6-1.9-3.9c0-0.1,0-0.1,0.1-0.2c0.7-1.4,0.9-2.2,0.7-3.8L42,26.4c-0.4,1.2-1,2.3-1,3.5
				c0,0.7,0.1,1.3,0,2c-0.1-0.7-0.1-1.4-0.3-2.1c-0.3-1.2-1.2-1.8-2-2.7c0.2,0.7,0.4,1.3,0.7,2c0.4,0.8,0.9,1.4,1.2,2.2
				c0.1,0.3,0.2,0.6,0.3,0.9c-0.5-0.9-1.2-2-2.2-2.4c-0.6-0.3-1.2-0.6-1.9-0.8c0.4,0.5,0.8,1,1.2,1.4c0.7,0.7,1.4,0.7,1.6,0.8
				c0.4,0.2,0.7,0.5,1,0.8c0.1,0.3,0.1,0.6,0.3,0.9l0.2,0.2l0,0.2l0,0.3c-0.1-0.1-0.2-0.2-0.3-0.2c0.1-0.3,0-0.6-0.3-0.9
				c-0.4-0.3-0.8-0.3-1.1-0.1l-0.1,0.1c-0.1,0.3,0,0.6,0.3,0.9c0.4,0.3,0.9,0.3,1.1,0.1c0,0,0,0,0,0l0.4,0.4l0.1,0.3l0.3,0.8
				l0.1,0.3l-0.5-0.5l-0.7-0.5L39.9,34L39,33.3l0.7,1.2l0.6,1l0.1,0.1l-0.3-0.1l-1.3-0.4l-1.4-0.4c1.5,1.6,3,2.5,5.2,3.2
				c0.1,0.1,0.3,0.2,0.4,0.3l0.5,0.4l0.2,0.1l0-0.1l0,0l-0.1,0l-0.1-0.2L43.3,38l-0.1-0.2L43,37.6l0.2,0.1l0,0l0.2,0.3l0.2,0.4
				l0.1,0.2l0.2,0.5l-0.3-0.1L43.2,39l0.1,0c-0.1-0.3-0.4-0.5-0.8-0.5c-0.4,0-0.8,0.3-0.8,0.6c0,0.3,0.4,0.6,0.8,0.6
				c0.4,0,0.8-0.3,0.8-0.6l0.1,0l0.3,0.1l0.3,0.3l0.3,0.5l0.1,0.3v0.1l-0.1-0.1L44,39.9l-0.2-0.4l-0.1,0.4l0,0.3l0.1,0.5l0.1,0.4
				l0.1,0.5l0.2,0.5l0.1,0.6l-0.1-0.5l-0.3-0.4c-0.5-0.7-1.1-1.2-1.6-1.9c0.3,1.1,0.6,2.1,1,3.2l0.1,0.3l0,0
				c-0.7-0.8-1.3-1.6-2.2-2.3c0.4,1.2,0.9,2.3,1.5,3.2l0.3,0.5l0.1,0.1l-0.4-0.2l-0.9-0.5l-1-0.5l-0.7-0.2l0.3,0.5l0.3,0.5l0.3,0.4
				l0.4,0.4l0.3,0.3l0.4,0.2l0.5,0.3l0.6,0.2l0.2,0.1l1,0.8l0,0l0.1,0.5l0,0l0,0l-0.1,0.2l0,0.2v0.3v0.2l-0.1,0.4v0h0l0-0.2
				l-0.1-0.2l-0.1-0.3L44.1,48l-0.2-0.3l-0.2-0.4L43.4,47l-0.2-0.2l-0.3-0.3l-0.3-0.3L42.3,46L42,45.8l-0.4-0.3l-0.3-0.2L41,45.1
				l-0.3-0.2l-0.4-0.4l0.1,0.2l0.2,0.3l0.1,0.3l0.2,0.3l0.3,0.7l0.2,0.4l0.3,0.4l0.2,0.3l0.2,0.3l0.3,0.4l0.2,0.4l0.3,0.3l0.3,0.3
				l0.3,0.4l0.3,0.3l0.3,0.3l0,0.3l-0.1,0.4l0,0.3v0l-0.1-0.3L44,50.3l-0.2-0.4l-0.3-0.4l-0.3-0.4l-0.3-0.4l-0.3-0.3l-0.2-0.2
				l-0.3-0.2l-0.4-0.3l-0.3-0.2L41,47.5l-0.3-0.1l-0.3-0.2l-0.3-0.3L40,46.7l0.2,0.2l0.2,0.3l0.3,0.5l0.2,0.4l0.3,0.4l0.3,0.4
				l0.4,0.4l0.3,0.2l0.5,0.3l0.5,0.3l0.1,0.1l0.4,0.3l0.2,0.2l0.2,0.5l0.1-0.3L44,51.3l-0.1,0.2l-0.2,0.4l-0.1-0.2l-0.1-0.2
				l-0.1-0.2l0-0.2l0,0.1c0.1-0.2,0-0.6-0.2-0.8c-0.3-0.3-0.7-0.4-1-0.2c-0.2,0.2-0.2,0.7,0.1,1c0.3,0.3,0.7,0.4,1,0.2c0,0,0,0,0,0
				v0l0.1,0.2l0.1,0.3l0.1,0.3l-0.1,0.5l-0.1,0.1l-0.1,0.2l0,0.4l-0.1,0.3l-0.3,0.7l-0.5,1l-0.1,0.1l0.1-0.5l0.1-0.5v-0.5v-0.5
				l0-0.5L42.5,52l-0.2-0.6L42,50.9l-0.2-0.5v0.5l0,0.5l-0.1,0.7l-0.1,0.7l-0.1,0.6l-0.1,0.3l-0.1-0.3L41.3,53L41,52.3l-0.2-0.8
				l-0.3-0.8L40.3,50l0,1.4l-0.1,1.1v1l0,0.9l0-0.3L40.1,54c-0.6-0.8-1-1.8-1.3-2.7l-0.1,0.4c0,1.1,0.1,2.1,0.3,3.1
				c0.2,0.9,0.6,1.7,1.3,2.3l0.2,0.4v0.3l-0.1,0.4l-0.2,0.2l-0.1,0.1l-0.1,0.3l0-0.4L40,58.2L39.9,58l0,0c0.2-0.2,0.1-0.6-0.1-1
				c-0.3-0.4-0.8-0.6-1.1-0.4c-0.3,0.2-0.3,0.7,0,1.1c0.3,0.4,0.8,0.5,1.1,0.3h0L39.7,58l0-0.1l0,0.1l0.2,0.2l0.1,0.3l0,0.3
				l-0.1,0.3l-0.1,0.4l-0.2,0.1l0,0.1l0.1-0.3l0.1-0.4l0-0.5c-0.5,0.8-1,1.4-1.6,2.1l-0.3,0.4l-0.1-0.1c0.4-1.3,0.3-2.6,0.4-4
				c-0.5,0.9-1,1.8-1.3,2.8L36.7,60l0,0l0.1-0.4c0.1-0.8,0-1.5,0-2.3l0-0.7l-0.2,0.5c-0.5,1-1,1.9-1.2,2.9l0,0.3l-0.3,0.3l-0.5,0.6
				l-0.5,0.5l0,0.1v-0.4c0.2-1,0.3-2.1,0.3-3.1c-0.5,1.2-1.3,2.3-1.6,3.6l-0.1,0.4l-0.1,0.7l-0.1,0.5l0,0l0,0l0-0.2v-0.2l0-0.2
				c-0.2-1.2-0.7-1.9-0.8-3.5c-0.3,1.1-0.4,2-0.3,3.1c0.1,1.2,0.5,1.8,0.4,2.2l-0.1,0.7l0,0l-0.5,0.3l-0.7,0.3l-0.3,0.2l-0.4,0.1
				l0.2,0l0.3-0.2c0.4-0.3,0.7-0.5,1-1c0.2-0.3,0.2-1.6-0.2-1.9c-0.3-0.2-0.7-0.6-0.9-1c-0.1-0.1-0.2-0.1-0.3-0.1
				c-0.2,0.1-1.4,0.4-2,0.5c-0.2,0.1-0.3,0.1-0.3,0.3c-0.2,0.9-0.4,1.9-0.7,2.7l-0.1,0.4v-0.4c0-0.9-0.2-1.7-0.9-2.4
				c-0.4-0.3-0.6-0.8-0.8-1.1c-0.3-0.4-0.5-0.6-1-0.7c-0.4,0-0.3,0.1-0.6,0.3c-0.4,0.3-0.7,0.4-1.2,0.5c-0.1,0-0.2,0.1-0.1,0.2
				c0.1,0.7,0,1.8,0.1,2.2c0,0.2,0.6,0.7,1,1l0.2,0.3l0,0h-0.1c-0.5-0.3-1-0.6-1.5-0.9v-0.2l0.1-0.4l0.1-0.4l0-0.3l0.1-0.3l0-0.3V63
				v-0.4l0-0.4l0-0.2l0-0.3h-0.1l0-0.2l-0.1-0.4L21.5,61l-0.1-0.1l-0.1-0.4l-0.3-0.1l-0.2-0.4l-0.1-0.2l-0.3-0.2l-0.1-0.2L20,59.3
				l-0.2-0.4l-0.3-0.4l-0.3-0.4l0.1,0.6l0,0.5l-0.1,0.4l0,0.3c0,0,0,0,0,0V60v0.6l0,0v-0.2V60v-0.2v0v-0.1l0,0l-0.1-0.1L19,59.3
				l-0.1-0.2L18.8,59l-0.2-0.2l0,0l-0.1-0.1l-0.2-0.2l-0.1-0.2L18,58.2l-0.2-0.3l-0.1-0.1l-0.1,0.4v0.4l0,0.4l0,0.3l0.1,0.3l-0.2,0
				l0.1,0.3v0.4l0,0.3l0.2,0.4l0.1,0.4l0,0.2L18,62l0.1,0.2l0.3,0.8v0l-0.2-0.1l-0.3-0.2l-0.4-0.2l-0.2-0.1l-0.2-0.1l-0.1-0.1
				l-0.3-0.4l-0.2-0.2l-0.2-0.1l0.1-0.3l0.2-0.3l0.3-0.5l0.1-0.4v0l0.1,0v-0.2v-0.5v-0.5l0.1-0.4l0.1-0.2h0l-0.1-0.1v-0.3l-0.1-0.3
				l0-0.3L17,56.8l-0.1-0.5l-0.2,0.1l-0.1,0.2l-0.1,0.2L16.4,57l-0.1,0.2v0.3l0,0.2l-0.1,0.1l-0.1,0.2L16,58.2l-0.1,0.2l-0.2,0.3
				v0.2c-0.1-0.2-0.3-0.4-0.5-0.4c-0.3,0-0.5,0.3-0.5,0.6c0,0.2,0.1,0.3,0.2,0.4l-0.1,0.2l0,0.2V60l-0.1,0l0,0h0l-0.1-0.1l-0.1-0.8
				l0-0.3l0.1-0.1l0.1-0.2l0.2-0.2l0.2-0.1V58l0.1-0.3l0.1-0.1l0.1-0.3l0.1-0.2l0-0.2l0.1-0.1l0.1-0.3l0.1-0.3l-0.1-0.2l-0.1-0.2
				l0-0.1l0.1-0.3v-0.4v-0.4l0-0.5l0-0.2l-0.1-0.3l-0.1-0.3l-0.1-0.3v-0.2l-0.1-0.2l-0.1-0.5l-0.2,0.4L14.9,53l-0.4,0.2l-0.2,0.2
				l0,0l0-0.2L14.3,53l-0.2-0.7L14,51.6V51l-0.4,0.5L13.3,52L13,52.4l-0.2,0.5l-0.2,0.4l0,0l0.1,0.3v0.4v0.6l-0.1,0.6l-0.1,0.5
				l0-0.5l0.1-0.6v-0.6v-0.4l-0.1-0.3L12.5,53l0-0.1c0,0,0-0.2,0-0.2l-0.1-0.3l-0.1-0.2l-0.1-0.3l-0.1-0.2l-0.2-0.4L11.7,51
				l-0.3-0.4l0,0l-0.4-0.8L11,50.4l-0.2,0.3V51l-0.1,0.3v0.3l-0.1,0.4l0.1,0.3l0,0.6l0,0.4l0,0.5l0,0.3l0,0.2c0-0.1-0.1-0.2-0.1-0.4
				L10,52.5l0.1-0.6l-0.3-0.4l-0.1-0.3l0,0l0-0.1l0.1-0.3l0.1-0.4l0.1-0.2l0.1,0c0.1,0,0.1,0,0.2,0c0.4,0,0.7-0.3,0.7-0.6
				c0-0.3-0.3-0.6-0.7-0.6c-0.4,0-0.7,0.3-0.7,0.6c0,0.2,0.1,0.4,0.3,0.5l0,0.1l-0.1,0.3l-0.1,0.3l0,0.2l0,0l-0.1-0.1l-0.1-0.4
				L9.4,50l0-0.5v0l0.1-0.2l0.2-0.2l0.5-0.1l0.4-0.2l0.7-0.4l0.5-0.4v0l0.3-0.2l0.4-0.4l0.2-0.4l0.3-0.6l0.2-0.5l0-0.6
				c0-0.3,0.1-0.6,0.1-0.8c0,0,0,0,0,0v0c0,0,0,0,0,0c0,0,0-0.1,0-0.1c0,0-0.1,0-0.1,0v0l-0.1,0.1L13,44.7l-0.3,0.2l-0.4,0.2
				l-0.3,0.2l0.2-0.3l0.4-0.8l0.2-0.8l0.2-0.7l0.2-0.6l0,0l0.1-0.1h0l0,0l0,0l0,0l0,0l-0.1,0l-0.5,0.3l-0.5,0.3l-0.2,0.3h-0.3
				L11.7,43l-0.2,0l-0.2,0.2l-0.1,0.2H11l-0.4,0.2l-0.2,0.1l0,0.1l-0.2,0L10,44v0l0-0.6l-0.2-0.6l0-0.4L9.6,42l0.1-0.1l0.1-0.1h0.2
				c0.1,0.2,0.3,0.4,0.6,0.4c0.3,0,0.6-0.3,0.6-0.6c0-0.4-0.3-0.6-0.6-0.6c-0.3,0-0.6,0.3-0.6,0.6v0l-0.1,0l-0.2,0.1l-0.2,0.1
				L9.4,41v0.1l0-0.1l-0.3,0.5l-0.2,0.2l-0.1,0.4c-0.1,0-0.2,0.4-0.2,0.4l-0.2,0l0,0.4l-0.1,0l-0.2,0.6l-0.1,0.5L8,44.3l-0.1,0.3
				L7.8,45l-0.1-0.3l0,0.1L7.8,45v-0.1l-0.1-0.1l-0.1-0.1l-0.1-0.1L7.3,44L7,43.6l-0.4-0.4l-0.4-0.3l-0.3-0.3l-0.3-0.2L5.5,42l0,0
				l0,0l0,0l-0.3-0.2l-0.1-0.1l-0.2,0l-0.5-0.5l0,0.3l0.1,0.4l0.1,0.6l0.2,0.4l0,0.1l0.1,0.2l0,0.3l0.1,0.3l0,0.1L5,44.2l0.1,0.2
				L5,44.6l0.2,0.2l0.1,0.3l0.1,0.1L4.8,45l-0.3-0.1l-0.4-0.1l-0.5-0.1l-0.2,0H3.1H2.8l-0.2,0l-0.3-0.1l-0.3,0l0,0l-0.4-0.1l0.1,0.2
				l0.2,0.4l0.2,0.4v0.1l0.3,0.4l0.4,0.4l0.4,0.4l0.4,0.3l0.2,0.3l0.2,0.1l0.2,0.2l0.2,0.1l0.2,0.1l0.2,0.1l0.2,0.2l0.2,0.1L5.5,48
				l0.4,0.1l0.2,0.1l0.1,0.1l0.2,0.1l0.2,0.1l0.3,0.2H7l0.4,0.1l0.4,0.1l0.4,0.3l0.4,0.3L9.1,50l0,0.3L9.3,51l0,0l-0.1-0.1L9,50.8
				l0,0l0,0c0.1-0.1,0.1-0.2,0.1-0.3c0-0.3-0.3-0.6-0.6-0.6c-0.4,0-0.7,0.3-0.7,0.6c0,0.3,0.3,0.6,0.7,0.6c0.2,0,0.3,0,0.4-0.1L9,51
				l0.2,0.2l0.1,0.1v0l0,0.5l0.2,0.4l0.1,0.3l-0.1-0.1l-0.2-0.3L9,52l-0.3-0.3l-0.3-0.1l0,0c0,0,0-0.1,0-0.1c0-0.3-0.3-0.6-0.7-0.6
				c-0.3,0-0.6,0.3-0.6,0.6c0,0.3,0.3,0.6,0.6,0.6c0.3,0,0.5-0.1,0.6-0.3l0.1,0L8.8,52l0.4,0.3l0.3,0.3l0.2,0.2l0,0l0,0.1l0.4,1.2
				l0.7,1.5l-0.5-0.5L10,54.6l-0.2-0.3l-0.2-0.1l-0.3-0.4L9,53.6l-0.2-0.1l-0.3-0.2l-0.3,0L7.9,53l-0.2,0l-0.5-0.3H7H6.5l-0.5-0.1
				l-0.5-0.2l-0.6,0l-0.4-0.1l-0.6,0l0.2,0.2l0.2,0.3l0.2,0.3l0.2,0.2L5,53.3l0.2,0.3l0.2,0.3l0.1,0.2l0.2,0.1l0.1,0.2l0.2,0.2
				l0.2,0.3l0.2,0l0.3,0.3l0.1,0.2l0.3,0.1l0.3,0.2l0.4,0.1h0.2l0.3,0.3l0.5,0h0.5l0.3,0.1h0.4l0.5-0.1l0.4,0.1l0.2,0.1l0,0l0.2,0.2
				l0.4,0.5l0.4,0.4l0.2,0.4l0.3,0.2l0.3,0.4l0.2,0.3l0.2,0.2l0.3,0.3l0,0.1l0,0l-0.3-0.1l-0.2-0.1L13,59l-0.3-0.2l-0.1-0.1
				l-0.2-0.2l-0.1-0.1l-0.2-0.2L11.9,58l-0.2-0.2l-0.2,0l-0.3-0.1L11,57.4h-0.3l-0.2-0.2l-0.3,0L10,57.1L9.7,57l-0.4,0l-0.1,0.1
				l-0.3,0L8.4,57L8,56.9l-0.2,0L7.3,57H6.8l-0.4-0.1L6.1,57l-0.4,0L6,57.1L6,57.2l0.2,0.1l0.2,0.4l0.2,0.2L6.7,58l0,0.1L7,58.2
				l0.1,0.2l0.2,0.2l0.2,0.1L7.7,59L8,59.1l0.3,0.2l0.5,0.1l0.1,0.1l0.4,0.1l0.3,0.2l0.4,0.1l0.3,0.1h0.2l0.2,0h0.4l0.2-0.1l0.4,0.1
				l0.1-0.1l0.3,0l0.4-0.1h0.6l0.5,0.1l0.4,0.2l0.2,0.2l0.2,0.1l0,0l0,0l-0.2-0.1l-0.2,0.2l0.1,0.1l0.2,0.2l0.2,0.2l0.4,0.3l0.2,0.2
				l0,0L14.8,61l-0.4-0.1l-0.3-0.1c0,0,0,0,0-0.1c0-0.3-0.3-0.6-0.6-0.6c-0.3,0-0.6,0.3-0.6,0.6c0,0.3,0.3,0.6,0.6,0.6
				c0.2,0,0.5-0.2,0.5-0.4l0.4,0.1l0.6,0.2l0.2,0l0.4,0.4L16,62l0.1,0l0.3,0.1l-0.3,0l-0.2,0h-0.3l-0.2-0.1l-0.3-0.1H15h-0.2h-0.2
				l-0.1-0.1l-0.3,0l-0.3,0.1h-0.4l-0.2-0.1h-0.3l-0.2,0l-0.2,0l0.4,0.4l0.2,0.1l0.1,0.2l0.4,0.2l0.3,0.2l0.1,0.1l0.1,0.2l0.3,0.1
				l0.3,0.5h0.2l0.1,0.2l0.3,0.2l0.3,0.1l0.2,0.1l-0.6,0.1L15,64.5l-0.4,0.1l-0.2,0l-0.3,0.1l-0.2,0.1L13.5,65L13,65.2l-0.5,0.2
				l-0.3,0.1l-0.3,0l0.4,0.2l0.3,0.2l0.4,0l0.5,0.2l0.2,0l0.3,0.2l0.5,0.2h0.2l0.4,0.1l0.3,0h0.4l0.2,0h0.4l0.2-0.2l0.5-0.1l0.2-0.1
				l0.2-0.1L18,66l0.2,0l0.2-0.1l0.2-0.3l0.2-0.1l0.2-0.1l0.2-0.1l0.1-0.2l0.5-0.2l0.1,0l0.5,0.2l0.4,0.2l0.1,0l0,0l-0.2,0.1
				l-0.3,0.1l-0.4,0l0,0.1l-0.3,0.1l-0.5,0.2l-0.2,0.1l-0.4,0.2l-0.3,0.2L18,66.7L17.9,67l-0.4,0.1l-0.2,0.3l-0.3,0.2l-0.1,0.2
				L16.7,68l-0.2,0.2l-0.1,0.2l-0.2,0.2l-0.2,0.2L16,69l-0.1,0.3l0.4,0l0.3-0.1l0.4-0.1l0.2-0.1l0.2,0l0.2,0l0.3-0.1l0.2-0.1
				l0.4-0.1l0.2-0.1l0.2-0.2l0.2,0l0.2-0.1l0.3-0.1l0.2-0.1l0.2,0l0.2-0.3l0.2-0.2l0.2-0.1l0.3-0.2l0.1-0.2l0.1-0.3
				c0.3-0.4,0.4-0.7,0.3-1.3l0.1-0.1l0,0.1l0.1,0l0.2,0.2l1,0.4l0,0l-0.1,0.2v0.1c-0.4,0-0.6,0.3-0.6,0.7c0,0.4,0.3,0.6,0.7,0.6
				c0.4,0,0.7-0.3,0.7-0.6c0-0.3-0.2-0.6-0.5-0.6l0-0.1l0.1-0.1l0.4,0.3l0.6,0.2l0.3,0.2c0.6,0.1,1.2,0.3,1.8,0.6l0.4,0v0l0.1,0.4
				l-0.1-0.3l-0.2,0l-0.5,0.1l-0.7,0.2l-0.6,0.1l-0.8,0.1h0l0,0l0.2,0.6l0.2-0.1l0.4,0l0.5,0l0.3,0l0.1-0.2h0.3l0.3-0.2l0.6-0.3
				l-0.1,0.3L26,68.8l-0.4,0.6l-0.4,0.7l-0.5,0.7l-0.3,0.4l0,0l-0.1-0.1l-0.1-0.4l-0.2-0.6l-0.1-0.5l-0.1-0.3l-0.1-0.4l-0.2-0.6
				C23.2,68,23.1,68,22.9,68c-0.5,0.2-0.9,0.2-1.5,0.2c-0.2,0-0.2,0.3-0.2,0.4c-0.1,0-0.1,0-0.2,0c-0.6-0.1-0.6,0-1,0.4
				c-0.3,0.3-0.5,0.5-0.7,0.9l-0.3,0.4l-0.3,0.4l0.4-0.3c0.4-0.3,0.8-0.5,1.3-0.6c0.1,0,0.5-0.2,0.5-0.2l0.2-0.1l0.1-0.1h0l0,0.3
				l0,0.5c0,0.4-0.2,0.8-0.4,1.1c-0.2,0.4-0.5,0.4-0.6,0.9c0.8-0.3,1.2-0.4,1.5-0.7v0.2c0,0.3,0.4,0.7,0.4,1.2
				c0.2-0.4,0.1-1,0.4-1.4l0.1-0.2l0.2,0.2l0.2,0.2l0.2,0.1h0.2l-0.1,0l0.2,0.1l0.4,0l0.3,0l0.5,0.1h0.4l0.3,0l0.2-0.2l0.4-0.3
				l0.4-0.5l0.3-0.4l0.1-0.2l0.1-0.3l0-0.3l0-0.3v-0.3v-0.4v-0.2l0.1,0l0.1,0c0,0.6,0.1,1.3,0.2,1.9c0,0.2,0.6,0.9,0.8,1.2
				c0.2,0.4,0.6,0.1,1.1,0.2c0.4,0.1,0.6,0.2,1,0l0.1-0.1l0,0l0,0l0.3-0.6l0.3-0.9L31,70c0.2,0.4,0.2,1,0.4,1.4
				c0.1,0.3,0.7,0.6,0.8,1.4c0.1-0.3,0.6-0.7,0.7-0.9c0.5,0.1,1,0,1.5,0.2c-0.2-0.5-0.7-0.7-1.1-1c-0.1-0.1-0.2-0.9-0.3-1.3l0.4,0.1
				l0.2,0.1v0l0.2,0l0.5,0.1l0.4,0.2l0.6,0.2l-0.3-0.3L34.6,70l-0.3-0.2l-0.2-0.2l-0.2-0.3l-0.2-0.2l-0.3-0.2l-0.1,0l-0.3,0
				l-0.3-0.1h0l0,0h0l0,0l-0.2,0h-0.1l-0.1-0.3c-0.1-0.2-0.6-0.3-0.8-0.3c-0.4,0-0.7-0.1-1.2-0.2c-0.2,0-0.3-0.1-0.4,0.1l-0.1,0.1
				l-0.1-0.1c-0.4-0.1-0.8-0.2-1.2-0.3l-0.2-0.1l-0.3-0.1l0,0l0.2-0.1l0.5-0.1l0.4-0.1l0.3-0.1l0.4-0.1l0.2-0.2l0.4-0.2l-0.1,0v0
				l0.2,0l0.1,0l0.1,0.1c-0.1,0.3,0,0.6,0.3,0.9c0.4,0.3,0.9,0.3,1.1,0.1c0.2-0.3,0.1-0.7-0.2-1c-0.4-0.3-0.8-0.3-1.1-0.1l0,0
				l-0.2-0.1l-0.2-0.1l-0.2,0l0.2,0l0-0.1l0.2-0.1l0.3-0.1l0.2-0.1l0.3-0.1l0,0l0.1,0l0.4,0.1c0.5,0.2,1.7,1,3.4,1.2
				c1,0.1,2,0.1,2.9,0.4c-0.8-0.5-1.9-1-2.8-1.3c-0.2-0.1-0.4-0.1-0.5-0.1c0.1-0.2,0.1-0.3,0-0.5c0.4,0.3,0.9,0.6,1.4,0.8
				c1.1,0.4,2.2,0.8,3.4,0.8c-1-0.5-1.9-1.4-2.9-1.9c-0.9-0.5-1.6-0.5-2.6-0.6l-0.2-0.2l0.1,0l0.2-0.1l0.3-0.1l0.2,0.1l0.1,0
				l0.2-0.1l0.2-0.2l0.2-0.1l0.3-0.1l-0.1,0l0.1,0.1l0.4,0.3c0.7,0.4,1.4,0.9,2.3,1.2c0.8,0.3,1.7,0.4,2.5,0.6
				c-0.7-0.5-1.5-1-2.3-1.5c-0.5-0.3-0.9-0.4-1.5-0.6L37.1,64l-0.6-0.1l0,0L36.4,64l0.1-0.1l0.3-0.2l-0.2,0.2l0.4,0.1l0.5,0.1l0.5,0
				c1,0.1,2.1,0,3.2-0.2c0.7-0.1,1.4-0.2,2.1-0.4c-0.9-0.1-1.7-0.3-2.6-0.3c-1-0.1-2-0.1-3,0l-0.3,0.3l-0.1,0.1l0.1-0.1l0.3-0.3
				c0.3-0.3,0.6-0.6,0.9-1l0.1-0.1l0,0.1h0.1l0.2,0h0c0,0.3,0.3,0.7,0.7,0.7c0.5,0.1,0.9-0.2,1-0.5c0.1-0.4-0.3-0.7-0.7-0.8
				c-0.4-0.1-0.8,0.1-0.9,0.4h0l-0.1,0l0-0.1l0.2-0.5l0.2-0.4l0.1-0.1l0,0l0.3,0.2l0.4,0.4c0.9,0.4,1.8,0.8,2.8,1.1
				c0.7,0.2,1.3,0.4,2,0.5c-0.5-0.4-1-0.9-1.6-1.3l-0.9-0.5l-0.3-0.2l0.9,0c1.2-0.2,2.5-0.3,3.7-0.9c-1.3-0.2-2.3-0.5-3.9-0.5
				c-1.1,0.1-2.1,0.4-3.1,0.7h0l0-0.2l0.4-0.3l0.3-0.4l0.2-0.3l0.2-0.4l0.3-0.2c0.7-0.2,1.5-0.3,2.2-0.6l1.1-0.4
				c1.3-0.5,2.5-1.5,3.4-2.4c-1.4,0.3-2.6,0.5-3.7,1.1c-0.8,0.4-1.5,0.9-2.2,1.5l-0.3,0.2L41.3,58l0.1-0.3l0.1-0.2l0.3-0.3l0.3-0.3
				c0.4-0.3,0.7-0.6,1.1-0.9c0.8-0.6,1.3-1.1,1.8-1.9c0.8-1.1,1.2-2.1,1.6-3.4c-0.2,0.2-0.4,0.5-0.7,0.7c0.1-0.2,0.1-0.4,0-0.5
				l-0.1-0.1c-0.2-0.3-0.7-0.2-1.1,0.1c-0.2,0.2-0.4,0.5-0.3,0.7l0,0l-0.1,0.2l-0.1,0.1l0-0.1l0.1-0.2l0.1-0.2l0.1-0.1l0.1-0.1
				l0-0.2l0.1-0.1l0.2-0.2l0.2-0.1l0.2-0.2l0.2-0.1c0.8-0.4,1.5-0.7,2.3-1.2c0.9-0.6,1.5-1.5,2.2-2.4l-0.2,0.1
				c-1.6,0.7-3.5,1.6-4.4,2.9l-0.3,0.4l-0.3,0.4l-0.2,0.3l-0.2,0.2l0-0.2l0.1-0.3l0.1-0.2l0.1-0.2l0.1-0.2l0-0.3v-0.4L45,49l0.2-0.2
				l0.2-0.2c0,0,0.1-0.1,0.1-0.1v0c0.2,0.2,0.7,0.2,1.1-0.1c0.4-0.3,0.5-0.8,0.2-1c-0.2-0.3-0.7-0.2-1.1,0.1
				c-0.3,0.2-0.4,0.6-0.3,0.9l0.1-0.1l-0.1,0.1l-0.2,0.2L45,48.8L44.8,49l-0.1,0v0.1h0v-0.3l0.1-0.3l0.2-0.4l0.2-0.3l0.3-0.4
				l0.1-0.2l0-0.2c0.5-0.4,0.9-0.6,1.5-0.7c0.3-0.1,2.7,0.1,5.2-2.6c-2.2,0.4-4.7,1-6.1,2.5l-0.7,0.7l0.1-0.1l0.1-0.2l0.2-0.3
				l0.3-0.3l0.4-0.4c0.4-0.5,0.9-1,1.2-1.6c0.7-1.3,0.8-2.1,1.1-3.5c-0.9,0.9-1.7,2.2-2.3,3.4l-0.3,0.5c-0.1,0.3-0.2,0.5-0.3,0.8
				l-0.2,0.4l-0.1,0.3L45.6,46l-0.1,0.3l-0.1,0.3L45.4,46.7z M46.1,40.7c0.2-0.4,0.1-0.9-0.2-1c-0.3-0.1-0.7,0.1-0.8,0.6
				c-0.1,0.4-0.1,0.8,0.2,0.9l0.1-0.1l0.1-0.2l0.1,0.1l-0.1,0.3C45.6,41.4,45.9,41.1,46.1,40.7"/>
			<path class="st0" d="M26.7,28c-6.5,0-11.9,7.5-11.9,16.6c0,9.2,5.3,16.6,11.9,16.6c6.5,0,11.9-7.5,11.9-16.6
				C38.5,35.4,33.2,28,26.7,28 M26.7,61.6c-3.3,0-6.3-1.8-8.6-5c-2.3-3.2-3.6-7.5-3.6-12c0-4.5,1.3-8.8,3.6-12c2.3-3.2,5.4-5,8.6-5
				c3.3,0,6.3,1.8,8.6,5c2.3,3.2,3.6,7.5,3.6,12c0,4.5-1.3,8.8-3.6,12C33,59.8,30,61.6,26.7,61.6"/>
		</g>
	</g>
	<rect x="246.7" y="24.4" class="st0" width="1.6" height="38.2"/>
	<g>
		<path class="st0" d="M263.4,31.1v2.2h-1.5v-7.6h3.5c1.5,0,2.8,1,2.8,2.7c0,1.6-1.2,2.7-2.8,2.7H263.4z M263.4,27.1v2.7h1.8
			c0.8,0,1.4-0.5,1.4-1.4c0-0.9-0.6-1.4-1.4-1.4H263.4z"/>
		<path class="st0" d="M274.2,33.3l-1.7-2.2h-1.7v2.2h-1.5v-7.6h3.5c0.8,0,1.4,0.2,2,0.7c0.5,0.5,0.8,1.1,0.8,1.9
			c0,1.1-0.6,1.9-1.5,2.4l2,2.5H274.2z M270.7,27.1v2.7h1.8c0.8,0,1.4-0.5,1.4-1.4c0-0.9-0.6-1.4-1.4-1.4H270.7z"/>
		<path class="st0" d="M278.4,26.2c0.6-0.3,1.3-0.5,2.1-0.5s1.5,0.2,2.1,0.5c1.2,0.7,1.9,1.9,1.9,3.4c0,2.2-1.7,3.9-4,3.9
			c-2.3,0-4-1.6-4-3.9C276.5,28.1,277.2,26.8,278.4,26.2z M278.7,31.4c0.5,0.5,1,0.7,1.8,0.7c0.7,0,1.3-0.2,1.8-0.7
			c0.5-0.5,0.7-1.1,0.7-1.8c0-0.7-0.2-1.3-0.7-1.8c-0.4-0.5-1-0.7-1.8-0.7c-0.7,0-1.3,0.2-1.8,0.7c-0.5,0.5-0.7,1.1-0.7,1.8
			C278,30.3,278.3,30.9,278.7,31.4z"/>
		<path class="st0" d="M291.1,30.4h-2v-1.3h3.5v3.7c-0.8,0.4-1.9,0.7-2.8,0.7c-2.8,0-4.4-1.6-4.4-3.9c0-2.5,2-3.9,4.5-3.9
			c0.9,0,1.7,0.2,2.4,0.5l-0.1,1.3c-0.7-0.3-1.5-0.5-2.2-0.5c-0.9,0-1.6,0.2-2.2,0.7c-0.6,0.4-0.8,1-0.8,1.8c0,0.8,0.3,1.4,0.8,1.8
			c0.5,0.5,1.2,0.7,2.1,0.7c0.6,0,1.1-0.1,1.4-0.2V30.4z"/>
		<path class="st0" d="M298.9,33.3l-1.7-2.2h-1.7v2.2h-1.5v-7.6h3.5c0.8,0,1.4,0.2,2,0.7c0.5,0.5,0.8,1.1,0.8,1.9
			c0,1.1-0.6,1.9-1.5,2.4l2,2.5H298.9z M295.4,27.1v2.7h1.8c0.8,0,1.4-0.5,1.4-1.4c0-0.9-0.6-1.4-1.4-1.4H295.4z"/>
		<path class="st0" d="M307.3,33.3l-0.6-1.5h-3.5l-0.6,1.5H301l3.1-7.6h1.7l3.1,7.6H307.3z M305,27.4l-1.3,3.3h2.7L305,27.4z"/>
		<path class="st0" d="M314,31h-0.2l-2.5-2.8v5.2h-1.5v-7.6h1.3l2.9,3.4l2.8-3.4h1.3v7.6h-1.5v-5.2L314,31z"/>
		<path class="st0" d="M325.2,33.3l-0.6-1.5h-3.5l-0.6,1.5h-1.6l3.1-7.6h1.7l3.1,7.6H325.2z M322.9,27.4l-1.3,3.3h2.7L322.9,27.4z"
			/>
		<path class="st0" d="M332.6,26.2l-0.1,1.3c-0.2-0.1-0.5-0.2-1-0.3c-0.4-0.1-0.8-0.2-1.2-0.2c-0.9,0-1.4,0.3-1.4,0.9
			c0,0.3,0.1,0.5,0.3,0.6c0.2,0.1,0.3,0.2,0.6,0.3l0.1,0l1.1,0.3c1.3,0.4,2,0.9,2,2.1c0,0.7-0.3,1.2-0.8,1.7
			c-0.5,0.4-1.2,0.6-2.1,0.6c-0.5,0-1.1-0.1-1.6-0.2c-0.5-0.1-0.9-0.2-1.2-0.4l0.1-1.3c0.2,0.1,0.6,0.3,1.1,0.4
			c0.5,0.1,1,0.2,1.4,0.2c0.9,0,1.4-0.3,1.4-0.9c0-0.5-0.3-0.7-0.9-0.9l-1.2-0.3c-1.3-0.4-2-1-2-2c0-0.7,0.3-1.3,0.8-1.7
			c0.5-0.4,1.2-0.6,2.1-0.6C331,25.7,331.9,25.8,332.6,26.2z"/>
		<path class="st0" d="M261.8,39.1h3.2c2.4,0,3.8,1.4,3.8,3.8c0,1.2-0.3,2.1-1,2.8c-0.7,0.7-1.6,1-2.8,1h-3.2V39.1z M264.9,45.3
			c1.6,0,2.4-0.8,2.4-2.5c0-1.7-0.8-2.5-2.4-2.5h-1.6v5H264.9z"/>
		<path class="st0" d="M275.8,45.3v1.3h-5.7v-7.6h5.6v1.3h-4.1v1.7h3.6v1.3h-3.6v1.9H275.8z"/>
		<path class="st0" d="M284.7,46.6l-0.6-1.5h-3.5l-0.6,1.5h-1.6l3.1-7.6h1.7l3.1,7.6H284.7z M282.4,40.7L281,44h2.7L282.4,40.7z"/>
		<path class="st0" d="M288.7,44.4v2.2h-1.5v-7.6h3.5c1.5,0,2.8,1,2.8,2.7c0,1.6-1.2,2.7-2.8,2.7H288.7z M288.7,40.4v2.7h1.8
			c0.8,0,1.4-0.5,1.4-1.4c0-0.9-0.6-1.4-1.4-1.4H288.7z"/>
		<path class="st0" d="M296,39.5c0.6-0.3,1.3-0.5,2.1-0.5s1.5,0.2,2.1,0.5c1.2,0.7,1.9,1.9,1.9,3.4c0,2.2-1.7,3.9-4,3.9
			c-2.3,0-4-1.6-4-3.9C294.1,41.4,294.8,40.1,296,39.5z M296.3,44.7c0.5,0.5,1,0.7,1.8,0.7c0.7,0,1.3-0.2,1.8-0.7
			c0.5-0.5,0.7-1.1,0.7-1.8s-0.2-1.3-0.7-1.8c-0.4-0.5-1-0.7-1.8-0.7c-0.7,0-1.3,0.2-1.8,0.7c-0.5,0.5-0.7,1.1-0.7,1.8
			C295.7,43.6,295.9,44.2,296.3,44.7z"/>
		<path class="st0" d="M305.6,42.3l2.1-3.2h1.7l-3.1,4.7v2.8h-1.5v-2.8l-3.1-4.7h1.8L305.6,42.3z"/>
		<path class="st0" d="M310.9,39.5c0.6-0.3,1.3-0.5,2.1-0.5s1.5,0.2,2.1,0.5c1.2,0.7,1.9,1.9,1.9,3.4c0,2.2-1.7,3.9-4,3.9
			c-2.3,0-4-1.6-4-3.9C309,41.4,309.7,40.1,310.9,39.5z M311.2,44.7c0.5,0.5,1,0.7,1.8,0.7s1.3-0.2,1.8-0.7c0.5-0.5,0.7-1.1,0.7-1.8
			s-0.2-1.3-0.7-1.8c-0.4-0.5-1-0.7-1.8-0.7s-1.3,0.2-1.8,0.7c-0.5,0.5-0.7,1.1-0.7,1.8C310.5,43.6,310.7,44.2,311.2,44.7z"/>
		<path class="st0" d="M325.8,46.6l-0.6-1.5h-3.5l-0.6,1.5h-1.6l3.1-7.6h1.7l3.1,7.6H325.8z M323.5,40.7l-1.3,3.3h2.7L323.5,40.7z"
			/>
		<path class="st0" d="M335.9,45.3v1.3h-5.6v-7.6h1.5v6.3H335.9z"/>
		<path class="st0" d="M342.4,46.6l-0.6-1.5h-3.5l-0.6,1.5h-1.6l3.1-7.6h1.7l3.1,7.6H342.4z M340.1,40.7l-1.3,3.3h2.7L340.1,40.7z"
			/>
		<path class="st0" d="M352.7,45.3v1.3H347v-7.6h5.6v1.3h-4.1v1.7h3.6v1.3h-3.6v1.9H352.7z"/>
		<path class="st0" d="M353.9,39.1h3.2c2.4,0,3.8,1.4,3.8,3.8c0,1.2-0.3,2.1-1,2.8c-0.7,0.7-1.6,1-2.8,1h-3.2V39.1z M357,45.3
			c1.6,0,2.4-0.8,2.4-2.5c0-1.7-0.8-2.5-2.4-2.5h-1.6v5H357z"/>
		<path class="st0" d="M362.1,39.1h1.5v4.8c0,1,0.7,1.5,1.8,1.5c1.1,0,1.8-0.5,1.8-1.5v-4.8h1.5V44c0,1.9-1.6,2.8-3.3,2.8
			c-1.8,0-3.3-0.9-3.3-2.8V39.1z"/>
		<path class="st0" d="M376.7,46.2c-0.8,0.4-1.7,0.6-2.6,0.6c-2.4,0-4.3-1.6-4.2-3.9c0-2.4,2-3.9,4.3-3.9c0.9,0,1.7,0.2,2.4,0.5
			l-0.1,1.3c-0.6-0.3-1.3-0.5-2.1-0.5c-1.6,0-2.9,0.9-2.9,2.5c0,0.8,0.3,1.4,0.8,1.9c0.5,0.5,1.2,0.7,2.1,0.7c0.9,0,1.6-0.2,2.2-0.5
			L376.7,46.2z"/>
		<path class="st0" d="M383.3,46.6l-0.6-1.5h-3.5l-0.6,1.5h-1.6l3.1-7.6h1.7l3.1,7.6H383.3z M381,40.7l-1.3,3.3h2.7L381,40.7z"/>
		<path class="st0" d="M391.9,46.2c-0.8,0.4-1.7,0.6-2.6,0.6c-2.4,0-4.3-1.6-4.2-3.9c0-2.4,2-3.9,4.3-3.9c0.9,0,1.7,0.2,2.4,0.5
			l-0.1,1.3c-0.6-0.3-1.3-0.5-2.1-0.5c-1.6,0-2.9,0.9-2.9,2.5c0,0.8,0.3,1.4,0.8,1.9c0.5,0.5,1.2,0.7,2.1,0.7s1.6-0.2,2.2-0.5
			L391.9,46.2z"/>
		<path class="st0" d="M394.5,39.1v7.6H393v-7.6H394.5z"/>
		<path class="st0" d="M397.6,39.5c0.6-0.3,1.3-0.5,2.1-0.5c0.8,0,1.5,0.2,2.1,0.5c1.2,0.7,1.9,1.9,1.9,3.4c0,2.2-1.7,3.9-4,3.9
			c-2.3,0-4-1.6-4-3.9C395.7,41.4,396.4,40.1,397.6,39.5z M397.9,44.7c0.5,0.5,1,0.7,1.8,0.7s1.3-0.2,1.8-0.7
			c0.5-0.5,0.7-1.1,0.7-1.8s-0.2-1.3-0.7-1.8c-0.4-0.5-1-0.7-1.8-0.7s-1.3,0.2-1.8,0.7c-0.5,0.5-0.7,1.1-0.7,1.8
			C397.2,43.6,397.5,44.2,397.9,44.7z M401.8,36.6l-1.3,1.9h-1.2l0.9-1.9H401.8z"/>
		<path class="st0" d="M406.4,41.5v5.1h-1.5v-7.6h1.4l4.4,5.2v-5.2h1.5v7.6h-1.4L406.4,41.5z"/>
		<path class="st0" d="M420.8,44.3h-0.2l-2.5-2.8v5.2h-1.5v-7.6h1.3l2.9,3.4l2.8-3.4h1.3v7.6h-1.5v-5.2L420.8,44.3z"/>
		<path class="st0" d="M432.1,45.3v1.3h-5.7v-7.6h5.6v1.3h-4.1v1.7h3.6v1.3h-3.6v1.9H432.1z"/>
		<path class="st0" d="M433.3,39.1h3.2c2.4,0,3.8,1.4,3.8,3.8c0,1.2-0.3,2.1-1,2.8c-0.7,0.7-1.6,1-2.8,1h-3.2V39.1z M436.4,45.3
			c1.6,0,2.4-0.8,2.4-2.5c0-1.7-0.8-2.5-2.4-2.5h-1.6v5H436.4z"/>
		<path class="st0" d="M443.1,39.1v7.6h-1.5v-7.6H443.1z"/>
		<path class="st0" d="M450.2,46.6l-0.6-1.5h-3.5l-0.6,1.5H444l3.1-7.6h1.7l3.1,7.6H450.2z M447.9,40.7l-1.3,3.3h2.7L447.9,40.7z"/>
		<path class="st0" d="M457.1,42.3l2.1-3.2h1.7l-3.1,4.7v2.8h-1.5v-2.8l-3.1-4.7h1.8L457.1,42.3z"/>
		<path class="st0" d="M263.5,59.9v-6.2h-2.4v-1.3h6.2v1.3H265v6.2H263.5z"/>
		<path class="st0" d="M274,58.7v1.3h-5.7v-7.6h5.6v1.3h-4.1v1.7h3.6v1.3h-3.6v1.9H274z M273.2,49.9l-1.3,1.9h-1.2l0.9-1.9H273.2z"
			/>
		<path class="st0" d="M281.3,59.5c-0.8,0.4-1.7,0.6-2.6,0.6c-2.4,0-4.3-1.6-4.2-3.9c0-2.4,2-3.9,4.3-3.9c0.9,0,1.7,0.2,2.4,0.5
			l-0.1,1.3c-0.6-0.3-1.3-0.5-2.1-0.5c-1.6,0-2.9,0.9-2.9,2.5c0,0.8,0.3,1.4,0.8,1.9c0.5,0.5,1.2,0.7,2.1,0.7s1.6-0.2,2.2-0.5
			L281.3,59.5z"/>
		<path class="st0" d="M283.9,54.8v5.1h-1.5v-7.6h1.4l4.4,5.2v-5.2h1.5v7.6h-1.4L283.9,54.8z"/>
		<path class="st0" d="M292.7,52.4v7.6h-1.5v-7.6H292.7z"/>
		<path class="st0" d="M300.7,59.5c-0.8,0.4-1.7,0.6-2.6,0.6c-2.4,0-4.3-1.6-4.2-3.9c0-2.4,2-3.9,4.3-3.9c0.9,0,1.7,0.2,2.4,0.5
			l-0.1,1.3c-0.6-0.3-1.3-0.5-2.1-0.5c-1.6,0-2.9,0.9-2.9,2.5c0,0.8,0.3,1.4,0.8,1.9c0.5,0.5,1.2,0.7,2.1,0.7c0.9,0,1.6-0.2,2.2-0.5
			L300.7,59.5z"/>
		<path class="st0" d="M307.3,59.9l-0.6-1.5h-3.5l-0.6,1.5h-1.6l3.1-7.6h1.7l3.1,7.6H307.3z M305,54l-1.3,3.3h2.7L305,54z"/>
		<path class="st0" d="M314.2,55.6l2.1-3.2h1.7l-3.1,4.7v2.8h-1.5v-2.8l-3.1-4.7h1.8L314.2,55.6z"/>
		<path class="st0" d="M322.3,56.8v3.2h-1.5v-7.6h5.4v1.3h-3.9v1.8h3v1.3H322.3z"/>
		<path class="st0" d="M328.5,52.8c0.6-0.3,1.3-0.5,2.1-0.5c0.8,0,1.5,0.2,2.1,0.5c1.2,0.7,1.9,1.9,1.9,3.4c0,2.2-1.7,3.9-4,3.9
			c-2.3,0-4-1.6-4-3.9C326.5,54.7,327.2,53.4,328.5,52.8z M328.8,58c0.5,0.5,1,0.7,1.8,0.7s1.3-0.2,1.8-0.7c0.5-0.5,0.7-1.1,0.7-1.8
			c0-0.7-0.2-1.3-0.7-1.8c-0.4-0.5-1-0.7-1.8-0.7s-1.3,0.2-1.8,0.7c-0.5,0.5-0.7,1.1-0.7,1.8C328.1,56.9,328.3,57.5,328.8,58z"/>
		<path class="st0" d="M340.7,59.9l-1.7-2.2h-1.7v2.2h-1.5v-7.6h3.5c0.8,0,1.4,0.2,2,0.7c0.5,0.5,0.8,1.1,0.8,1.9
			c0,1.1-0.6,1.9-1.5,2.4l2,2.5H340.7z M337.3,53.7v2.7h1.8c0.8,0,1.4-0.5,1.4-1.4c0-0.9-0.6-1.4-1.4-1.4H337.3z"/>
		<path class="st0" d="M347.9,57.6h-0.2l-2.5-2.8v5.2h-1.5v-7.6h1.3l2.9,3.4l2.8-3.4h1.3v7.6h-1.5v-5.2L347.9,57.6z"/>
		<path class="st0" d="M359,59.9l-0.6-1.5h-3.5l-0.6,1.5h-1.6l3.1-7.6h1.7l3.1,7.6H359z M356.7,54l-1.3,3.3h2.7L356.7,54z"/>
		<path class="st0" d="M367.5,59.5c-0.8,0.4-1.7,0.6-2.6,0.6c-2.4,0-4.3-1.6-4.2-3.9c0-2.4,2-3.9,4.3-3.9c0.9,0,1.7,0.2,2.4,0.5
			l-0.1,1.3c-0.6-0.3-1.3-0.5-2.1-0.5c-1.6,0-2.9,0.9-2.9,2.5c0,0.8,0.3,1.4,0.8,1.9c0.5,0.5,1.2,0.7,2.1,0.7c0.9,0,1.6-0.2,2.2-0.5
			L367.5,59.5z"/>
		<path class="st0" d="M370.1,52.4v7.6h-1.5v-7.6H370.1z"/>
		<path class="st0" d="M373.3,52.8c0.6-0.3,1.3-0.5,2.1-0.5c0.8,0,1.5,0.2,2.1,0.5c1.2,0.7,1.9,1.9,1.9,3.4c0,2.2-1.7,3.9-4,3.9
			c-2.3,0-4-1.6-4-3.9C371.4,54.7,372.1,53.4,373.3,52.8z M373.6,58c0.5,0.5,1,0.7,1.8,0.7s1.3-0.2,1.8-0.7c0.5-0.5,0.7-1.1,0.7-1.8
			c0-0.7-0.2-1.3-0.7-1.8c-0.4-0.5-1-0.7-1.8-0.7s-1.3,0.2-1.8,0.7c-0.5,0.5-0.7,1.1-0.7,1.8C372.9,56.9,373.1,57.5,373.6,58z
			 M377.4,49.9l-1.3,1.9h-1.2l0.9-1.9H377.4z"/>
		<path class="st0" d="M382.1,54.8v5.1h-1.5v-7.6h1.4l4.4,5.2v-5.2h1.5v7.6h-1.4L382.1,54.8z"/>
		<path class="st0" d="M397.8,58.7v1.3h-5.7v-7.6h5.6v1.3h-4.1v1.7h3.6v1.3h-3.6v1.9H397.8z"/>
		<path class="st0" d="M400.6,54.8v5.1H399v-7.6h1.4l4.4,5.2v-5.2h1.5v7.6h-1.4L400.6,54.8z"/>
		<path class="st0" d="M416.3,58.7v1.3h-5.7v-7.6h5.6v1.3h-4.1v1.7h3.6v1.3h-3.6v1.9H416.3z"/>
		<path class="st0" d="M417.5,52.4h3.2c2.4,0,3.8,1.4,3.8,3.8c0,1.2-0.3,2.1-1,2.8c-0.7,0.7-1.6,1-2.8,1h-3.2V52.4z M420.6,58.7
			c1.6,0,2.4-0.8,2.4-2.5c0-1.7-0.8-2.5-2.4-2.5H419v5H420.6z"/>
		<path class="st0" d="M425.8,52.4h1.5v4.8c0,1,0.7,1.5,1.8,1.5c1.1,0,1.8-0.5,1.8-1.5v-4.8h1.5v4.9c0,1.9-1.6,2.8-3.3,2.8
			c-1.8,0-3.3-0.9-3.3-2.8V52.4z"/>
		<path class="st0" d="M440.4,59.5c-0.8,0.4-1.7,0.6-2.6,0.6c-2.4,0-4.3-1.6-4.2-3.9c0-2.4,2-3.9,4.3-3.9c0.9,0,1.7,0.2,2.4,0.5
			l-0.1,1.3c-0.6-0.3-1.3-0.5-2.1-0.5c-1.6,0-2.9,0.9-2.9,2.5c0,0.8,0.3,1.4,0.8,1.9c0.5,0.5,1.2,0.7,2.1,0.7c0.9,0,1.6-0.2,2.2-0.5
			L440.4,59.5z"/>
		<path class="st0" d="M447,59.9l-0.6-1.5h-3.5l-0.6,1.5h-1.6l3.1-7.6h1.7l3.1,7.6H447z M444.7,54l-1.3,3.3h2.7L444.7,54z"/>
		<path class="st0" d="M455.5,59.5c-0.8,0.4-1.7,0.6-2.6,0.6c-2.4,0-4.3-1.6-4.2-3.9c0-2.4,2-3.9,4.3-3.9c0.9,0,1.7,0.2,2.4,0.5
			l-0.1,1.3c-0.6-0.3-1.3-0.5-2.1-0.5c-1.6,0-2.9,0.9-2.9,2.5c0,0.8,0.3,1.4,0.8,1.9c0.5,0.5,1.2,0.7,2.1,0.7c0.9,0,1.6-0.2,2.2-0.5
			L455.5,59.5z"/>
		<path class="st0" d="M458.1,52.4v7.6h-1.5v-7.6H458.1z"/>
		<path class="st0" d="M461.2,52.8c0.6-0.3,1.3-0.5,2.1-0.5c0.8,0,1.5,0.2,2.1,0.5c1.2,0.7,1.9,1.9,1.9,3.4c0,2.2-1.7,3.9-4,3.9
			c-2.3,0-4-1.6-4-3.9C459.3,54.7,460,53.4,461.2,52.8z M461.5,58c0.5,0.5,1,0.7,1.8,0.7s1.3-0.2,1.8-0.7c0.5-0.5,0.7-1.1,0.7-1.8
			c0-0.7-0.2-1.3-0.7-1.8c-0.4-0.5-1-0.7-1.8-0.7s-1.3,0.2-1.8,0.7c-0.5,0.5-0.7,1.1-0.7,1.8C460.9,56.9,461.1,57.5,461.5,58z
			 M465.4,49.9l-1.3,1.9h-1.2l0.9-1.9H465.4z"/>
		<path class="st0" d="M470,54.8v5.1h-1.5v-7.6h1.4l4.4,5.2v-5.2h1.5v7.6h-1.4L470,54.8z"/>
	</g>
</g>
</svg>
