<?xml version="1.0" standalone="no"?>
<!DOCTYPE svg PUBLIC "-//W3C//DTD SVG 20010904//EN"
 "http://www.w3.org/TR/2001/REC-SVG-20010904/DTD/svg10.dtd">
<svg version="1.0" xmlns="http://www.w3.org/2000/svg"
 width="180.000000pt" height="180.000000pt" viewBox="0 0 180.000000 180.000000"
 preserveAspectRatio="xMidYMid meet">
<metadata>
Created by potrace 1.11, written by Peter Selinger 2001-2013
</metadata>
<g transform="translate(0.000000,180.000000) scale(0.100000,-0.100000)"
fill="#000000" stroke="none">
<path d="M730 1547 c-90 -30 -146 -66 -212 -132 -62 -62 -116 -156 -145 -250
-16 -54 -18 -101 -18 -498 0 -427 1 -439 20 -454 25 -19 248 -14 268 6 8 8 14
60 17 154 5 140 5 141 30 148 14 4 106 7 206 8 141 1 184 -2 200 -13 17 -13
20 -31 24 -158 l5 -143 134 -3 c90 -2 138 1 147 9 21 17 20 824 -1 922 -38
182 -178 341 -354 403 -91 32 -229 33 -321 1z m267 -283 c48 -28 97 -95 113
-154 5 -19 10 -101 10 -182 0 -190 15 -178 -225 -177 -99 1 -191 4 -205 8
l-25 7 -3 159 c-4 200 4 232 73 301 79 79 170 92 262 38z"/>
</g>
</svg>
